<svg width="27" height="34" viewBox="0 0 27 34" fill="none" xmlns="http://www.w3.org/2000/svg">
<path d="M11.583 18.708L8.666 15.75C8.36067 15.472 8.02033 15.333 7.645 15.333C7.27033 15.333 6.93033 15.472 6.625 15.75C6.347 16.0553 6.208 16.4027 6.208 16.792C6.208 17.1807 6.347 17.514 6.625 17.792L10.416 21.5C10.694 21.8333 11.069 22 11.541 22C12.0137 22 12.4167 21.8333 12.75 21.5L20.041 14.208C20.319 13.9307 20.458 13.6043 20.458 13.229C20.458 12.8543 20.333 12.514 20.083 12.208C19.7777 11.9307 19.4373 11.792 19.062 11.792C18.6873 11.792 18.375 11.9307 18.125 12.208L11.583 18.708ZM13.333 33.583C13.1663 33.583 13.0203 33.576 12.895 33.562C12.7703 33.5487 12.6523 33.528 12.541 33.5C8.87433 32.3333 5.86767 30.0487 3.521 26.646C1.17367 23.2433 0 19.4863 0 15.375V7.583C0 6.889 0.201333 6.25733 0.604 5.688C1.00667 5.118 1.52733 4.69433 2.166 4.417L12.166 0.667C12.5553 0.555667 12.9443 0.5 13.333 0.5C13.7217 0.5 14.1107 0.555667 14.5 0.667L24.5 4.417C25.1387 4.667 25.6593 5.08367 26.062 5.667C26.4647 6.25033 26.666 6.889 26.666 7.583V15.375C26.666 19.4863 25.4923 23.2433 23.145 26.646C20.7983 30.0487 17.7917 32.3333 14.125 33.5C14.097 33.472 13.833 33.4997 13.333 33.583ZM13.333 30.792C16.3883 29.792 18.9023 27.8543 20.875 24.979C22.847 22.1043 23.833 18.903 23.833 15.375V7.5C23.833 7.41667 23.8123 7.34033 23.771 7.271C23.729 7.20167 23.6803 7.153 23.625 7.125L13.583 3.375C13.4997 3.347 13.4163 3.333 13.333 3.333C13.2497 3.333 13.1663 3.347 13.083 3.375L3.041 7.125C2.98567 7.153 2.937 7.20167 2.895 7.271C2.85367 7.34033 2.833 7.41667 2.833 7.5V15.375C2.833 18.903 3.819 22.1043 5.791 24.979C7.76367 27.8543 10.2777 29.792 13.333 30.792Z" fill="#302421"/>
</svg>
