<svg width="24" height="24" viewBox="0 0 24 24" fill="none" xmlns="http://www.w3.org/2000/svg">
<mask id="mask0_3053_37128" style="mask-type:alpha" maskUnits="userSpaceOnUse" x="0" y="0" width="24" height="24">
<rect width="24" height="24" fill="#D9D9D9"/>
</mask>
<g mask="url(#mask0_3053_37128)">
<path d="M8.80017 17.3746C8.63337 17.1914 8.54997 16.9874 8.54997 16.7626C8.54997 16.5374 8.63337 16.3414 8.80017 16.1746L13.0002 11.9746L8.80017 7.75C8.61657 7.6 8.52897 7.4042 8.53737 7.1626C8.54577 6.9206 8.63337 6.7164 8.80017 6.55C8.96657 6.3832 9.16237 6.2998 9.38757 6.2998C9.61237 6.2998 9.81657 6.3832 10.0002 6.55L14.7 11.275C14.8 11.375 14.875 11.4832 14.925 11.5996C14.975 11.7164 15 11.8414 15 11.9746C15 12.1082 14.975 12.2332 14.925 12.3496C14.875 12.4664 14.8 12.5748 14.7 12.6748L10.0002 17.3746C9.83337 17.5414 9.63337 17.6206 9.40017 17.6122C9.16657 17.6038 8.96657 17.5246 8.80017 17.3746Z" fill="#01893D"/>
</g>
</svg>
