<svg width="24" height="24" viewBox="0 0 24 24" fill="none" xmlns="http://www.w3.org/2000/svg">
<mask id="mask0_4302_8326" style="mask-type:alpha" maskUnits="userSpaceOnUse" x="0" y="0" width="24" height="24">
<rect width="24" height="24" fill="#D9D9D9"/>
</mask>
<g mask="url(#mask0_4302_8326)">
<path fill-rule="evenodd" clip-rule="evenodd" d="M4 5C4 6.10457 4.89543 7 6 7H8.2V9.99988H8C6.89543 9.99988 6 10.8953 6 11.9999H3C2.44772 11.9999 2 12.4476 2 12.9999V18.9999C2 19.5522 2.44772 19.9999 3 19.9999H7.52779C8.62643 21.2274 10.223 21.9999 12 21.9999C13.777 21.9999 15.3736 21.2274 16.4722 19.9999H21C21.5523 19.9999 22 19.5522 22 18.9999V12.9999C22 12.4476 21.5523 11.9999 21 11.9999H18C18 10.8953 17.1046 9.99988 16 9.99988H15.8V7H18C19.1046 7 20 6.10457 20 5C20 3.89543 19.1046 3 18 3H6C4.89543 3 4 3.89543 4 5ZM6 5.4H18C18.2209 5.4 18.4 5.22091 18.4 5C18.4 4.77909 18.2209 4.6 18 4.6H6C5.77909 4.6 5.6 4.77909 5.6 5C5.6 5.22091 5.77909 5.4 6 5.4ZM14.2 7H9.8L9.8 9.99988H14.2V7ZM18 13.5999H20.4V18.3999H17.5007C17.8219 17.6649 18 16.8532 18 15.9999V13.5999ZM6 13.5999V15.9999C6 16.8532 6.17814 17.6649 6.49925 18.3999H3.6V13.5999H6ZM16 11.5999H8C7.77909 11.5999 7.6 11.779 7.6 11.9999V15.9999C7.6 18.4299 9.56995 20.3999 12 20.3999C14.4301 20.3999 16.4 18.4299 16.4 15.9999V11.9999C16.4 11.779 16.2209 11.5999 16 11.5999Z" fill="#1C1B1F"/>
</g>
</svg>
