<svg width="24" height="24" viewBox="0 0 24 24" fill="none" xmlns="http://www.w3.org/2000/svg">
<mask id="mask0_3041_12226" style="mask-type:alpha" maskUnits="userSpaceOnUse" x="0" y="0" width="24" height="24">
<rect width="24" height="24" fill="#D9D9D9"/>
</mask>
<g mask="url(#mask0_3041_12226)">
<path d="M12.0252 15.4248C11.8916 15.4248 11.7624 15.3998 11.6376 15.3498C11.5124 15.2998 11.4082 15.2248 11.325 15.1248L7.75024 11.55C7.58344 11.3832 7.50004 11.1874 7.50004 10.9626C7.50004 10.7374 7.60004 10.5332 7.80004 10.35C7.96684 10.1668 8.15844 10.0792 8.37484 10.0872C8.59164 10.0956 8.80004 10.1832 9.00004 10.35L11.175 12.5748V4.5498C11.175 4.3166 11.2584 4.1166 11.4252 3.9498C11.5916 3.7834 11.7916 3.7002 12.0252 3.7002C12.2584 3.7002 12.4542 3.7834 12.6126 3.9498C12.771 4.1166 12.8502 4.3166 12.8502 4.5498V12.5748L15.075 10.35C15.2418 10.1832 15.4376 10.0956 15.6624 10.0872C15.8876 10.0792 16.0918 10.1668 16.275 10.35C16.4582 10.5332 16.5498 10.7374 16.5498 10.9626C16.5498 11.1874 16.4582 11.3832 16.275 11.55L12.7248 15.1248C12.6248 15.2248 12.5124 15.2998 12.3876 15.3498C12.2624 15.3998 12.1416 15.4248 12.0252 15.4248ZM6.00004 19.9998C5.45004 19.9998 4.97924 19.804 4.58764 19.4124C4.19604 19.0208 4.00024 18.55 4.00024 18V15.8502C4.00024 15.6166 4.08344 15.4166 4.24984 15.2502C4.41664 15.0834 4.61664 15 4.84984 15C5.08344 15 5.28344 15.0834 5.44984 15.2502C5.61664 15.4166 5.70004 15.6166 5.70004 15.8502V18C5.70004 18.0832 5.72924 18.1582 5.78764 18.225C5.84604 18.2918 5.91684 18.3252 6.00004 18.3252H18C18.0832 18.3252 18.154 18.2918 18.2124 18.225C18.2708 18.1582 18.3 18.0832 18.3 18V15.8502C18.3 15.6166 18.3834 15.4166 18.5502 15.2502C18.7166 15.0834 18.9166 15 19.1502 15C19.3834 15 19.5834 15.0834 19.7502 15.2502C19.9166 15.4166 19.9998 15.6166 19.9998 15.8502V18C19.9998 18.55 19.804 19.0208 19.4124 19.4124C19.0208 19.804 18.55 19.9998 18 19.9998H6.00004Z" fill="#1C1B1F"/>
</g>
</svg>
