<svg width="24" height="24" viewBox="0 0 24 24" fill="none" xmlns="http://www.w3.org/2000/svg">
<mask id="mask0_4302_8320" style="mask-type:alpha" maskUnits="userSpaceOnUse" x="0" y="0" width="24" height="24">
<rect width="24" height="24" fill="#D9D9D9"/>
</mask>
<g mask="url(#mask0_4302_8320)">
<path d="M11.9998 21.7002C11.5498 21.7002 11.154 21.596 10.8124 21.3876C10.4708 21.1792 10.2332 20.8834 10.0996 20.5002H9.6496C9.1832 20.4502 8.8208 20.2544 8.5624 19.9128C8.304 19.5708 8.1748 19.2082 8.1748 18.825V15.2748C7.108 14.5748 6.2706 13.679 5.6626 12.5874C5.0542 11.4958 4.75 10.2916 4.75 8.97478C4.75 6.95838 5.4542 5.24598 6.8626 3.83758C8.2706 2.42918 9.983 1.72498 11.9998 1.72498C14.0166 1.72498 15.729 2.43338 17.137 3.85018C18.5454 5.26658 19.2496 6.97478 19.2496 8.97478C19.2496 10.3084 18.9454 11.5168 18.337 12.6C17.729 13.6832 16.8916 14.5748 15.8248 15.2748V18.825C15.8248 19.2082 15.6956 19.5708 15.4372 19.9128C15.1788 20.2544 14.8164 20.4502 14.35 20.5002H13.9C13.7664 20.8834 13.5288 21.1792 13.1872 21.3876C12.8456 21.596 12.4498 21.7002 11.9998 21.7002ZM9.8746 18.825H14.125V17.8002H9.8746V18.825ZM9.8746 16.8252H14.125V15.825H9.8746V16.8252ZM9.6496 14.1252H11.35V10.9998L9.5248 9.14998C9.3916 9.03318 9.329 8.89578 9.337 8.73778C9.3454 8.57938 9.4164 8.43338 9.55 8.29978C9.6664 8.18338 9.808 8.12518 9.9748 8.12518C10.1416 8.12518 10.2916 8.18338 10.4248 8.29978L11.9998 9.89998L13.6246 8.27518C13.7414 8.15838 13.879 8.10418 14.0374 8.11258C14.1958 8.12098 14.3416 8.18338 14.4748 8.29978C14.5916 8.43338 14.65 8.58338 14.65 8.74978C14.65 8.91658 14.5916 9.04998 14.4748 9.14998L12.6496 10.9998V14.1252H14.35C15.3 13.6752 16.0708 12.9918 16.6624 12.075C17.254 11.1582 17.5498 10.1332 17.5498 8.99998C17.5498 7.43318 17.0122 6.11238 15.937 5.03758C14.8622 3.96238 13.5498 3.42478 11.9998 3.42478C10.4498 3.42478 9.1374 3.96238 8.0626 5.03758C6.9874 6.11238 6.4498 7.43318 6.4498 8.99998C6.4498 10.1332 6.7456 11.1582 7.3372 12.075C7.9288 12.9918 8.6996 13.6752 9.6496 14.1252Z" fill="#1C1B1F"/>
</g>
</svg>
