<svg width="24" height="24" viewBox="0 0 24 24" fill="none" xmlns="http://www.w3.org/2000/svg">
<mask id="mask0_4302_8348" style="mask-type:alpha" maskUnits="userSpaceOnUse" x="0" y="0" width="24" height="24">
<rect width="24" height="24" fill="#D9D9D9"/>
</mask>
<g mask="url(#mask0_4302_8348)">
<path d="M12 21.7002C10.6668 21.7002 9.4084 21.4502 8.2248 20.9502C7.0416 20.4502 6.0084 19.7584 5.1252 18.8748C4.2416 17.9916 3.5498 16.9584 3.0498 15.7752C2.5498 14.5916 2.2998 13.3332 2.2998 12C2.2998 10.2168 2.7416 8.56682 3.6252 7.05002C4.5084 5.53322 5.75 4.34162 7.35 3.47522C7.3668 3.75842 7.4044 4.03342 7.4628 4.30022C7.5208 4.56662 7.5916 4.88322 7.6752 5.25002C6.5084 5.98322 5.6 6.94982 4.95 8.14982C4.3 9.34982 3.975 10.6332 3.975 12C3.975 14.2332 4.7542 16.129 6.3126 17.6874C7.871 19.2458 9.7668 20.025 12 20.025C14.2332 20.025 16.129 19.2458 17.6874 17.6874C19.2458 16.129 20.025 14.2332 20.025 12C20.025 10.6168 19.6958 9.32942 19.0374 8.13782C18.379 6.94582 17.4666 5.97482 16.3002 5.22482C16.4002 4.87482 16.4792 4.56242 16.5372 4.28762C16.5956 4.01242 16.6332 3.74162 16.65 3.47522C18.2332 4.34162 19.4748 5.53322 20.3748 7.05002C21.2748 8.56682 21.7248 10.2168 21.7248 12C21.7248 13.3332 21.4708 14.5916 20.9628 15.7752C20.4544 16.9584 19.7584 17.9916 18.8748 18.8748C17.9916 19.7584 16.9624 20.4502 15.7872 20.9502C14.6124 21.4502 13.35 21.7002 12 21.7002ZM12 17.7C10.4 17.7 9.05 17.15 7.95 16.05C6.85 14.95 6.3 13.6 6.3 12C6.3 11.1332 6.4834 10.3208 6.8502 9.56282C7.2166 8.80442 7.7248 8.15022 8.3748 7.60022C8.4584 7.86662 8.5502 8.14982 8.6502 8.44982C8.7502 8.74982 8.8584 9.06662 8.9748 9.40022C8.6416 9.75022 8.3916 10.1502 8.2248 10.6002C8.0584 11.0502 7.9752 11.5168 7.9752 12C7.9752 13.1332 8.3626 14.0874 9.1374 14.8626C9.9126 15.6374 10.8668 16.0248 12 16.0248C13.1168 16.0248 14.0668 15.6374 14.85 14.8626C15.6332 14.0874 16.0248 13.1332 16.0248 12C16.0248 11.5168 15.9374 11.0544 15.7626 10.6128C15.5874 10.1708 15.3416 9.76662 15.0252 9.40022C15.1416 9.05022 15.229 8.78342 15.2874 8.59982C15.3458 8.41662 15.4584 8.08342 15.6252 7.60022C16.2752 8.15022 16.7876 8.80442 17.1624 9.56282C17.5376 10.3208 17.7252 11.1332 17.7252 12C17.7252 13.6 17.171 14.95 16.0626 16.05C14.9542 17.15 13.6 17.7 12 17.7ZM12 0.150024C12.65 0.150024 13.2042 0.379224 13.6626 0.837624C14.121 1.29602 14.3502 1.85022 14.3502 2.50022C14.3502 3.06662 14.2792 3.63742 14.1372 4.21262C13.9956 4.78742 13.6832 5.83322 13.2 7.35002C13.1 7.63322 12.9458 7.86662 12.7374 8.05022C12.529 8.23342 12.2832 8.32502 12 8.32502C11.7168 8.32502 11.471 8.23342 11.2626 8.05022C11.0542 7.86662 10.9 7.63322 10.8 7.35002C10.3168 5.81682 10.0084 4.76682 9.8748 4.20002C9.7416 3.63322 9.675 3.06662 9.675 2.50022C9.675 1.85022 9.9 1.29602 10.35 0.837624C10.8 0.379224 11.35 0.150024 12 0.150024ZM12 13.8252C11.4832 13.8252 11.0498 13.6502 10.6998 13.3002C10.3498 12.9502 10.1748 12.5168 10.1748 12C10.1748 11.4832 10.3498 11.0456 10.6998 10.6872C11.0498 10.3292 11.4832 10.1502 12 10.1502C12.5168 10.1502 12.9544 10.3292 13.3128 10.6872C13.6708 11.0456 13.8498 11.4832 13.8498 12C13.8498 12.5168 13.6708 12.9502 13.3128 13.3002C12.9544 13.6502 12.5168 13.8252 12 13.8252Z" fill="#1C1B1F"/>
</g>
</svg>
