<svg width="24" height="24" viewBox="0 0 24 24" fill="none" xmlns="http://www.w3.org/2000/svg">
<mask id="mask0_4302_8314" style="mask-type:alpha" maskUnits="userSpaceOnUse" x="0" y="0" width="24" height="24">
<rect width="24" height="24" fill="#D9D9D9"/>
</mask>
<g mask="url(#mask0_4302_8314)">
<path d="M10.6499 21.6C9.8331 21.6 9.2123 21.3584 8.7875 20.8752C8.3623 20.3916 8.1497 19.8332 8.1497 19.2C8.1497 18.8 8.2415 18.4 8.4251 18C8.6083 17.6 8.8999 17.2666 9.2999 16.9998C9.5999 16.7834 9.8623 16.5002 10.0871 16.1502C10.3123 15.8002 10.4915 15.3502 10.6247 14.8002C10.5747 14.7834 10.5247 14.7624 10.4747 14.7372C10.4247 14.7124 10.3747 14.675 10.3247 14.625L7.8251 15.525C7.5415 15.6082 7.2707 15.6832 7.0127 15.75C6.7543 15.8168 6.4917 15.8502 6.2249 15.8502C5.2081 15.8502 4.3165 15.4084 3.5501 14.5248C2.7833 13.6416 2.3999 12.35 2.3999 10.65C2.3999 9.83316 2.6375 9.21236 3.1127 8.78756C3.5875 8.36236 4.1415 8.14976 4.7747 8.14976C5.1915 8.14976 5.5999 8.23736 5.9999 8.41256C6.3999 8.58736 6.7333 8.87476 7.0001 9.27476C7.2001 9.59156 7.4875 9.87076 7.8623 10.1124C8.2375 10.354 8.6917 10.5166 9.2249 10.6002C9.2417 10.5666 9.2625 10.5208 9.2873 10.4628C9.3125 10.4044 9.3417 10.3584 9.3749 10.3248L8.5001 7.82516C8.4001 7.55836 8.3167 7.29576 8.2499 7.03736C8.1831 6.77896 8.1497 6.52476 8.1497 6.27476C8.1497 5.15836 8.6205 4.22936 9.5621 3.48776C10.5041 2.74576 11.7667 2.37476 13.3499 2.37476C14.1499 2.37476 14.7623 2.62076 15.1871 3.11276C15.6123 3.60436 15.8333 4.15016 15.8501 4.75016C15.8501 5.15016 15.7583 5.55836 15.5747 5.97476C15.3915 6.39156 15.1083 6.72496 14.7251 6.97496C14.3583 7.20816 14.0665 7.52476 13.8497 7.92476C13.6333 8.32476 13.4833 8.74976 13.3997 9.19976C13.4497 9.24976 13.4997 9.28316 13.5497 9.29996C13.5997 9.31676 13.6415 9.35016 13.6751 9.40016L16.1747 8.44976C16.4415 8.36656 16.7041 8.29576 16.9625 8.23736C17.2209 8.17896 17.4833 8.14976 17.7497 8.14976C19.0497 8.14976 20.0207 8.68316 20.6627 9.74996C21.3043 10.8168 21.6251 12.0168 21.6251 13.35C21.6251 14.1668 21.3667 14.7876 20.8499 15.2124C20.3331 15.6376 19.7665 15.8502 19.1501 15.8502C18.7333 15.8502 18.3375 15.7584 17.9627 15.5748C17.5875 15.3916 17.2749 15.1 17.0249 14.7C16.8081 14.4 16.5207 14.1334 16.1627 13.9002C15.8043 13.6666 15.3501 13.4832 14.8001 13.35C14.7665 13.4168 14.7373 13.4792 14.7125 13.5372C14.6873 13.5956 14.6497 13.6416 14.5997 13.6752L15.5249 16.1748C15.6081 16.4416 15.6831 16.6916 15.7499 16.9248C15.8167 17.1584 15.8501 17.4002 15.8501 17.6502C15.8501 18.6666 15.4083 19.579 14.5247 20.3874C13.6415 21.1958 12.3499 21.6 10.6499 21.6ZM11.9999 13.425C12.3999 13.425 12.7415 13.2876 13.0247 13.0128C13.3083 12.7376 13.4501 12.4 13.4501 12C13.4501 11.6 13.3043 11.2584 13.0127 10.9752C12.7207 10.6916 12.3831 10.5498 11.9999 10.5498C11.5999 10.5498 11.2623 10.6956 10.9871 10.9872C10.7123 11.2792 10.5749 11.6168 10.5749 12C10.5749 12.4 10.7123 12.7376 10.9871 13.0128C11.2623 13.2876 11.5999 13.425 11.9999 13.425ZM10.7501 9.17516C10.9165 9.07516 11.0789 9.00836 11.2373 8.97476C11.3957 8.94156 11.5499 8.91656 11.6999 8.89976C11.8667 8.19976 12.1209 7.55396 12.4625 6.96236C12.8041 6.37076 13.2499 5.89996 13.7999 5.54996C13.9167 5.48316 14.0083 5.38316 14.0747 5.24996C14.1415 5.11676 14.1749 4.96676 14.1749 4.79996C14.1749 4.61676 14.1083 4.44596 13.9751 4.28756C13.8415 4.12916 13.6331 4.04996 13.3499 4.04996C12.6999 4.04996 11.9583 4.20836 11.1251 4.52516C10.2915 4.84156 9.8665 5.41656 9.8501 6.25016C9.8501 6.41656 9.8667 6.57476 9.8999 6.72476C9.9331 6.87476 9.9747 6.99976 10.0247 7.09976L10.7501 9.17516ZM6.2249 14.1498C6.3917 14.1498 6.6833 14.0916 7.0997 13.9752L9.1751 13.2498C9.0915 13.0998 9.0247 12.9456 8.9747 12.7872C8.9247 12.6292 8.9081 12.4668 8.9249 12.3C8.2081 12.1332 7.5539 11.879 6.9623 11.5374C6.3707 11.1958 5.9083 10.75 5.5751 10.2C5.4915 10.0832 5.3789 9.99156 5.2373 9.92516C5.0957 9.85836 4.9583 9.82496 4.8251 9.82496C4.5915 9.82496 4.4081 9.89156 4.2749 10.0248C4.1417 10.1584 4.0751 10.3668 4.0751 10.65C4.0751 11.5832 4.2583 12.3998 4.6247 13.0998C4.9915 13.7998 5.5249 14.1498 6.2249 14.1498ZM10.6499 19.9248C11.5499 19.9248 12.3541 19.7416 13.0625 19.3752C13.7709 19.0084 14.1417 18.4584 14.1749 17.7252C14.1749 17.5752 14.1499 17.4292 14.0999 17.2872C14.0499 17.1456 14.0165 17.0082 13.9997 16.875L13.2497 14.8248C13.0833 14.9084 12.9209 14.9752 12.7625 15.0252C12.6041 15.0752 12.4499 15.0918 12.2999 15.075C12.1331 15.7918 11.8789 16.446 11.5373 17.0376C11.1957 17.6292 10.7583 18.0916 10.2251 18.4248C10.1083 18.5084 10.0165 18.6252 9.9497 18.7752C9.8833 18.9252 9.8501 19.0668 9.8501 19.2C9.8501 19.4168 9.9209 19.5918 10.0625 19.725C10.2041 19.8582 10.3999 19.9248 10.6499 19.9248ZM19.1501 14.1498C19.3665 14.1498 19.5539 14.0956 19.7123 13.9872C19.8707 13.8792 19.9499 13.6668 19.9499 13.35C19.9499 12.6832 19.7957 11.9416 19.4873 11.1252C19.1789 10.3084 18.5915 9.87496 17.7251 9.82496C17.5583 9.82496 17.4083 9.84156 17.2751 9.87476C17.1415 9.90836 17.0247 9.95016 16.9247 10.0002L14.8247 10.7502C14.8915 10.8666 14.9541 11.0166 15.0125 11.2002C15.0709 11.3834 15.1001 11.55 15.1001 11.7C15.8001 11.85 16.4459 12.1 17.0375 12.45C17.6291 12.8 18.0999 13.2416 18.4499 13.7748C18.5167 13.8916 18.6167 13.9834 18.7499 14.0502C18.8831 14.1166 19.0165 14.1498 19.1501 14.1498Z" fill="#1C1B1F"/>
</g>
</svg>
