<svg width="24" height="24" viewBox="0 0 24 24" fill="none" xmlns="http://www.w3.org/2000/svg">
<mask id="mask0_3041_12250" style="mask-type:alpha" maskUnits="userSpaceOnUse" x="0" y="0" width="24" height="24">
<rect width="24" height="24" fill="#D9D9D9"/>
</mask>
<g mask="url(#mask0_3041_12250)">
<path d="M15.5999 10.7748C15.9999 10.7748 16.3333 10.6456 16.6001 10.3872C16.8665 10.1292 16.9997 9.80022 16.9997 9.40022C16.9997 8.98342 16.8707 8.64162 16.6127 8.37482C16.3543 8.10842 16.0251 7.97522 15.6251 7.97522C15.2083 7.97522 14.8665 8.10842 14.5997 8.37482C14.3333 8.64162 14.2001 8.97502 14.2001 9.37502C14.2001 9.77502 14.3333 10.1084 14.5997 10.3752C14.8665 10.6416 15.1999 10.7748 15.5999 10.7748ZM8.3747 10.7748C8.7915 10.7748 9.1333 10.6456 9.4001 10.3872C9.6665 10.1292 9.7997 9.80022 9.7997 9.40022C9.7997 8.98342 9.6665 8.64162 9.4001 8.37482C9.1333 8.10842 8.7999 7.97522 8.3999 7.97522C7.9999 7.97522 7.6665 8.10842 7.3997 8.37482C7.1333 8.64162 7.0001 8.97502 7.0001 9.37502C7.0001 9.77502 7.1291 10.1084 7.3871 10.3752C7.6455 10.6416 7.9747 10.7748 8.3747 10.7748ZM11.9999 17.5248C12.9667 17.5248 13.8543 17.304 14.6627 16.8624C15.4707 16.4208 16.1165 15.8166 16.6001 15.0498C16.7333 14.8334 16.7415 14.6252 16.6247 14.4252C16.5083 14.2252 16.3333 14.1252 16.0997 14.1252C15.9165 14.1252 15.7749 14.1584 15.6749 14.2248C15.5749 14.2916 15.4749 14.3834 15.3749 14.5002C14.9917 15.0334 14.5125 15.45 13.9373 15.75C13.3625 16.05 12.7167 16.2 11.9999 16.2C11.2999 16.2 10.6583 16.05 10.0751 15.75C9.4915 15.45 9.0081 15.0416 8.6249 14.5248C8.5417 14.3916 8.4501 14.2916 8.3501 14.2248C8.2501 14.1584 8.1167 14.1252 7.9499 14.1252C7.6999 14.1252 7.5165 14.2334 7.3997 14.4498C7.2833 14.6666 7.3167 14.9166 7.4999 15.1998C7.9499 15.8834 8.5707 16.4418 9.3623 16.875C10.1539 17.3082 11.0331 17.5248 11.9999 17.5248ZM11.9999 22.0248C10.6167 22.0248 9.3167 21.7624 8.0999 21.2376C6.8831 20.7124 5.8207 19.9956 4.9127 19.0872C4.0043 18.1792 3.2875 17.1168 2.7623 15.9C2.2375 14.6832 1.9751 13.3832 1.9751 12C1.9751 10.6168 2.2375 9.31262 2.7623 8.08742C3.2875 6.86262 4.0043 5.79602 4.9127 4.88762C5.8207 3.97922 6.8831 3.26662 8.0999 2.74982C9.3167 2.23342 10.6167 1.97522 11.9999 1.97522C13.3831 1.97522 14.6873 2.23342 15.9125 2.74982C17.1373 3.26662 18.2039 3.97922 19.1123 4.88762C20.0207 5.79602 20.7333 6.86262 21.2501 8.08742C21.7665 9.31262 22.0247 10.6168 22.0247 12C22.0247 13.4 21.7665 14.7042 21.2501 15.9126C20.7333 17.121 20.0207 18.1752 19.1123 19.0752C18.2039 19.9752 17.1373 20.6918 15.9125 21.225C14.6873 21.7582 13.3831 22.0248 11.9999 22.0248ZM11.9999 20.3502C14.3167 20.3502 16.2875 19.5376 17.9123 17.9124C19.5375 16.2876 20.3501 14.3168 20.3501 12C20.3501 9.68322 19.5375 7.71242 17.9123 6.08762C16.2875 4.46242 14.3167 3.64982 11.9999 3.64982C9.6831 3.64982 7.7123 4.46242 6.0875 6.08762C4.4623 7.71242 3.6497 9.68322 3.6497 12C3.6497 14.3168 4.4623 16.2876 6.0875 17.9124C7.7123 19.5376 9.6831 20.3502 11.9999 20.3502Z" fill="#1C1B1F"/>
</g>
</svg>
