<svg width="24" height="24" viewBox="0 0 24 24" fill="none" xmlns="http://www.w3.org/2000/svg">
<mask id="mask0_3041_12256" style="mask-type:alpha" maskUnits="userSpaceOnUse" x="0" y="0" width="24" height="24">
<rect width="24" height="24" fill="#D9D9D9"/>
</mask>
<g mask="url(#mask0_3041_12256)">
<path d="M15.5999 10.7748C15.9999 10.7748 16.3333 10.6456 16.6001 10.3872C16.8665 10.1292 16.9997 9.79182 16.9997 9.37502C16.9997 8.97502 16.8707 8.64162 16.6127 8.37482C16.3543 8.10842 16.0251 7.97522 15.6251 7.97522C15.2083 7.97522 14.8665 8.10842 14.5997 8.37482C14.3333 8.64162 14.2001 8.97502 14.2001 9.37502C14.2001 9.77502 14.3333 10.1084 14.5997 10.3752C14.8665 10.6416 15.1999 10.7748 15.5999 10.7748ZM8.3747 10.7748C8.7915 10.7748 9.1333 10.6456 9.4001 10.3872C9.6665 10.1292 9.7997 9.79182 9.7997 9.37502C9.7997 8.97502 9.6665 8.64162 9.4001 8.37482C9.1333 8.10842 8.7999 7.97522 8.3999 7.97522C7.9999 7.97522 7.6665 8.10842 7.3997 8.37482C7.1333 8.64162 7.0001 8.97502 7.0001 9.37502C7.0001 9.77502 7.1291 10.1084 7.3871 10.3752C7.6455 10.6416 7.9747 10.7748 8.3747 10.7748ZM9.5747 15.525H14.4497C14.6333 15.525 14.7875 15.4624 14.9123 15.3372C15.0375 15.2124 15.1001 15.05 15.1001 14.85C15.1001 14.6668 15.0417 14.5126 14.9249 14.3874C14.8081 14.2626 14.6497 14.2002 14.4497 14.2002H9.5501C9.3665 14.2002 9.2123 14.2584 9.0875 14.3748C8.9623 14.4916 8.8997 14.65 8.8997 14.85C8.8997 15.05 8.9623 15.2124 9.0875 15.3372C9.2123 15.4624 9.3747 15.525 9.5747 15.525ZM11.9999 22.0248C10.6167 22.0248 9.3167 21.7624 8.0999 21.2376C6.8831 20.7124 5.8207 19.9956 4.9127 19.0872C4.0043 18.1792 3.2875 17.1168 2.7623 15.9C2.2375 14.6832 1.9751 13.3832 1.9751 12C1.9751 10.6168 2.2375 9.31262 2.7623 8.08742C3.2875 6.86262 4.0043 5.79602 4.9127 4.88762C5.8207 3.97922 6.8831 3.26662 8.0999 2.74982C9.3167 2.23342 10.6167 1.97522 11.9999 1.97522C13.3831 1.97522 14.6873 2.23342 15.9125 2.74982C17.1373 3.26662 18.2039 3.97922 19.1123 4.88762C20.0207 5.79602 20.7333 6.86262 21.2501 8.08742C21.7665 9.31262 22.0247 10.6168 22.0247 12C22.0247 13.4 21.7665 14.7042 21.2501 15.9126C20.7333 17.121 20.0207 18.1752 19.1123 19.0752C18.2039 19.9752 17.1373 20.6918 15.9125 21.225C14.6873 21.7582 13.3831 22.0248 11.9999 22.0248ZM11.9999 20.3502C14.3167 20.3502 16.2875 19.5376 17.9123 17.9124C19.5375 16.2876 20.3501 14.3168 20.3501 12C20.3501 9.68322 19.5375 7.71242 17.9123 6.08762C16.2875 4.46242 14.3167 3.64982 11.9999 3.64982C9.6831 3.64982 7.7123 4.46242 6.0875 6.08762C4.4623 7.71242 3.6497 9.68322 3.6497 12C3.6497 14.3168 4.4623 16.2876 6.0875 17.9124C7.7123 19.5376 9.6831 20.3502 11.9999 20.3502Z" fill="#1C1B1F"/>
</g>
</svg>
