<svg width="128" height="128" viewBox="0 0 128 128" fill="none" xmlns="http://www.w3.org/2000/svg">
<mask id="mask0_4273_8525" style="mask-type:alpha" maskUnits="userSpaceOnUse" x="0" y="0" width="128" height="128">
<rect width="128" height="128" fill="#D9D9D9"/>
</mask>
<g mask="url(#mask0_4273_8525)">
<path d="M63.9996 69.334C62.7559 69.334 61.7116 68.8892 60.8668 67.9996C60.022 67.11 59.5996 66.0433 59.5996 64.7996V19.734C59.5996 18.5777 60.022 17.5548 60.8668 16.6652C61.7116 15.7777 62.7559 15.334 63.9996 15.334C65.2434 15.334 66.31 15.7777 67.1996 16.6652C68.0892 17.5548 68.534 18.5777 68.534 19.734V64.7996C68.534 66.0433 68.0892 67.11 67.1996 67.9996C66.31 68.8892 65.2434 69.334 63.9996 69.334ZM63.9996 112.134C57.333 112.134 51.0887 110.867 45.2668 108.332C39.445 105.8 34.3559 102.356 29.9996 97.9996C25.6434 93.6433 22.1991 88.5319 19.6668 82.6652C17.1324 76.7985 15.8652 70.5767 15.8652 63.9996C15.8652 57.7767 17.0215 51.8215 19.334 46.134C21.6444 40.4444 24.9778 35.3329 29.334 30.7996C30.2215 29.8225 31.3319 29.2892 32.6652 29.1996C33.9986 29.11 35.1548 29.51 36.134 30.3996C36.8444 31.1996 37.1996 32.1553 37.1996 33.2668C37.1996 34.3783 36.8444 35.4225 36.134 36.3996C32.4007 40.1329 29.5783 44.3772 27.6668 49.1324C25.7554 53.8876 24.7996 58.8433 24.7996 63.9996C24.7996 74.8433 28.6215 84.0657 36.2652 91.6668C43.9111 99.2657 53.1559 103.065 63.9996 103.065C74.8434 103.065 84.0882 99.2657 91.734 91.6668C99.3778 84.0657 103.2 74.8433 103.2 63.9996C103.2 58.7559 102.222 53.7564 100.265 49.0012C98.3111 44.2439 95.4674 39.9548 91.734 36.134C91.0215 35.2444 90.6876 34.2439 90.7324 33.1324C90.7772 32.0209 91.1996 31.11 91.9996 30.3996C92.9767 29.4225 94.1319 29.0449 95.4652 29.2668C96.7986 29.4887 98.0434 30.1329 99.1996 31.1996C103.466 35.6433 106.689 40.6876 108.867 46.3324C111.045 51.9772 112.134 57.8663 112.134 63.9996C112.134 70.5767 110.867 76.7985 108.332 82.6652C105.8 88.5319 102.356 93.6433 97.9996 97.9996C93.6434 102.356 88.5543 105.8 82.7324 108.332C76.9106 110.867 70.6663 112.134 63.9996 112.134Z" fill="#827C7B"/>
</g>
</svg>
