<svg width="24" height="24" viewBox="0 0 24 24" fill="none" xmlns="http://www.w3.org/2000/svg">
<mask id="mask0_4302_8285" style="mask-type:alpha" maskUnits="userSpaceOnUse" x="0" y="0" width="24" height="24">
<rect width="24" height="24" fill="#D9D9D9"/>
</mask>
<g mask="url(#mask0_4302_8285)">
<path fill-rule="evenodd" clip-rule="evenodd" d="M20 5C20 3.89543 19.1046 3 18 3H7C4.23858 3 2 5.23858 2 8V12C2 14.7614 4.23858 17 7 17H8.87695L7.91694 19.4H7.8C7.35817 19.4 7 19.7582 7 20.2C7 20.6419 7.35817 21 7.8 21H16.2C16.6418 21 17 20.6419 17 20.2C17 19.7582 16.6418 19.4 16.2 19.4H16.0831L15.123 17H18C19.1046 17 20 16.1046 20 15V5ZM8.9747 4.6H18C18.2209 4.6 18.4 4.77909 18.4 5V6.99998H8.9999V4.8C8.9999 4.73094 8.99115 4.66392 8.9747 4.6ZM18.4 11.4V8.59998H8.9999V11.4H18.4ZM8.9999 13H18.4V15C18.4 15.2209 18.2209 15.4 18 15.4H8.9747C8.99115 15.3361 8.9999 15.2691 8.9999 15.2V13ZM7.42511 4.6H7C5.12223 4.6 3.6 6.12223 3.6 8V12C3.6 13.8778 5.12223 15.4 7 15.4H7.42511C7.40865 15.3361 7.3999 15.2691 7.3999 15.2V4.8C7.3999 4.73094 7.40865 4.66392 7.42511 4.6ZM14.3598 19.4L13.3998 17H10.6002L9.6402 19.4H14.3598Z" fill="#1C1B1F"/>
<path d="M21.1999 14C20.7581 14 20.3999 13.6418 20.3999 13.2V6.8C20.3999 6.35817 20.7581 6 21.1999 6C21.6417 6 21.9999 6.35817 21.9999 6.8V13.2C21.9999 13.6418 21.6417 14 21.1999 14Z" fill="#1C1B1F"/>
</g>
</svg>
