<svg width="24" height="24" viewBox="0 0 24 24" fill="none" xmlns="http://www.w3.org/2000/svg">
<mask id="mask0_4300_8232" style="mask-type:alpha" maskUnits="userSpaceOnUse" x="0" y="0" width="24" height="24">
<rect width="24" height="24" fill="#D9D9D9"/>
</mask>
<g mask="url(#mask0_4300_8232)">
<path fill-rule="evenodd" clip-rule="evenodd" d="M5 4.6H5.3999V17.4H5C4.2268 17.4 3.6 16.7732 3.6 16V6C3.6 5.2268 4.2268 4.6 5 4.6ZM6.9999 7.99998V6.59998H14.0001V7.99998H6.9999ZM6.9999 14V15.4H14.0001V14H6.9999ZM6.9999 12.4H14.0001V9.59998H6.9999V12.4ZM6.9999 17.4V17H14.0001V17.4H6.9999ZM14.0001 4.99998H6.9999V4.6H14.0001V4.99998ZM15.6001 17.4L15.6001 4.6H16C16.7732 4.6 17.4 5.2268 17.4 6V16C17.4 16.7732 16.7732 17.4 16 17.4H15.6001ZM14.8001 19H6.1999H5C3.34315 19 2 17.6569 2 16V6C2 4.34315 3.34315 3 5 3H6.1999H14.8001H16C17.6569 3 19 4.34315 19 6V10.2001H20.9997C21.4415 10.2001 21.7997 10.5582 21.7997 11.0001C21.7997 11.4419 21.4415 11.8001 20.9997 11.8001H19V16C19 17.6569 17.6569 19 16 19H14.8001ZM2.8 19.4C2.35817 19.4 2 19.7582 2 20.2C2 20.6419 2.35817 21 2.8 21H7.2C7.64183 21 8 20.6419 8 20.2C8 19.7582 7.64183 19.4 7.2 19.4H2.8ZM14 20.2C14 19.7582 14.3582 19.4 14.8 19.4H19.2C19.6418 19.4 20 19.7582 20 20.2C20 20.6419 19.6418 21 19.2 21H14.8C14.3582 21 14 20.6419 14 20.2Z" fill="#1C1B1F"/>
</g>
</svg>
