<svg width="24" height="24" viewBox="0 0 24 24" fill="none" xmlns="http://www.w3.org/2000/svg">
<mask id="mask0_3053_37176" style="mask-type:alpha" maskUnits="userSpaceOnUse" x="0" y="0" width="24" height="24">
<rect width="24" height="24" fill="#D9D9D9"/>
</mask>
<g mask="url(#mask0_3053_37176)">
<path d="M7.17481 21.0746C6.97481 21.2078 6.77481 21.2036 6.57481 21.062C6.37481 20.9204 6.30821 20.7412 6.37501 20.5244L8.20021 14.5496L3.42481 11.0996C3.22481 10.9664 3.15821 10.783 3.22501 10.5494C3.29181 10.3162 3.45841 10.1996 3.72481 10.1996H9.62521L11.5248 3.9248C11.5584 3.808 11.6168 3.7162 11.7 3.6494C11.7832 3.583 11.8832 3.5498 12 3.5498C12.1168 3.5498 12.2168 3.583 12.3 3.6494C12.3832 3.7162 12.4416 3.808 12.4752 3.9248L14.3748 10.1996H20.2998C20.5498 10.1996 20.7082 10.3162 20.775 10.5494C20.8418 10.783 20.7834 10.9664 20.5998 11.0996L15.7998 14.5496L17.625 20.5244C17.6918 20.7412 17.6252 20.9204 17.4252 21.062C17.2252 21.2036 17.0334 21.2078 16.8498 21.0746L12 17.3744L7.17481 21.0746Z" fill="#F3F2F0"/>
</g>
</svg>
