<svg width="24" height="24" viewBox="0 0 24 24" fill="none" xmlns="http://www.w3.org/2000/svg">
<mask id="mask0_3041_12235" style="mask-type:alpha" maskUnits="userSpaceOnUse" x="0" y="0" width="24" height="24">
<rect width="24" height="24" fill="#D9D9D9"/>
</mask>
<g mask="url(#mask0_3041_12235)">
<path d="M7.1747 10.3248C7.3083 10.4748 7.4625 10.5456 7.6373 10.5372C7.8125 10.5292 7.9667 10.4584 8.0999 10.3248L8.7497 9.70022L9.3749 10.3248C9.4917 10.4416 9.6501 10.5042 9.8501 10.5126C10.0501 10.521 10.2167 10.4502 10.3499 10.3002C10.4667 10.1666 10.5291 10.0124 10.5371 9.83762C10.5455 9.66242 10.4831 9.49982 10.3499 9.34982L9.4499 8.44982C9.3499 8.34982 9.2375 8.27482 9.1127 8.22482C8.9875 8.17482 8.8665 8.14982 8.7497 8.14982C8.6333 8.14982 8.5125 8.17482 8.3873 8.22482C8.2625 8.27482 8.1583 8.34982 8.0747 8.44982L7.1501 9.34982C7.0165 9.48342 6.9497 9.64182 6.9497 9.82502C6.9497 10.0082 7.0247 10.1748 7.1747 10.3248ZM13.6997 10.3002C13.8165 10.4334 13.9665 10.5042 14.1497 10.5126C14.3333 10.521 14.4917 10.4584 14.6249 10.3248L15.2501 9.70022L15.9251 10.3248C16.0415 10.4584 16.1955 10.5252 16.3871 10.5252C16.5791 10.5252 16.7417 10.4502 16.8749 10.3002C16.9917 10.1666 17.0501 10.0124 17.0501 9.83762C17.0501 9.66242 16.9917 9.49982 16.8749 9.34982L15.9749 8.44982C15.8581 8.34982 15.7415 8.27482 15.6251 8.22482C15.5083 8.17482 15.3833 8.14982 15.2501 8.14982C15.1333 8.14982 15.0123 8.17482 14.8871 8.22482C14.7623 8.27482 14.6583 8.34982 14.5751 8.44982L13.6751 9.34982C13.5583 9.48342 13.4999 9.64182 13.4999 9.82502C13.4999 10.0082 13.5665 10.1666 13.6997 10.3002ZM11.9999 22.0248C10.6167 22.0248 9.3167 21.7624 8.0999 21.2376C6.8831 20.7124 5.8207 19.9956 4.9127 19.0872C4.0043 18.1792 3.2875 17.1168 2.7623 15.9C2.2375 14.6832 1.9751 13.3832 1.9751 12C1.9751 10.6168 2.2375 9.31262 2.7623 8.08742C3.2875 6.86262 4.0043 5.79602 4.9127 4.88762C5.8207 3.97922 6.8831 3.26662 8.0999 2.74982C9.3167 2.23342 10.6167 1.97522 11.9999 1.97522C13.3831 1.97522 14.6873 2.23342 15.9125 2.74982C17.1373 3.26662 18.2039 3.97922 19.1123 4.88762C20.0207 5.79602 20.7333 6.86262 21.2501 8.08742C21.7665 9.31262 22.0247 10.6168 22.0247 12C22.0247 13.4 21.7665 14.7042 21.2501 15.9126C20.7333 17.121 20.0207 18.1752 19.1123 19.0752C18.2039 19.9752 17.1373 20.6918 15.9125 21.225C14.6873 21.7582 13.3831 22.0248 11.9999 22.0248ZM11.9999 20.3502C14.3167 20.3502 16.2875 19.5376 17.9123 17.9124C19.5375 16.2876 20.3501 14.3168 20.3501 12C20.3501 9.68322 19.5375 7.71242 17.9123 6.08762C16.2875 4.46242 14.3167 3.64982 11.9999 3.64982C9.6831 3.64982 7.7123 4.46242 6.0875 6.08762C4.4623 7.71242 3.6497 9.68322 3.6497 12C3.6497 14.3168 4.4623 16.2876 6.0875 17.9124C7.7123 19.5376 9.6831 20.3502 11.9999 20.3502ZM11.9999 17.5248C12.8999 17.5248 13.7457 17.3248 14.5373 16.9248C15.3289 16.5248 15.9831 15.9582 16.4999 15.225C16.6999 14.9418 16.7249 14.6876 16.5749 14.4624C16.4249 14.2376 16.1749 14.1252 15.8249 14.1252H8.1749C7.8249 14.1252 7.5749 14.2376 7.4249 14.4624C7.2749 14.6876 7.2999 14.9418 7.4999 15.225C8.0331 15.9582 8.6915 16.5248 9.4751 16.9248C10.2583 17.3248 11.0999 17.5248 11.9999 17.5248Z" fill="#1C1B1F"/>
</g>
</svg>
