<svg width="20" height="20" viewBox="0 0 20 20" fill="none" xmlns="http://www.w3.org/2000/svg">
<path d="M10.0252 15.0251C10.2584 15.0251 10.4542 14.9417 10.6126 14.7749C10.771 14.6085 10.8502 14.4085 10.8502 14.1749V10.8251H14.1748C14.4084 10.8251 14.6084 10.7417 14.7748 10.5749C14.9416 10.4085 15.025 10.2085 15.025 9.97485C15.025 9.74165 14.9416 9.54585 14.7748 9.38745C14.6084 9.22905 14.4084 9.14985 14.1748 9.14985H10.8502V5.82525C10.8502 5.59165 10.771 5.39165 10.6126 5.22525C10.4542 5.05845 10.2584 4.97505 10.0252 4.97505C9.79159 4.97505 9.59159 5.05845 9.42519 5.22525C9.25839 5.39165 9.17499 5.59165 9.17499 5.82525V9.14985H5.82519C5.59159 9.14985 5.39159 9.22905 5.22519 9.38745C5.05839 9.54585 4.97499 9.74165 4.97499 9.97485C4.97499 10.2085 5.05839 10.4085 5.22519 10.5749C5.39159 10.7417 5.59159 10.8251 5.82519 10.8251H9.17499V14.1749C9.17499 14.4085 9.25839 14.6085 9.42519 14.7749C9.59159 14.9417 9.79159 15.0251 10.0252 15.0251ZM2.97519 19.0253C2.42519 19.0253 1.95439 18.8293 1.56279 18.4373C1.17079 18.0457 0.974792 17.5749 0.974792 17.0249V2.97525C0.974792 2.42525 1.17079 1.95445 1.56279 1.56285C1.95439 1.17085 2.42519 0.974854 2.97519 0.974854H17.0248C17.5748 0.974854 18.0456 1.17085 18.4372 1.56285C18.8292 1.95445 19.0252 2.42525 19.0252 2.97525V17.0249C19.0252 17.5749 18.8292 18.0457 18.4372 18.4373C18.0456 18.8293 17.5748 19.0253 17.0248 19.0253H2.97519ZM2.97519 17.3501H17.0248C17.1248 17.3501 17.204 17.3209 17.2624 17.2625C17.3208 17.2041 17.35 17.1249 17.35 17.0249V2.97525C17.35 2.87525 17.3208 2.79605 17.2624 2.73765C17.204 2.67925 17.1248 2.65005 17.0248 2.65005H2.97519C2.87519 2.65005 2.79599 2.67925 2.73759 2.73765C2.67919 2.79605 2.64999 2.87525 2.64999 2.97525V17.0249C2.64999 17.1249 2.67919 17.2041 2.73759 17.2625C2.79599 17.3209 2.87519 17.3501 2.97519 17.3501Z" fill="white"/>
</svg>
