<svg width="28" height="24" viewBox="0 0 28 24" fill="none" xmlns="http://www.w3.org/2000/svg">
<path d="M13.3001 23.7332C12.4334 23.7332 11.6779 23.5166 11.0334 23.0832C10.389 22.6499 9.94452 22.0666 9.70008 21.3332C9.5223 21.0221 9.53341 20.7443 9.73341 20.4999C9.93341 20.2555 10.2334 20.1332 10.6334 20.1332C10.8112 20.1332 10.9834 20.1943 11.1501 20.3166C11.3167 20.4388 11.4445 20.5777 11.5334 20.7332C11.7334 21.0888 11.9834 21.3555 12.2834 21.5332C12.5834 21.711 12.9223 21.7999 13.3001 21.7999C13.8556 21.7999 14.3056 21.6277 14.6501 21.2832C14.9945 20.9388 15.1667 20.4777 15.1667 19.8999C15.1667 19.3443 14.9945 18.8943 14.6501 18.5499C14.3056 18.2055 13.8556 18.0332 13.3001 18.0332H1.66675C1.37786 18.0332 1.13897 17.9388 0.950081 17.7499C0.761193 17.561 0.666748 17.3221 0.666748 17.0332C0.666748 16.7666 0.761193 16.5388 0.950081 16.3499C1.13897 16.161 1.37786 16.0666 1.66675 16.0666H13.3001C14.4334 16.0666 15.3556 16.4221 16.0667 17.1332C16.7779 17.8443 17.1334 18.7666 17.1334 19.8999C17.1334 21.0555 16.7779 21.9832 16.0667 22.6832C15.3556 23.3832 14.4334 23.7332 13.3001 23.7332ZM1.66675 9.9999C1.37786 9.9999 1.13897 9.90546 0.950081 9.71657C0.761193 9.52768 0.666748 9.28879 0.666748 8.9999C0.666748 8.73323 0.761193 8.51101 0.950081 8.33323C1.13897 8.15546 1.37786 8.06657 1.66675 8.06657H18.7334C19.5112 8.06657 20.139 7.82212 20.6167 7.33324C21.0945 6.84435 21.3334 6.21101 21.3334 5.43324C21.3334 4.65546 21.0945 4.02768 20.6167 3.5499C20.139 3.07212 19.5112 2.83324 18.7334 2.83324C18.1112 2.83324 17.5945 2.98324 17.1834 3.28324C16.7723 3.58324 16.4779 3.96657 16.3001 4.43324C16.2112 4.63324 16.0779 4.7999 15.9001 4.93324C15.7223 5.06657 15.5112 5.13324 15.2667 5.13324C14.889 5.13324 14.6279 4.98324 14.4834 4.68324C14.339 4.38324 14.3445 4.06657 14.5001 3.73324C14.789 2.95546 15.3001 2.28879 16.0334 1.73324C16.7667 1.17768 17.6667 0.899902 18.7334 0.899902C20.0667 0.899902 21.1556 1.32212 22.0001 2.16657C22.8445 3.01101 23.2667 4.0999 23.2667 5.43324C23.2667 6.76657 22.8445 7.86101 22.0001 8.71657C21.1556 9.57212 20.0667 9.9999 18.7334 9.9999H1.66675ZM24.5001 20.6332C24.2112 20.7888 23.9279 20.7777 23.6501 20.5999C23.3723 20.4221 23.2334 20.1555 23.2334 19.7999C23.2334 19.5332 23.289 19.3332 23.4001 19.1999C23.5112 19.0666 23.6667 18.9555 23.8667 18.8666C24.3334 18.711 24.7056 18.4332 24.9834 18.0332C25.2612 17.6332 25.4001 17.1221 25.4001 16.4999C25.4001 15.6999 25.1779 15.0832 24.7334 14.6499C24.289 14.2166 23.6779 13.9999 22.9001 13.9999H1.66675C1.37786 13.9999 1.13897 13.911 0.950081 13.7332C0.761193 13.5555 0.666748 13.3221 0.666748 13.0332C0.666748 12.7666 0.761193 12.5388 0.950081 12.3499C1.13897 12.161 1.37786 12.0666 1.66675 12.0666H22.9001C24.2334 12.0666 25.3056 12.4721 26.1167 13.2832C26.9279 14.0943 27.3334 15.1666 27.3334 16.4999C27.3334 17.5666 27.0834 18.461 26.5834 19.1832C26.0834 19.9055 25.389 20.3888 24.5001 20.6332Z" fill="#01893D"/>
</svg>
