<svg width="24" height="22" viewBox="0 0 24 22" fill="none" xmlns="http://www.w3.org/2000/svg">
<path d="M2.06675 5.86665L0.666748 4.49998L2.93341 2.26665C3.51119 1.64443 4.16119 1.20554 4.88341 0.949984C5.60564 0.694428 6.36675 0.56665 7.16675 0.56665C7.96675 0.56665 8.74453 0.71665 9.50008 1.01665C10.2556 1.31665 10.889 1.73332 11.4001 2.26665L13.9001 4.76665C14.2556 5.12221 14.6945 5.39998 15.2167 5.59998C15.739 5.79998 16.2779 5.89998 16.8334 5.89998C17.3667 5.89998 17.8834 5.79998 18.3834 5.59998C18.8834 5.39998 19.3223 5.12221 19.7001 4.76665L21.9334 2.49998L23.3334 3.89998L21.1001 6.16665C20.5223 6.72221 19.8556 7.13887 19.1001 7.41665C18.3445 7.69443 17.5779 7.83332 16.8001 7.83332C16.0001 7.83332 15.2279 7.69443 14.4834 7.41665C13.739 7.13887 13.089 6.72221 12.5334 6.16665L10.0334 3.66665C9.65564 3.31109 9.21675 3.02776 8.71675 2.81665C8.21675 2.60554 7.70008 2.49998 7.16675 2.49998C6.65564 2.49998 6.15008 2.59998 5.65008 2.79998C5.15008 2.99998 4.71119 3.28887 4.33341 3.66665L2.06675 5.86665ZM2.06675 12.7L0.666748 11.3L2.93341 9.03332C3.51119 8.45554 4.16119 8.02776 4.88341 7.74998C5.60564 7.47221 6.36675 7.33332 7.16675 7.33332C7.94453 7.33332 8.71675 7.49443 9.48342 7.81665C10.2501 8.13887 10.889 8.54443 11.4001 9.03332L13.9001 11.5333C14.2556 11.9111 14.6945 12.1944 15.2167 12.3833C15.739 12.5722 16.2667 12.6666 16.8001 12.6666C17.3334 12.6666 17.8556 12.5722 18.3667 12.3833C18.8779 12.1944 19.3223 11.9111 19.7001 11.5333L21.9334 9.29998L23.3334 10.6666L21.1001 12.9333C20.5223 13.5333 19.8556 13.9667 19.1001 14.2333C18.3445 14.5 17.5779 14.6333 16.8001 14.6333C16.0001 14.6333 15.2334 14.4944 14.5001 14.2167C13.7667 13.9389 13.1112 13.5111 12.5334 12.9333L10.0334 10.4C9.65564 10.0444 9.21675 9.76665 8.71675 9.56665C8.21675 9.36665 7.70008 9.26665 7.16675 9.26665C6.63341 9.26665 6.1223 9.36109 5.63341 9.54998C5.14453 9.73887 4.71119 10.0222 4.33341 10.4L2.06675 12.7ZM2.06675 19.4333L0.666748 18.0666L2.93341 15.8333C3.51119 15.2111 4.16119 14.7611 4.88341 14.4833C5.60564 14.2055 6.36675 14.0666 7.16675 14.0666C7.96675 14.0666 8.74453 14.2278 9.50008 14.55C10.2556 14.8722 10.889 15.3 11.4001 15.8333L13.9001 18.3333C14.2556 18.6889 14.6945 18.9722 15.2167 19.1833C15.739 19.3944 16.2667 19.5 16.8001 19.5C17.3334 19.5 17.8556 19.3944 18.3667 19.1833C18.8779 18.9722 19.3223 18.6889 19.7001 18.3333L21.9334 16.0666L23.3334 17.4333L21.1001 19.7333C20.5223 20.3333 19.8556 20.7666 19.1001 21.0333C18.3445 21.3 17.5779 21.4333 16.8001 21.4333C16.0001 21.4333 15.2279 21.3 14.4834 21.0333C13.739 20.7666 13.089 20.3333 12.5334 19.7333L10.0334 17.2C9.65564 16.8222 9.21675 16.5278 8.71675 16.3166C8.21675 16.1055 7.70008 16 7.16675 16C6.63341 16 6.1223 16.1 5.63341 16.3C5.14453 16.5 4.71119 16.8 4.33341 17.2L2.06675 19.4333Z" fill="#01893D"/>
</svg>
