<svg width="20" height="19" viewBox="0 0 20 19" fill="none" xmlns="http://www.w3.org/2000/svg">
<path d="M17.9247 18.9748C15.8583 18.9748 13.8125 18.479 11.7873 17.4874C9.76253 16.4958 7.95013 15.2 6.35013 13.6C4.75013 12 3.45433 10.1876 2.46273 8.16285C1.47073 6.13765 0.974731 4.09165 0.974731 2.02485C0.974731 1.69165 1.07473 1.42505 1.27473 1.22505C1.47473 1.02505 1.74153 0.925049 2.07513 0.925049H5.69973C5.94973 0.925049 6.17893 1.01245 6.38733 1.18725C6.59573 1.36245 6.72493 1.57505 6.77493 1.82505L7.42473 5.09985C7.45833 5.34985 7.45013 5.57085 7.40013 5.76285C7.35013 5.95445 7.26673 6.10845 7.14993 6.22485L4.64973 8.67525C5.49973 10.0916 6.49153 11.3666 7.62513 12.5002C8.75833 13.6334 10.0083 14.5916 11.3751 15.3748L13.8747 12.85C14.0247 12.6832 14.1831 12.5708 14.3499 12.5128C14.5167 12.4544 14.6917 12.4502 14.8749 12.5002L18.0747 13.225C18.3415 13.275 18.5665 13.4042 18.7497 13.6126C18.9333 13.821 19.0251 14.0502 19.0251 14.3002V17.9002C19.0251 18.2334 18.9251 18.4958 18.7251 18.6875C18.5251 18.879 18.2583 18.9748 17.9247 18.9748ZM3.82473 7.10025L5.67513 5.35005C5.70833 5.31685 5.72913 5.27945 5.73753 5.23785C5.74593 5.19585 5.74173 5.14985 5.72493 5.09985L5.22513 2.77485C5.22513 2.72485 5.20833 2.68745 5.17473 2.66265C5.14153 2.63745 5.09153 2.62485 5.02473 2.62485H2.87493C2.84173 2.62485 2.81253 2.63745 2.78733 2.66265C2.76253 2.68745 2.75013 2.71665 2.75013 2.75025C2.75013 3.41665 2.84173 4.09985 3.02493 4.79985C3.20813 5.49985 3.47473 6.26665 3.82473 7.10025ZM17.1999 17.2498C17.2331 17.2666 17.2623 17.2584 17.2875 17.2253C17.3123 17.1916 17.3247 17.1582 17.3247 17.125V14.9002C17.3247 14.8502 17.3123 14.8084 17.2875 14.7748C17.2623 14.7416 17.2247 14.725 17.1747 14.725L14.9499 14.2498C14.9167 14.2334 14.8875 14.2292 14.8623 14.2372C14.8375 14.2456 14.8083 14.2666 14.7747 14.3002L12.9747 16.1752C13.6415 16.5084 14.3499 16.7584 15.0999 16.9252C15.8499 17.0917 16.5499 17.1999 17.1999 17.2498Z" fill="#01893D"/>
</svg>
