<svg width="21" height="14" viewBox="0 0 21 14" fill="none" xmlns="http://www.w3.org/2000/svg">
<path d="M1.05007 12.8753C0.866869 12.6917 0.775269 12.4791 0.775269 12.2375C0.775269 11.9959 0.866869 11.7835 1.05007 11.6003L7.27507 5.39987C7.45827 5.21667 7.68747 5.12507 7.96267 5.12507C8.23747 5.12507 8.47487 5.21667 8.67487 5.39987L12.0001 8.77487L18.7999 1.12487C18.9667 0.941665 19.1625 0.845865 19.3873 0.837465C19.6125 0.829065 19.8167 0.916665 19.9999 1.10027C20.1499 1.25027 20.2249 1.43347 20.2249 1.64987C20.2249 1.86667 20.1583 2.06667 20.0251 2.24987L12.7249 10.5251C12.5249 10.7419 12.2791 10.8545 11.9875 10.8629C11.6959 10.8709 11.4585 10.7749 11.2753 10.5749L7.95007 7.27487L2.32507 12.8753C2.14187 13.0585 1.92927 13.1501 1.68727 13.1501C1.44567 13.1501 1.23327 13.0585 1.05007 12.8753Z" fill="white"/>
</svg>
