<svg width="16" height="12" viewBox="0 0 16 12" fill="none" xmlns="http://www.w3.org/2000/svg">
<path d="M5.4998 11.5502C5.3666 11.5502 5.2416 11.5252 5.1248 11.4752C5.0084 11.4252 4.9084 11.3502 4.8248 11.2502L0.425005 6.85039C0.258205 6.70039 0.174805 6.50459 0.174805 6.26299C0.174805 6.02099 0.258205 5.81679 0.425005 5.65039C0.591805 5.48359 0.787605 5.40019 1.0124 5.40019C1.2376 5.40019 1.4418 5.48359 1.625 5.65039L5.4998 9.55039L14.4002 0.649991C14.5666 0.483591 14.7666 0.400391 15.0002 0.400391C15.2334 0.400391 15.4334 0.483591 15.6002 0.649991C15.7666 0.816791 15.8498 1.01679 15.8498 1.24999C15.8498 1.48359 15.7666 1.68359 15.6002 1.84999L6.2 11.2502C6.1 11.3502 5.9916 11.4252 5.8748 11.4752C5.7584 11.5252 5.6334 11.5502 5.4998 11.5502Z" fill="white"/>
</svg>
