<svg width="22" height="22" viewBox="0 0 22 22" fill="none" xmlns="http://www.w3.org/2000/svg">
<path d="M13.9748 15.2C14.1248 15.35 14.3166 15.425 14.5502 15.425C14.7834 15.425 14.9916 15.3334 15.1748 15.1502C15.3416 15.0002 15.425 14.8084 15.425 14.5748C15.425 14.3416 15.3416 14.1334 15.1748 13.9502L11.9 10.6502V6.57502C11.9 6.35822 11.8166 6.17082 11.6498 6.01282C11.4834 5.85442 11.2918 5.77522 11.075 5.77522C10.825 5.77522 10.6166 5.85842 10.4498 6.02482C10.2834 6.19162 10.2002 6.38342 10.2002 6.60022V10.9502C10.2002 11.1002 10.2252 11.2292 10.2752 11.3372C10.3252 11.4456 10.4002 11.5416 10.5002 11.6252L13.9748 15.2ZM11 21.0248C9.63322 21.0248 8.33742 20.7624 7.11262 20.2376C5.88742 19.7124 4.82082 18.9956 3.91282 18.0872C3.00442 17.1792 2.28762 16.1126 1.76242 14.8874C1.23762 13.6626 0.97522 12.3668 0.97522 11C0.97522 9.61682 1.23762 8.31682 1.76242 7.10002C2.28762 5.88322 3.00442 4.82082 3.91282 3.91282C4.82082 3.00442 5.88742 2.28762 7.11262 1.76242C8.33742 1.23762 9.63322 0.97522 11 0.97522C12.3832 0.97522 13.6832 1.23762 14.9 1.76242C16.1168 2.28762 17.1792 3.00442 18.0872 3.91282C18.9956 4.82082 19.7124 5.88322 20.2376 7.10002C20.7624 8.31682 21.0248 9.61682 21.0248 11C21.0248 12.3832 20.7624 13.6832 20.2376 14.9C19.7124 16.1168 18.9956 17.1792 18.0872 18.0872C17.1792 18.9956 16.1168 19.7124 14.9 20.2376C13.6832 20.7624 12.3832 21.0248 11 21.0248ZM11 19.3502C13.3 19.3502 15.2666 18.5376 16.8998 16.9124C18.5334 15.2876 19.3502 13.3168 19.3502 11C19.3502 8.70002 18.5334 6.73342 16.8998 5.10022C15.2666 3.46662 13.3 2.64982 11 2.64982C8.68322 2.64982 6.71242 3.46662 5.08762 5.10022C3.46242 6.73342 2.64982 8.70002 2.64982 11C2.64982 13.3168 3.46242 15.2876 5.08762 16.9124C6.71242 18.5376 8.68322 19.3502 11 19.3502Z" fill="#01893D"/>
</svg>
