<svg width="15" height="14" viewBox="0 0 15 14" fill="none" xmlns="http://www.w3.org/2000/svg">
<path d="M7.5254 8.1747L2.375 13.3251C2.1918 13.5083 1.9878 13.6041 1.763 13.6125C1.5378 13.6209 1.3418 13.5251 1.175 13.3251C0.975 13.1583 0.875 12.9623 0.875 12.7371C0.875 12.5123 0.975 12.3165 1.175 12.1497L6.35 6.9747L1.1504 1.7997C0.9668 1.6165 0.875 1.4165 0.875 1.1997C0.875 0.983298 0.9668 0.783298 1.1504 0.599698C1.3168 0.433298 1.5126 0.350098 1.7378 0.350098C1.9626 0.350098 2.1668 0.433298 2.3504 0.599698L7.5002 5.7501L12.6254 0.624898C12.8086 0.441698 13.0126 0.350098 13.2374 0.350098C13.4626 0.350098 13.6668 0.441698 13.85 0.624898C14.0336 0.808098 14.1254 1.0165 14.1254 1.2501C14.1254 1.4833 14.0336 1.6833 13.85 1.8501L8.7002 6.9999L13.85 12.1749C14.0168 12.3417 14.1044 12.5375 14.1128 12.7623C14.1212 12.9875 14.0336 13.1833 13.85 13.3497C13.6836 13.5333 13.492 13.6251 13.2752 13.6251C13.0584 13.6251 12.8668 13.5333 12.7004 13.3497L7.5254 8.1747Z" fill="white"/>
</svg>
