<svg width="30" height="22" viewBox="0 0 30 22" fill="none" xmlns="http://www.w3.org/2000/svg">
<path d="M7.43364 21.6663C5.43364 21.6663 3.73364 20.9775 2.33364 19.5999C0.933642 18.2223 0.233643 16.5335 0.233643 14.5335C0.233643 12.822 0.789109 11.2887 1.90004 9.9335C3.01098 8.57776 4.41098 7.76656 6.10004 7.4999C6.58911 5.41083 7.66698 3.6943 9.33364 2.3503C11.0003 1.00576 12.9003 0.333496 15.0336 0.333496C17.4555 0.333496 19.5331 1.17776 21.2664 2.8663C22.9998 4.55536 23.9555 6.63323 24.1336 9.0999V10.1663H24.5336C26.0222 10.2996 27.2664 10.8996 28.2664 11.9663C29.2664 13.033 29.7664 14.3442 29.7664 15.8999C29.7664 17.4775 29.1998 18.833 28.0664 19.9663C26.9331 21.0996 25.5664 21.6663 23.9664 21.6663H7.43364ZM7.43364 19.3999H23.9664C24.9222 19.3999 25.7499 19.0554 26.4496 18.3663C27.1499 17.6778 27.5 16.8556 27.5 15.8999C27.5 14.9442 27.1555 14.1164 26.4664 13.4167C25.7779 12.7164 24.9446 12.3663 23.9664 12.3663H21.8664V9.6335C21.8664 7.67776 21.1942 6.01643 19.8496 4.6495C18.5056 3.2831 16.8779 2.5999 14.9664 2.5999C13.0331 2.5999 11.3942 3.2831 10.0496 4.6495C8.70564 6.01643 8.03364 7.67776 8.03364 9.6335H7.40004C6.04431 9.6335 4.88884 10.1002 3.93364 11.0335C2.97791 11.9668 2.50004 13.1335 2.50004 14.5335C2.50004 15.8887 2.98351 17.0386 3.95044 17.9831C4.91684 18.9276 6.07791 19.3999 7.43364 19.3999Z" fill="#01893D"/>
</svg>
