<svg width="24" height="24" viewBox="0 0 24 24" fill="none" xmlns="http://www.w3.org/2000/svg">
<mask id="mask0_3317_68184" style="mask-type:alpha" maskUnits="userSpaceOnUse" x="0" y="0" width="24" height="24">
<rect width="24" height="24" fill="#D9D9D9"/>
</mask>
<g mask="url(#mask0_3317_68184)">
<path d="M6.00009 19.15C5.75009 19.15 5.53769 19.0582 5.36289 18.8746C5.18769 18.6914 5.10009 18.4748 5.10009 18.2248C5.10009 17.958 5.18769 17.7414 5.36289 17.575C5.53769 17.4082 5.75849 17.3248 6.02529 17.3248C6.27529 17.3248 6.48769 17.4082 6.66249 17.575C6.83769 17.7414 6.92529 17.958 6.92529 18.2248C6.92529 18.4748 6.83769 18.6914 6.66249 18.8746C6.48769 19.0582 6.26689 19.15 6.00009 19.15ZM18.0001 19.15C17.7501 19.15 17.5377 19.0582 17.3629 18.8746C17.1877 18.6914 17.1001 18.4748 17.1001 18.2248C17.1001 17.958 17.1877 17.7414 17.3629 17.575C17.5377 17.4082 17.7585 17.3248 18.0253 17.3248C18.2753 17.3248 18.4877 17.4082 18.6625 17.575C18.8377 17.7414 18.9253 17.958 18.9253 18.2248C18.9253 18.4748 18.8377 18.6914 18.6625 18.8746C18.4877 19.0582 18.2669 19.15 18.0001 19.15ZM9.00009 23.1496C8.75009 23.1496 8.53769 23.058 8.36289 22.8748C8.18769 22.6916 8.10009 22.475 8.10009 22.225C8.10009 21.9582 8.18769 21.7414 8.36289 21.5746C8.53769 21.4082 8.75849 21.325 9.02529 21.325C9.27529 21.325 9.48769 21.4082 9.66249 21.5746C9.83769 21.7414 9.92529 21.9582 9.92529 22.225C9.92529 22.475 9.83769 22.6916 9.66249 22.8748C9.48769 23.058 9.26689 23.1496 9.00009 23.1496ZM12.0001 19.15C11.7501 19.15 11.5377 19.0582 11.3629 18.8746C11.1877 18.6914 11.1001 18.4748 11.1001 18.2248C11.1001 17.958 11.1877 17.7414 11.3629 17.575C11.5377 17.4082 11.7585 17.3248 12.0253 17.3248C12.2753 17.3248 12.4877 17.4082 12.6625 17.575C12.8377 17.7414 12.9253 17.958 12.9253 18.2248C12.9253 18.4748 12.8377 18.6914 12.6625 18.8746C12.4877 19.0582 12.2669 19.15 12.0001 19.15ZM15.0001 23.1496C14.7501 23.1496 14.5377 23.058 14.3629 22.8748C14.1877 22.6916 14.1001 22.475 14.1001 22.225C14.1001 21.9582 14.1877 21.7414 14.3629 21.5746C14.5377 21.4082 14.7585 21.325 15.0253 21.325C15.2753 21.325 15.4877 21.4082 15.6625 21.5746C15.8377 21.7414 15.9253 21.9582 15.9253 22.225C15.9253 22.475 15.8377 22.6916 15.6625 22.8748C15.4877 23.058 15.2669 23.1496 15.0001 23.1496ZM7.37529 15.55C5.90849 15.55 4.65429 15.029 3.61269 13.987C2.57109 12.9454 2.05029 11.6914 2.05029 10.225C2.05029 8.87501 2.50849 7.69161 3.42489 6.67481C4.34169 5.65801 5.49169 5.06641 6.87489 4.90001C7.40849 3.95001 8.11689 3.20421 9.00009 2.66261C9.88329 2.12061 10.8833 1.84961 12.0001 1.84961C13.4833 1.84961 14.7541 2.33301 15.8125 3.29981C16.8709 4.26661 17.5335 5.45821 17.8003 6.87461C19.0835 6.99141 20.1001 7.46221 20.8501 8.28701C21.6001 9.11221 21.9751 10.0832 21.9751 11.2C21.9751 12.4164 21.5501 13.4454 20.7001 14.287C19.8501 15.129 18.8251 15.55 17.6251 15.55H7.37529ZM7.37529 13.8496H17.6251C18.3583 13.8496 18.9833 13.5914 19.5001 13.075C20.0169 12.5582 20.2753 11.9414 20.2753 11.2246C20.2753 10.4914 20.0169 9.86221 19.5001 9.33701C18.9833 8.81221 18.3583 8.54981 17.6251 8.54981H16.1749V7.69961C16.1749 6.56641 15.7625 5.59141 14.9377 4.77461C14.1125 3.95821 13.1333 3.55001 12.0001 3.55001C11.1669 3.55001 10.4085 3.77921 9.72489 4.23761C9.04169 4.69561 8.52509 5.29961 8.17509 6.04961L7.97529 6.55001H7.32489C6.34169 6.58321 5.49589 6.95401 4.78749 7.66241C4.07909 8.37081 3.72489 9.22501 3.72489 10.225C3.72489 11.225 4.08329 12.079 4.80009 12.787C5.51689 13.4954 6.37529 13.8496 7.37529 13.8496Z" fill="#01893D"/>
</g>
</svg>
