<svg width="18" height="20" viewBox="0 0 18 20" fill="none" xmlns="http://www.w3.org/2000/svg">
<path d="M4.0002 19.0253C3.4666 19.0253 2.9998 18.8293 2.5998 18.4373C2.1998 18.0457 1.9998 17.5749 1.9998 17.0249V3.57525H1.6248C1.3916 3.57525 1.1958 3.49185 1.0374 3.32505C0.879005 3.15825 0.799805 2.95825 0.799805 2.72505C0.799805 2.49185 0.879005 2.29185 1.0374 2.12505C1.1958 1.95825 1.3916 1.87485 1.6248 1.87485H5.8248C5.8248 1.62485 5.9208 1.41245 6.1128 1.23765C6.3044 1.06245 6.5334 0.974854 6.7998 0.974854H11.2248C11.4916 0.974854 11.725 1.05825 11.925 1.22505C12.125 1.39185 12.225 1.60845 12.225 1.87485H16.3998C16.6334 1.87485 16.8334 1.95825 16.9998 2.12505C17.1666 2.29185 17.25 2.49185 17.25 2.72505C17.25 2.95825 17.1666 3.15825 16.9998 3.32505C16.8334 3.49185 16.6334 3.57525 16.3998 3.57525H16.0248V17.0249C16.0248 17.5749 15.829 18.0457 15.4374 18.4373C15.0458 18.8293 14.575 19.0253 14.025 19.0253H4.0002ZM3.7002 3.57525V17.0249C3.7002 17.1249 3.7292 17.2041 3.7872 17.2625C3.8456 17.3209 3.9166 17.3501 4.0002 17.3501H14.025C14.1082 17.3501 14.179 17.3209 14.2374 17.2625C14.2958 17.2041 14.325 17.1249 14.325 17.0249V3.57525H3.7002ZM6.15 14.3999C6.15 14.6335 6.2334 14.8335 6.4002 14.9999C6.5666 15.1667 6.7582 15.2501 6.975 15.2501C7.2082 15.2501 7.4082 15.1667 7.575 14.9999C7.7418 14.8335 7.8252 14.6335 7.8252 14.3999V6.47505C7.8252 6.25825 7.7418 6.06245 7.575 5.88765C7.4082 5.71245 7.2082 5.62485 6.975 5.62485C6.7418 5.62485 6.546 5.71245 6.3876 5.88765C6.2292 6.06245 6.15 6.25825 6.15 6.47505V14.3999ZM10.2252 14.3999C10.2252 14.6335 10.3044 14.8335 10.4628 14.9999C10.6208 15.1667 10.8166 15.2501 11.0502 15.2501C11.2834 15.2501 11.4834 15.1667 11.6502 14.9999C11.8166 14.8335 11.8998 14.6335 11.8998 14.3999V6.47505C11.8998 6.25825 11.8166 6.06245 11.6502 5.88765C11.4834 5.71245 11.2834 5.62485 11.0502 5.62485C10.8166 5.62485 10.6208 5.71245 10.4628 5.88765C10.3044 6.06245 10.2252 6.25825 10.2252 6.47505V14.3999ZM3.7002 3.57525V17.0249C3.7002 17.1249 3.7292 17.2041 3.7872 17.2625C3.8456 17.3209 3.9166 17.3501 4.0002 17.3501H3.7002V3.57525Z" fill="white"/>
</svg>
