<svg width="20" height="20" viewBox="0 0 20 20" fill="none" xmlns="http://www.w3.org/2000/svg">
<path d="M2.67519 17.5001H4.04979L14.425 7.1249L13.0252 5.7503L2.67519 16.1249V17.5001ZM17.6998 6.2249L13.9252 2.4503L15.025 1.3253C15.3582 1.0085 15.7624 0.850098 16.2376 0.850098C16.7124 0.850098 17.1166 1.0167 17.4502 1.3499L18.8248 2.7503C19.1584 3.0667 19.321 3.4583 19.3126 3.9251C19.3042 4.3919 19.1334 4.7919 18.8002 5.1251L17.6998 6.2249ZM1.97499 19.1999C1.67499 19.1999 1.43339 19.1041 1.25019 18.9125C1.06659 18.7209 0.974792 18.4917 0.974792 18.2249V15.8249C0.974792 15.6917 0.999792 15.5667 1.04979 15.4499C1.09979 15.3335 1.16659 15.2253 1.25019 15.1253L13.075 3.3251L16.825 7.1003L5.04999 18.8999C4.93319 19.0167 4.82079 19.0959 4.71279 19.1375C4.60439 19.1791 4.48339 19.1999 4.34979 19.1999H1.97499ZM13.7248 6.4499L13.0252 5.7503L14.425 7.1249L13.7248 6.4499Z" fill="white"/>
</svg>
