<svg width="28" height="28" viewBox="0 0 28 28" fill="none" xmlns="http://www.w3.org/2000/svg">
<path d="M8.63338 20.0334L15.8667 16.4334C16 16.3889 16.1112 16.3223 16.2 16.2334C16.2889 16.1445 16.3667 16.0334 16.4334 15.9001L20 8.66672C20.1112 8.46672 20.0778 8.28338 19.9 8.11672C19.7223 7.95005 19.5334 7.91116 19.3334 8.00005L12.1 11.5667C11.9667 11.6334 11.8556 11.7112 11.7667 11.8C11.6778 11.8889 11.6112 12 11.5667 12.1334L7.96672 19.3667C7.87783 19.5667 7.91672 19.75 8.08338 19.9167C8.25005 20.0834 8.43338 20.1223 8.63338 20.0334ZM14 15.3334C13.6223 15.3334 13.3056 15.2056 13.05 14.95C12.7945 14.6945 12.6667 14.3778 12.6667 14C12.6667 13.6223 12.7945 13.3056 13.05 13.05C13.3056 12.7945 13.6223 12.6667 14 12.6667C14.3778 12.6667 14.6945 12.7945 14.95 13.05C15.2056 13.3056 15.3334 13.6223 15.3334 14C15.3334 14.3778 15.2056 14.6945 14.95 14.95C14.6945 15.2056 14.3778 15.3334 14 15.3334ZM14 27.2C12.2 27.2 10.4945 26.85 8.88338 26.15C7.27227 25.45 5.87227 24.5056 4.68338 23.3167C3.49449 22.1278 2.55005 20.7278 1.85005 19.1167C1.15005 17.5056 0.800049 15.8 0.800049 14C0.800049 12.1778 1.15005 10.4667 1.85005 8.86672C2.55005 7.26672 3.49449 5.87227 4.68338 4.68338C5.87227 3.49449 7.27227 2.55005 8.88338 1.85005C10.4945 1.15005 12.2 0.800049 14 0.800049C15.8223 0.800049 17.5334 1.15005 19.1334 1.85005C20.7334 2.55005 22.1278 3.49449 23.3167 4.68338C24.5056 5.87227 25.45 7.26672 26.15 8.86672C26.85 10.4667 27.2 12.1778 27.2 14C27.2 15.8 26.85 17.5056 26.15 19.1167C25.45 20.7278 24.5056 22.1278 23.3167 23.3167C22.1278 24.5056 20.7334 25.45 19.1334 26.15C17.5334 26.85 15.8223 27.2 14 27.2ZM14 25.2667C17.0889 25.2667 19.7389 24.1667 21.95 21.9667C24.1612 19.7667 25.2667 17.1112 25.2667 14C25.2667 10.9112 24.1612 8.26116 21.95 6.05005C19.7389 3.83894 17.0889 2.73338 14 2.73338C10.8889 2.73338 8.23338 3.83894 6.03338 6.05005C3.83338 8.26116 2.73338 10.9112 2.73338 14C2.73338 17.1112 3.83338 19.7667 6.03338 21.9667C8.23338 24.1667 10.8889 25.2667 14 25.2667Z" fill="#01893D"/>
</svg>
