<svg width="22" height="26" viewBox="0 0 22 26" fill="none" xmlns="http://www.w3.org/2000/svg">
<path d="M10.9664 25.5664C8.01119 25.5664 5.50559 24.5555 3.44959 22.5336C1.39413 20.5112 0.366394 18.0555 0.366394 15.1664C0.366394 13.7445 0.644261 12.4224 1.19999 11.2C1.75573 9.97759 2.50026 8.87759 3.43359 7.89999L11 0.433594L18.5664 7.89999C19.4997 8.87759 20.2443 9.98319 20.8 11.2168C21.3557 12.4499 21.6336 13.7664 21.6336 15.1664C21.6336 18.0331 20.5947 20.4832 18.5168 22.5168C16.4389 24.5499 13.9221 25.5664 10.9664 25.5664ZM11 23.3336C13.2891 23.3336 15.2557 22.5445 16.9 20.9664C18.5443 19.3888 19.3664 17.4555 19.3664 15.1664C19.3664 14.0555 19.1555 13.0221 18.7336 12.0664C18.3112 11.1112 17.7112 10.2445 16.9336 9.46639L11 3.59999L5.06639 9.46639C4.28879 10.2445 3.68879 11.1112 3.26639 12.0664C2.84453 13.0221 2.63359 14.0555 2.63359 15.1664C2.63359 17.4555 3.45573 19.3888 5.09999 20.9664C6.74426 22.5445 8.71093 23.3336 11 23.3336Z" fill="#01893D"/>
</svg>
