<svg width="18" height="18" viewBox="0 0 18 18" fill="none" xmlns="http://www.w3.org/2000/svg">
<path d="M8.99995 17.1749C8.78315 17.1749 8.57475 17.1375 8.37475 17.0627C8.17475 16.9875 7.98315 16.8749 7.79995 16.7249L0.949751 11.5247C0.716551 11.3583 0.595751 11.1333 0.587351 10.8497C0.578951 10.5665 0.691551 10.3415 0.925151 10.1747C1.07515 10.0583 1.24595 10.0001 1.43755 10.0001C1.62915 10.0001 1.79995 10.0583 1.94995 10.1747L8.80015 15.4001C8.86655 15.4501 8.93315 15.4751 8.99995 15.4751C9.06675 15.4751 9.13335 15.4501 9.19975 15.4001L16.05 10.1747C16.2 10.0583 16.3708 10.0001 16.5624 10.0001C16.754 10.0001 16.9247 10.0583 17.0748 10.1747C17.3083 10.3415 17.4209 10.5623 17.4125 10.8371C17.4042 11.1123 17.2915 11.3415 17.0748 11.5247L10.2252 16.7249C10.0252 16.8749 9.82515 16.9875 9.62515 17.0627C9.42515 17.1375 9.21675 17.1749 8.99995 17.1749ZM8.99995 12.8501C8.78315 12.8501 8.57475 12.8125 8.37475 12.7373C8.17475 12.6625 7.98315 12.5501 7.79995 12.4001L1.07515 7.30011C0.925151 7.20011 0.825151 7.08331 0.775151 6.94971C0.725151 6.81651 0.700151 6.67491 0.700151 6.52491C0.700151 6.37491 0.725151 6.23331 0.775151 6.10011C0.825151 5.96651 0.925151 5.84971 1.07515 5.74971L7.79995 0.625107C7.98315 0.491507 8.17475 0.387307 8.37475 0.312507C8.57475 0.237307 8.78315 0.199707 8.99995 0.199707C9.21675 0.199707 9.42515 0.237307 9.62515 0.312507C9.82515 0.387307 10.0252 0.491507 10.2252 0.625107L16.9247 5.74971C17.0748 5.84971 17.1789 5.97071 17.2374 6.11271C17.2957 6.25431 17.3249 6.39171 17.3249 6.52491C17.3249 6.67491 17.2957 6.81651 17.2374 6.94971C17.1789 7.08331 17.0748 7.20011 16.9247 7.30011L10.2252 12.4001C10.0252 12.5501 9.82515 12.6625 9.62515 12.7373C9.42515 12.8125 9.21675 12.8501 8.99995 12.8501ZM8.80015 11.0747C8.86655 11.1247 8.93315 11.1497 8.99995 11.1497C9.06675 11.1497 9.13335 11.1247 9.19975 11.0747L15.1997 6.52491L9.19975 1.97511C9.13335 1.92511 9.06675 1.90011 8.99995 1.90011C8.93315 1.90011 8.86655 1.92511 8.80015 1.97511L2.80015 6.52491L8.80015 11.0747Z" fill="#01893D"/>
</svg>
