<svg width="14" height="18" viewBox="0 0 14 18" fill="none" xmlns="http://www.w3.org/2000/svg">
<path d="M7 8.854C7.41667 8.854 7.77783 8.70467 8.0835 8.406C8.38883 8.10767 8.5415 7.75017 8.5415 7.3335C8.5415 6.91683 8.38883 6.55567 8.0835 6.25C7.77783 5.94433 7.41667 5.7915 7 5.7915C6.58333 5.7915 6.22567 5.94433 5.927 6.25C5.62833 6.55567 5.479 6.91683 5.479 7.3335C5.479 7.75017 5.62833 8.10767 5.927 8.406C6.22567 8.70467 6.58333 8.854 7 8.854ZM7 15.521C8.736 13.9793 10.0415 12.5105 10.9165 11.1145C11.7915 9.71883 12.229 8.514 12.229 7.5C12.229 5.91667 11.7257 4.6215 10.719 3.6145C9.712 2.6075 8.47233 2.104 7 2.104C5.52767 2.104 4.288 2.6075 3.281 3.6145C2.27433 4.6215 1.771 5.91667 1.771 7.5C1.771 8.514 2.21533 9.71883 3.104 11.1145C3.993 12.5105 5.29167 13.9793 7 15.521ZM7 17.0625C6.889 17.0625 6.78133 17.0487 6.677 17.021C6.573 16.993 6.47233 16.9373 6.375 16.854C4.361 15.0487 2.8575 13.3612 1.8645 11.7915C0.8715 10.2222 0.375 8.79167 0.375 7.5C0.375 5.41667 1.04167 3.76033 2.375 2.531C3.70833 1.302 5.25 0.6875 7 0.6875C8.75 0.6875 10.2952 1.302 11.6355 2.531C12.9758 3.76033 13.646 5.41667 13.646 7.5C13.646 8.79167 13.146 10.2222 12.146 11.7915C11.146 13.3612 9.639 15.0487 7.625 16.854C7.54167 16.9373 7.4445 16.993 7.3335 17.021C7.22217 17.0487 7.111 17.0625 7 17.0625Z" fill="white"/>
</svg>
