<svg width="16" height="20" viewBox="0 0 16 20" fill="none" xmlns="http://www.w3.org/2000/svg">
<path d="M7.99993 9.82495C8.49993 9.82495 8.93333 9.64575 9.30013 9.28735C9.66653 8.92935 9.84973 8.50035 9.84973 8.00035C9.84973 7.50035 9.66653 7.06695 9.30013 6.70015C8.93333 6.33335 8.49993 6.14995 7.99993 6.14995C7.49993 6.14995 7.07073 6.33335 6.71233 6.70015C6.35393 7.06695 6.17473 7.50035 6.17473 8.00035C6.17473 8.50035 6.35393 8.92935 6.71233 9.28735C7.07073 9.64575 7.49993 9.82495 7.99993 9.82495ZM7.99993 17.8253C10.0831 15.9753 11.6497 14.2127 12.6997 12.5375C13.7497 10.8627 14.2747 9.41695 14.2747 8.20015C14.2747 6.30015 13.6707 4.74595 12.4627 3.53755C11.2543 2.32915 9.76673 1.72495 7.99993 1.72495C6.23313 1.72495 4.74553 2.32915 3.53713 3.53755C2.32913 4.74595 1.72513 6.30015 1.72513 8.20015C1.72513 9.41695 2.25833 10.8627 3.32473 12.5375C4.39153 14.2127 5.94993 15.9753 7.99993 17.8253ZM7.99993 19.6751C7.86673 19.6751 7.73753 19.6585 7.61233 19.6253C7.48753 19.5917 7.36673 19.5249 7.24993 19.4249C4.83313 17.2585 3.02893 15.2335 1.83733 13.3499C0.645727 11.4667 0.0499268 9.75015 0.0499268 8.20015C0.0499268 5.70015 0.849927 3.71255 2.44993 2.23735C4.04993 0.762546 5.89993 0.0251465 7.99993 0.0251465C10.0999 0.0251465 11.9541 0.762546 13.5625 2.23735C15.1709 3.71255 15.9751 5.70015 15.9751 8.20015C15.9751 9.75015 15.3751 11.4667 14.1751 13.3499C12.9751 15.2335 11.1667 17.2585 8.74993 19.4249C8.64993 19.5249 8.53333 19.5917 8.40013 19.6253C8.26653 19.6585 8.13313 19.6751 7.99993 19.6751Z" fill="#01893D"/>
</svg>
