<svg width="24" height="24" viewBox="0 0 24 24" fill="none" xmlns="http://www.w3.org/2000/svg">
<mask id="mask0_3317_68151" style="mask-type:alpha" maskUnits="userSpaceOnUse" x="0" y="0" width="24" height="24">
<rect width="24" height="24" fill="#D9D9D9"/>
</mask>
<g mask="url(#mask0_3317_68151)">
<path d="M11.9998 11.8252C12.4998 11.8252 12.9332 11.646 13.3 11.2876C13.6664 10.9296 13.8496 10.5006 13.8496 10.0006C13.8496 9.50059 13.6664 9.06719 13.3 8.70039C12.9332 8.33359 12.4998 8.15019 11.9998 8.15019C11.4998 8.15019 11.0706 8.33359 10.7122 8.70039C10.3538 9.06719 10.1746 9.50059 10.1746 10.0006C10.1746 10.5006 10.3538 10.9296 10.7122 11.2876C11.0706 11.646 11.4998 11.8252 11.9998 11.8252ZM11.9998 19.8256C14.083 17.9756 15.6496 16.213 16.6996 14.5378C17.7496 12.863 18.2746 11.4172 18.2746 10.2004C18.2746 8.30039 17.6706 6.74619 16.4626 5.53779C15.2542 4.32939 13.7666 3.72519 11.9998 3.72519C10.233 3.72519 8.74541 4.32939 7.537 5.53779C6.32901 6.74619 5.725 8.30039 5.725 10.2004C5.725 11.4172 6.2582 12.863 7.3246 14.5378C8.39141 16.213 9.9498 17.9756 11.9998 19.8256ZM11.9998 21.6754C11.8666 21.6754 11.7374 21.6588 11.6122 21.6256C11.4874 21.592 11.3666 21.5252 11.2498 21.4252C8.833 19.2588 7.0288 17.2338 5.8372 15.3502C4.6456 13.467 4.0498 11.7504 4.0498 10.2004C4.0498 7.70039 4.8498 5.71279 6.4498 4.23759C8.0498 2.76279 9.89981 2.02539 11.9998 2.02539C14.0998 2.02539 15.954 2.76279 17.5624 4.23759C19.1708 5.71279 19.975 7.70039 19.975 10.2004C19.975 11.7504 19.375 13.467 18.175 15.3502C16.975 17.2338 15.1666 19.2588 12.7498 21.4252C12.6498 21.5252 12.5332 21.592 12.4 21.6256C12.2664 21.6588 12.133 21.6754 11.9998 21.6754Z" fill="#01893D"/>
</g>
</svg>
