<svg width="19" height="18" viewBox="0 0 19 18" fill="none" xmlns="http://www.w3.org/2000/svg">
<path d="M11.5248 17.7498L5.8248 15.75L1.275 17.55C0.9582 17.6832 0.6666 17.6582 0.4002 17.475C0.1334 17.2918 0 17.0334 0 16.6998V2.70002C0 2.48322 0.0583999 2.29162 0.1752 2.12522C0.2916 1.95842 0.4498 1.83342 0.6498 1.75022L5.1498 0.19982C5.3666 0.13342 5.5876 0.10022 5.8128 0.10022C6.0376 0.10022 6.2584 0.13342 6.4752 0.19982L12.1998 2.20022L16.7502 0.42482C17.0502 0.29162 17.3376 0.31242 17.6124 0.48722C17.8876 0.66242 18.0252 0.92502 18.0252 1.27502V15.3498C18.0252 15.5498 17.9584 15.7248 17.8248 15.8748C17.6916 16.0248 17.5416 16.1332 17.3748 16.2L12.8502 17.775C12.6502 17.8582 12.4334 17.8916 12.1998 17.8752C11.9666 17.8584 11.7416 17.8166 11.5248 17.7498ZM11.2998 15.9V3.62522L6.7248 2.02502V14.3502L11.2998 15.9ZM12.975 15.9L16.3248 14.8248V2.32502L12.975 3.62522V15.9ZM1.6752 15.6252L5.025 14.3502V2.02502L1.6752 3.15002V15.6252Z" fill="white"/>
</svg>
