<svg width="21" height="13" viewBox="0 0 21 13" fill="none" xmlns="http://www.w3.org/2000/svg">
<path d="M0.999958 12.1004C0.599958 12.1004 0.308358 11.9212 0.125158 11.5628C-0.058442 11.2044 -0.025242 10.8586 0.224758 10.5254L4.14996 5.29999C4.34996 5.04999 4.61236 4.92499 4.93716 4.92499C5.26236 4.92499 5.52496 5.04999 5.72496 5.29999L9.57516 10.4H17.6002L12.0502 3.02539L9.12516 6.87499L8.07516 5.44999L11.2498 1.22539C11.4498 0.975387 11.7124 0.846187 12.0376 0.837787C12.3624 0.829387 12.6248 0.958587 12.8248 1.22539L19.7998 10.5254C20.0666 10.8586 20.1042 11.2044 19.9126 11.5628C19.721 11.9212 19.4252 12.1004 19.0252 12.1004H0.999958ZM2.45016 10.4H7.47516L4.94976 7.07539L2.45016 10.4Z" fill="#01893D"/>
</svg>
