<svg width="18" height="21" viewBox="0 0 18 21" fill="none" xmlns="http://www.w3.org/2000/svg">
<path d="M1.80003 16.9001C1.56683 16.9001 1.36683 16.8167 1.20003 16.6499C1.03323 16.4835 0.949829 16.2835 0.949829 16.0499C0.949829 15.8167 1.03323 15.6167 1.20003 15.4499C1.36683 15.2835 1.56683 15.2003 1.80003 15.2003H3.02523V8.0501C3.02523 6.7001 3.44183 5.4709 4.27503 4.3625C5.10823 3.2541 6.20823 2.5333 7.57503 2.2001V1.4999C7.57503 1.0999 7.71243 0.766698 7.98723 0.500298C8.26243 0.233498 8.60003 0.100098 9.00003 0.100098C9.40003 0.100098 9.73763 0.233498 10.0128 0.500298C10.2876 0.766698 10.425 1.0999 10.425 1.4999V2.2001C11.7918 2.5333 12.896 3.2541 13.7376 4.3625C14.5792 5.4709 15 6.7001 15 8.0501V15.2003H16.2252C16.4416 15.2003 16.6332 15.2835 16.8 15.4499C16.9668 15.6167 17.0502 15.8167 17.0502 16.0499C17.0502 16.2835 16.9668 16.4835 16.8 16.6499C16.6332 16.8167 16.4416 16.9001 16.2252 16.9001H1.80003ZM9.00003 20.2499C8.46683 20.2499 8.00023 20.0541 7.60023 19.6625C7.20023 19.2709 7.00023 18.7917 7.00023 18.2249H10.9998C10.9998 18.7917 10.8082 19.2709 10.425 19.6625C10.0418 20.0541 9.56683 20.2499 9.00003 20.2499ZM4.69983 15.2003H13.3248V8.0501C13.3248 6.8501 12.9082 5.8335 12.075 5.0003C11.2418 4.1667 10.2252 3.7499 9.02523 3.7499C7.82523 3.7499 6.80423 4.1667 5.96223 5.0003C5.12063 5.8335 4.69983 6.8501 4.69983 8.0501V15.2003Z" fill="white"/>
</svg>
