<svg width="26" height="26" viewBox="0 0 26 26" fill="none" xmlns="http://www.w3.org/2000/svg">
<path d="M3.63363 25.0336C2.9003 25.0336 2.27256 24.7723 1.75043 24.2496C1.22776 23.7275 0.966431 23.0997 0.966431 22.3664V3.6336C0.966431 2.90027 1.22776 2.27253 1.75043 1.7504C2.27256 1.22773 2.9003 0.9664 3.63363 0.9664H11.4336C11.7446 0.9664 12.0112 1.0776 12.2336 1.3C12.4555 1.5224 12.5664 1.77787 12.5664 2.0664C12.5664 2.37787 12.4555 2.64453 12.2336 2.8664C12.0112 3.0888 11.7446 3.2 11.4336 3.2H3.63363C3.52216 3.2 3.42216 3.24453 3.33363 3.3336C3.24456 3.42213 3.20003 3.52213 3.20003 3.6336V22.3664C3.20003 22.4779 3.24456 22.5779 3.33363 22.6664C3.42216 22.7555 3.52216 22.8 3.63363 22.8H22.3664C22.4779 22.8 22.5779 22.7555 22.6664 22.6664C22.7555 22.5779 22.8 22.4779 22.8 22.3664V14.5664C22.8 14.2555 22.9112 13.9888 23.1336 13.7664C23.3555 13.5445 23.6222 13.4336 23.9336 13.4336C24.2446 13.4336 24.5056 13.5445 24.7168 13.7664C24.928 13.9888 25.0336 14.2555 25.0336 14.5664V22.3664C25.0336 23.0997 24.7723 23.7275 24.2496 24.2496C23.7275 24.7723 23.0998 25.0336 22.3664 25.0336H3.63363ZM9.00003 16.9664C8.77763 16.7445 8.66643 16.4891 8.66643 16.2C8.66643 15.9109 8.77763 15.6555 9.00003 15.4336L21.2 3.2H16.5664C16.2555 3.2 15.9888 3.0888 15.7664 2.8664C15.5446 2.64453 15.4336 2.37787 15.4336 2.0664C15.4336 1.75547 15.5446 1.4944 15.7664 1.2832C15.9888 1.072 16.2555 0.9664 16.5664 0.9664H23.7336C24.1112 0.9664 24.4222 1.0888 24.6664 1.3336C24.9112 1.57787 25.0336 1.8888 25.0336 2.2664V9.4336C25.0336 9.74453 24.9224 10.0112 24.7 10.2336C24.4776 10.4555 24.2222 10.5664 23.9336 10.5664C23.6222 10.5664 23.3555 10.4555 23.1336 10.2336C22.9112 10.0112 22.8 9.74453 22.8 9.4336V4.8L10.5664 17.0336C10.3664 17.2336 10.1166 17.3336 9.81683 17.3336C9.51656 17.3336 9.2443 17.2112 9.00003 16.9664Z" fill="#302421"/>
</svg>
