<svg width="30" height="33" viewBox="0 0 30 33" fill="none" xmlns="http://www.w3.org/2000/svg">
<path d="M9.54199 32.625C8.76399 32.625 8.08333 32.396 7.49999 31.938C6.91666 31.4793 6.51399 30.889 6.29199 30.167L4.41699 22.75H25.625L23.708 30.167C23.486 30.889 23.0833 31.4793 22.5 31.938C21.9167 32.396 21.25 32.625 20.5 32.625H9.54199ZM6.41699 0.0419963C8.66699 0.485996 10.6253 1.63166 12.292 3.479C13.9587 5.32633 14.8613 7.40266 15 9.708C15.1667 7.40266 16.0763 5.33333 17.729 3.5C19.3817 1.66666 21.333 0.513996 23.583 0.0419963C23.9163 -0.0140037 24.1943 0.0693297 24.417 0.291996C24.639 0.513996 24.7223 0.791663 24.667 1.125C24.2503 3.18033 23.264 5.00666 21.708 6.604C20.1527 8.20133 18.389 9.18066 16.417 9.542V13.333H27.583C28.0277 13.333 28.4167 13.4997 28.75 13.833C29.0833 14.1663 29.25 14.5553 29.25 15V17.583C29.25 18.5277 28.9307 19.3193 28.292 19.958C27.6527 20.5973 26.9443 20.917 26.167 20.917H3.91699C3.08366 20.917 2.35433 20.5973 1.72899 19.958C1.10433 19.3193 0.791992 18.5277 0.791992 17.583V15C0.791992 14.5553 0.951659 14.1663 1.27099 13.833C1.59033 13.4997 1.98599 13.333 2.45799 13.333H13.625V9.542C11.625 9.18066 9.84733 8.20133 8.29199 6.604C6.73599 5.00666 5.74966 3.18033 5.33299 1.125C5.27766 0.791663 5.36099 0.513996 5.58299 0.291996C5.80566 0.0693297 6.08366 -0.0140037 6.41699 0.0419963Z" fill="#1C1B1F"/>
</svg>
