<svg width="28" height="29" viewBox="0 0 28 29" fill="none" xmlns="http://www.w3.org/2000/svg">
<path d="M5.99998 23.5335C5.66665 23.5335 5.38345 23.4111 5.15038 23.1663C4.91678 22.922 4.79998 22.6332 4.79998 22.2999C4.79998 21.9442 4.91678 21.6554 5.15038 21.4335C5.38345 21.2111 5.67785 21.0999 6.03358 21.0999C6.36691 21.0999 6.65012 21.2111 6.88318 21.4335C7.11678 21.6554 7.23358 21.9442 7.23358 22.2999C7.23358 22.6332 7.11678 22.922 6.88318 23.1663C6.65012 23.4111 6.35572 23.5335 5.99998 23.5335ZM22 23.5335C21.6666 23.5335 21.3834 23.4111 21.1504 23.1663C20.9168 22.922 20.8 22.6332 20.8 22.2999C20.8 21.9442 20.9168 21.6554 21.1504 21.4335C21.3834 21.2111 21.6778 21.0999 22.0336 21.0999C22.3669 21.0999 22.6501 21.2111 22.8832 21.4335C23.1168 21.6554 23.2336 21.9442 23.2336 22.2999C23.2336 22.6332 23.1168 22.922 22.8832 23.1663C22.6501 23.4111 22.3557 23.5335 22 23.5335ZM9.99998 28.8663C9.66665 28.8663 9.38345 28.7442 9.15038 28.4999C8.91678 28.2556 8.79998 27.9668 8.79998 27.6335C8.79998 27.2778 8.91678 26.9887 9.15038 26.7663C9.38345 26.5444 9.67785 26.4335 10.0336 26.4335C10.3669 26.4335 10.6501 26.5444 10.8832 26.7663C11.1168 26.9887 11.2336 27.2778 11.2336 27.6335C11.2336 27.9668 11.1168 28.2556 10.8832 28.4999C10.6501 28.7442 10.3557 28.8663 9.99998 28.8663ZM14 23.5335C13.6666 23.5335 13.3834 23.4111 13.1504 23.1663C12.9168 22.922 12.8 22.6332 12.8 22.2999C12.8 21.9442 12.9168 21.6554 13.1504 21.4335C13.3834 21.2111 13.6778 21.0999 14.0336 21.0999C14.3669 21.0999 14.6501 21.2111 14.8832 21.4335C15.1168 21.6554 15.2336 21.9442 15.2336 22.2999C15.2336 22.6332 15.1168 22.922 14.8832 23.1663C14.6501 23.4111 14.3557 23.5335 14 23.5335ZM18 28.8663C17.6666 28.8663 17.3834 28.7442 17.1504 28.4999C16.9168 28.2556 16.8 27.9668 16.8 27.6335C16.8 27.2778 16.9168 26.9887 17.1504 26.7663C17.3834 26.5444 17.6778 26.4335 18.0336 26.4335C18.3669 26.4335 18.6501 26.5444 18.8832 26.7663C19.1168 26.9887 19.2336 27.2778 19.2336 27.6335C19.2336 27.9668 19.1168 28.2556 18.8832 28.4999C18.6501 28.7442 18.3557 28.8663 18 28.8663ZM7.83358 18.7335C5.87785 18.7335 4.20558 18.0388 2.81678 16.6495C1.42798 15.2607 0.733582 13.5887 0.733582 11.6335C0.733582 9.83351 1.34451 8.25564 2.56638 6.89991C3.78878 5.54418 5.32212 4.75537 7.16638 4.53351C7.87785 3.26684 8.82238 2.27244 9.99998 1.55031C11.1776 0.827642 12.5109 0.466309 14 0.466309C15.9776 0.466309 17.672 1.11084 19.0832 2.39991C20.4944 3.68898 21.3778 5.27778 21.7336 7.16631C23.4445 7.32204 24.8 7.94978 25.8 9.04951C26.8 10.1498 27.3 11.4444 27.3 12.9335C27.3 14.5554 26.7333 15.9274 25.6 17.0495C24.4666 18.1722 23.1 18.7335 21.5 18.7335H7.83358ZM7.83358 16.4663H21.5C22.4776 16.4663 23.3109 16.122 24 15.4335C24.689 14.7444 25.0336 13.922 25.0336 12.9663C25.0336 11.9887 24.689 11.1498 24 10.4495C23.3109 9.74978 22.4776 9.39991 21.5 9.39991H19.5664V8.26631C19.5664 6.75538 19.0165 5.45538 17.9168 4.36631C16.8165 3.27778 15.5109 2.73351 14 2.73351C12.889 2.73351 11.8778 3.03911 10.9664 3.65031C10.0554 4.26098 9.36665 5.06631 8.89998 6.06631L8.63358 6.73351H7.76638C6.45545 6.77778 5.32772 7.27218 4.38318 8.21671C3.43865 9.16124 2.96638 10.3002 2.96638 11.6335C2.96638 12.9668 3.44425 14.1055 4.39998 15.0495C5.35572 15.994 6.50025 16.4663 7.83358 16.4663Z" fill="#01893D"/>
</svg>
