<svg width="17" height="18" viewBox="0 0 17 18" fill="none" xmlns="http://www.w3.org/2000/svg">
<path d="M8.02524 17.0749C5.80844 17.0749 3.91664 16.2875 2.34984 14.7127C0.783444 13.1375 0.000244141 11.2417 0.000244141 9.02529C0.000244141 6.80849 0.783444 4.90429 2.34984 3.31269C3.91664 1.72109 5.80844 0.925293 8.02524 0.925293C9.32524 0.925293 10.5084 1.21269 11.5748 1.78749C12.6416 2.36269 13.5584 3.12529 14.3252 4.07529V1.77489C14.3252 1.54169 14.4084 1.34169 14.5748 1.17489C14.7416 1.00849 14.9416 0.925293 15.1748 0.925293C15.4084 0.925293 15.6084 1.00849 15.7748 1.17489C15.9416 1.34169 16.025 1.54169 16.025 1.77489V6.64989C16.025 6.93349 15.9292 7.16689 15.7376 7.35009C15.546 7.53329 15.3168 7.62489 15.05 7.62489H10.1498C9.91664 7.62489 9.72084 7.54169 9.56244 7.37529C9.40404 7.20849 9.32484 7.00849 9.32484 6.77529C9.32484 6.54169 9.40404 6.34589 9.56244 6.18789C9.72084 6.02949 9.91664 5.95029 10.1498 5.95029H13.5998C12.9998 4.95029 12.2248 4.16269 11.2748 3.58749C10.3248 3.01269 9.24164 2.72529 8.02524 2.72529C6.25844 2.72529 4.75844 3.33349 3.52524 4.54989C2.29164 5.76669 1.67484 7.25849 1.67484 9.02529C1.67484 10.8085 2.28744 12.3125 3.51264 13.5373C4.73744 14.7625 6.24164 15.3751 8.02524 15.3751C9.27524 15.3751 10.4126 15.0459 11.4374 14.3875C12.4626 13.7291 13.2418 12.8417 13.775 11.7253C13.8418 11.5585 13.9626 11.4209 14.1374 11.3125C14.3126 11.2041 14.4918 11.1499 14.675 11.1499C14.975 11.1499 15.2 11.2541 15.35 11.4625C15.5 11.6709 15.5166 11.9085 15.3998 12.1753C14.7666 13.6417 13.7916 14.8249 12.4748 15.7249C11.1584 16.6249 9.67524 17.0749 8.02524 17.0749Z" fill="#01893D"/>
</svg>
