<svg width="19" height="19" viewBox="0 0 19 19" fill="none" xmlns="http://www.w3.org/2000/svg">
<path d="M17.2252 18.3748L11.3998 12.55C10.8834 12.9668 10.2752 13.2918 9.57519 13.525C8.8752 13.7582 8.16679 13.8748 7.45 13.8748C5.63319 13.8748 4.0956 13.2498 2.8372 11.9998C1.5792 10.7498 0.950195 9.2166 0.950195 7.4002C0.950195 5.6002 1.5752 4.0752 2.8252 2.8252C4.0752 1.5752 5.6084 0.950195 7.4248 0.950195C9.2248 0.950195 10.754 1.5752 12.0124 2.8252C13.2708 4.0752 13.9 5.6002 13.9 7.4002C13.9 8.1334 13.7876 8.8376 13.5628 9.5128C13.3376 10.1876 13.0084 10.7916 12.5752 11.3248L18.475 17.2C18.6418 17.3668 18.7252 17.5626 18.7252 17.7874C18.7252 18.0126 18.6252 18.2168 18.4252 18.4C18.2584 18.5668 18.0584 18.6502 17.8252 18.6502C17.5916 18.6502 17.3916 18.5584 17.2252 18.3748ZM7.4248 12.175C8.7748 12.175 9.90819 11.7166 10.825 10.7998C11.7418 9.8834 12.2002 8.7502 12.2002 7.4002C12.2002 6.0666 11.7418 4.9374 10.825 4.0126C9.90819 3.0874 8.7748 2.6248 7.4248 2.6248C6.0748 2.6248 4.9416 3.0874 4.0252 4.0126C3.1084 4.9374 2.65 6.0666 2.65 7.4002C2.65 8.7502 3.1084 9.8834 4.0252 10.7998C4.9416 11.7166 6.0748 12.175 7.4248 12.175Z" fill="white"/>
</svg>
