<svg width="12" height="7" viewBox="0 0 12 7" fill="none" xmlns="http://www.w3.org/2000/svg">
<path d="M11.3747 1.54989L6.67493 6.25029C6.57493 6.35029 6.46653 6.42529 6.34973 6.47529C6.23333 6.52529 6.10833 6.55029 5.97473 6.55029C5.84153 6.55029 5.71653 6.52529 5.59973 6.47529C5.48333 6.42529 5.37513 6.35029 5.27513 6.25029L0.550127 1.54989C0.383327 1.36669 0.299927 1.16669 0.299927 0.949893C0.299927 0.733493 0.383327 0.533493 0.550127 0.349893C0.733327 0.166693 0.937527 0.0792928 1.16273 0.0876927C1.38753 0.0960927 1.59153 0.183493 1.77473 0.349893L5.97473 4.57509L10.1747 0.349893C10.3583 0.166693 10.5583 0.0750929 10.7747 0.0750929C10.9915 0.0750929 11.1915 0.166693 11.3747 0.349893C11.5415 0.533493 11.6249 0.733493 11.6249 0.949893C11.6249 1.16669 11.5415 1.36669 11.3747 1.54989Z" fill="#01893D"/>
</svg>
