<svg width="20" height="20" viewBox="0 0 20 20" fill="none" xmlns="http://www.w3.org/2000/svg">
<path d="M12.0504 19.8502C11.7836 19.9002 11.5585 19.846 11.3753 19.6876C11.1918 19.5292 11.1 19.3084 11.1 19.0252C11.1 18.8252 11.1709 18.646 11.313 18.4876C11.4545 18.3292 11.6336 18.225 11.85 18.175C12.35 18.075 12.825 17.9208 13.275 17.7124C13.725 17.504 14.1667 17.2666 14.6004 17.0002C14.7668 16.8666 14.9542 16.8166 15.1625 16.8502C15.3709 16.8834 15.5501 16.9666 15.7002 17.0998C15.8834 17.2998 15.971 17.5248 15.9629 17.7748C15.9545 18.0248 15.8336 18.2166 15.5999 18.3502C15.0668 18.7334 14.496 19.0416 13.8876 19.2748C13.2792 19.5084 12.6667 19.7002 12.0504 19.8502ZM17.2001 15.5998C17.0501 15.4666 16.9626 15.2958 16.9373 15.0874C16.9125 14.879 16.9585 14.6832 17.0753 14.5C17.3585 14.1 17.5917 13.6666 17.775 13.1998C17.9585 12.7334 18.1086 12.2502 18.225 11.7502C18.2586 11.5502 18.3627 11.3792 18.5375 11.2372C18.7127 11.0956 18.9086 11.0248 19.125 11.0248C19.3918 11.0248 19.6043 11.1166 19.7628 11.3002C19.9212 11.4834 19.9753 11.7084 19.9254 11.9752C19.7917 12.6084 19.5958 13.2292 19.3374 13.8376C19.0793 14.446 18.7754 15.0084 18.4254 15.5248C18.2754 15.7416 18.0793 15.8584 17.8374 15.8752C17.5958 15.8916 17.3834 15.7998 17.2001 15.5998ZM19.125 8.94998C18.9086 8.94998 18.7127 8.88338 18.5375 8.75018C18.3627 8.61658 18.2586 8.44158 18.225 8.22518C18.125 7.72518 17.9792 7.24598 17.7875 6.78758C17.5959 6.32918 17.3585 5.89158 17.0753 5.47478C16.9753 5.29158 16.9377 5.09578 16.9625 4.88738C16.9878 4.67898 17.0753 4.49158 17.2253 4.32518C17.4086 4.14158 17.621 4.06238 17.8626 4.08758C18.1042 4.11238 18.2999 4.23318 18.4499 4.44998C18.8335 5.03318 19.1378 5.60398 19.3626 6.16238C19.5877 6.72078 19.7754 7.33338 19.9254 8.00018C19.9918 8.26658 19.9417 8.49158 19.7754 8.67518C19.6085 8.85838 19.3918 8.94998 19.125 8.94998ZM8.07535 19.825C5.75855 19.3418 3.84595 18.1834 2.33755 16.3498C0.829151 14.5166 0.0749512 12.4 0.0749512 9.99998C0.0749512 7.58318 0.833351 5.45818 2.35015 3.62498C3.86695 1.79178 5.78355 0.633381 8.09995 0.149781C8.34995 0.0833805 8.56675 0.129381 8.75035 0.287781C8.93355 0.445781 9.02515 0.658181 9.02515 0.924981C9.02515 1.12498 8.95435 1.31658 8.81275 1.49978C8.67115 1.68338 8.50035 1.79178 8.30035 1.82498C6.38355 2.25818 4.81675 3.23318 3.59995 4.74998C2.38355 6.26678 1.77535 8.01678 1.77535 9.99998C1.77535 11.9668 2.38355 13.7084 3.59995 15.2248C4.81675 16.7416 6.38355 17.7166 8.30035 18.1498C8.50035 18.1998 8.67115 18.3124 8.81275 18.4876C8.95435 18.6624 9.02515 18.8498 9.02515 19.0498C9.02515 19.3166 8.92935 19.5292 8.73775 19.6876C8.54615 19.846 8.32535 19.8918 8.07535 19.825ZM14.6004 2.99978C14.1667 2.73338 13.721 2.50018 13.2629 2.30018C12.8046 2.10018 12.3336 1.95018 11.85 1.85018C11.65 1.80018 11.4834 1.68338 11.3502 1.49978C11.217 1.31658 11.1504 1.12498 11.1504 0.924981C11.1504 0.658181 11.2378 0.449781 11.4125 0.299781C11.5878 0.149781 11.8004 0.0997805 12.0504 0.149781C12.6667 0.283381 13.2792 0.47098 13.8876 0.712581C14.496 0.95418 15.0836 1.25838 15.6503 1.62518C15.8504 1.75838 15.9586 1.94998 15.9749 2.19998C15.9917 2.44998 15.9086 2.67498 15.7254 2.87498C15.5918 3.00818 15.4167 3.08738 15.2003 3.11258C14.9836 3.13738 14.7836 3.09978 14.6004 2.99978ZM10.1004 15.0748C9.96675 15.0748 9.83755 15.0498 9.71275 14.9998C9.58755 14.9498 9.46675 14.8832 9.35035 14.8C8.16675 13.7168 7.28755 12.7084 6.71275 11.7748C6.13755 10.8416 5.84995 9.96658 5.84995 9.14978C5.84995 7.81658 6.27495 6.75838 7.12495 5.97518C7.97495 5.19158 8.96675 4.79978 10.1004 4.79978C11.2168 4.79978 12.2 5.19158 13.05 5.97518C13.9 6.75838 14.325 7.81658 14.325 9.14978C14.325 9.96658 14.0375 10.8416 13.4628 11.7748C12.8876 12.7084 12.0084 13.7168 10.8252 14.8C10.742 14.8832 10.6336 14.9498 10.5 14.9998C10.3668 15.0498 10.2336 15.0748 10.1004 15.0748ZM10.1004 10.1248C10.4167 10.1248 10.6876 10.0208 10.9128 9.81278C11.1376 9.60438 11.25 9.33338 11.25 8.99978C11.25 8.68338 11.1376 8.41258 10.9128 8.18738C10.6876 7.96258 10.4167 7.85018 10.1004 7.85018C9.76675 7.85018 9.49175 7.96258 9.27535 8.18738C9.05855 8.41258 8.95015 8.68338 8.95015 8.99978C8.95015 9.33338 9.05855 9.60438 9.27535 9.81278C9.49175 10.0208 9.76675 10.1248 10.1004 10.1248Z" fill="white"/>
</svg>
