<svg width="22" height="20" viewBox="0 0 22 20" fill="none" xmlns="http://www.w3.org/2000/svg">
<path d="M11.0253 19.525C10.7917 19.525 10.5917 19.4416 10.4253 19.2748C10.2585 19.1084 10.1751 18.9084 10.1751 18.6748C10.1751 18.4416 10.2585 18.2458 10.4253 18.0874C10.5917 17.929 10.7917 17.8498 11.0253 17.8498H18.0249C18.1249 17.8498 18.2041 17.8208 18.2625 17.7628C18.3209 17.7044 18.3501 17.6252 18.3501 17.5252V9.9748C18.3501 9.02479 18.1417 8.11659 17.7249 7.2502C17.3085 6.3834 16.7627 5.6084 16.0875 4.92519C15.4127 4.2416 14.6335 3.6958 13.7499 3.2878C12.8667 2.8794 11.9501 2.6752 11.0001 2.6752C10.0669 2.6752 9.15434 2.8794 8.26234 3.2878C7.37074 3.6958 6.58754 4.2416 5.91274 4.92519C5.23754 5.6084 4.69174 6.3834 4.27534 7.2502C3.85854 8.11659 3.65014 9.02479 3.65014 9.9748V15.5248C3.65014 15.7416 3.58354 15.9166 3.45034 16.0498C3.31674 16.1834 3.14994 16.2502 2.94994 16.2502C2.39994 16.2502 1.93334 16.0584 1.55014 15.6748C1.16694 15.2916 0.975342 14.8334 0.975342 14.3002V12.2998C0.975342 11.9334 1.06274 11.6084 1.23754 11.3248C1.41274 11.0416 1.65854 10.7916 1.97494 10.5748L2.02534 9.37479C2.10854 8.1916 2.42094 7.08759 2.96254 6.0628C3.50414 5.03759 4.18754 4.1416 5.01274 3.3748C5.83754 2.6084 6.76674 2.0126 7.80034 1.5874C8.83354 1.1626 9.90014 0.950195 11.0001 0.950195C12.1169 0.950195 13.1919 1.1668 14.2251 1.6C15.2583 2.0332 16.1875 2.629 17.0127 3.3874C17.8375 4.1458 18.5167 5.03759 19.0503 6.0628C19.5835 7.08759 19.8917 8.18339 19.9749 9.35019L20.0253 10.525C20.3253 10.7082 20.5669 10.9416 20.7501 11.2252C20.9333 11.5084 21.0249 11.8166 21.0249 12.1498V14.4502C21.0249 14.7666 20.9333 15.0666 20.7501 15.3502C20.5669 15.6334 20.3253 15.8666 20.0253 16.0498V17.5252C20.0253 18.0916 19.8335 18.5666 19.4499 18.9502C19.0667 19.3334 18.5917 19.525 18.0249 19.525H11.0253ZM8.17534 12.5002C7.92534 12.5002 7.70454 12.4044 7.51294 12.2128C7.32094 12.0208 7.22494 11.7916 7.22494 11.5252C7.22494 11.2584 7.32094 11.0292 7.51294 10.8376C7.70454 10.646 7.93354 10.5502 8.19994 10.5502C8.46674 10.5502 8.69594 10.646 8.88754 10.8376C9.07914 11.0292 9.17494 11.2584 9.17494 11.5252C9.17494 11.7916 9.07494 12.0208 8.87494 12.2128C8.67494 12.4044 8.44174 12.5002 8.17534 12.5002ZM13.8003 12.5002C13.5335 12.5002 13.3043 12.4044 13.1127 12.2128C12.9211 12.0208 12.8253 11.7916 12.8253 11.5252C12.8253 11.2584 12.9211 11.0292 13.1127 10.8376C13.3043 10.646 13.5335 10.5502 13.8003 10.5502C14.0667 10.5502 14.2999 10.646 14.4999 10.8376C14.6999 11.0292 14.7999 11.2584 14.7999 11.5252C14.7999 11.7916 14.6999 12.0208 14.4999 12.2128C14.2999 12.4044 14.0667 12.5002 13.8003 12.5002ZM5.17534 10.7752C5.10854 9.85839 5.20854 9 5.47534 8.2C5.74174 7.39999 6.14174 6.7 6.67534 6.1C7.20854 5.5 7.85014 5.025 8.60014 4.675C9.35014 4.325 10.1667 4.15 11.0499 4.15C12.5167 4.15 13.7793 4.6458 14.8377 5.6374C15.8961 6.62899 16.5503 7.85819 16.8003 9.325C15.2835 9.3082 13.9417 8.9498 12.7749 8.24979C11.6085 7.5498 10.6919 6.62479 10.0251 5.4748C9.69194 6.6748 9.10034 7.73739 8.25034 8.66259C7.40034 9.58739 6.37534 10.2916 5.17534 10.7752Z" fill="white"/>
</svg>
