<svg width="14" height="28" viewBox="0 0 14 28" fill="none" xmlns="http://www.w3.org/2000/svg">
<path d="M7.00005 27.3664C5.15579 27.3664 3.58912 26.7221 2.30005 25.4336C1.01099 24.1445 0.366455 22.5888 0.366455 20.7664C0.366455 19.6779 0.622188 18.6445 1.13365 17.6664C1.64459 16.6888 2.35552 15.9221 3.26646 15.3664V4.36641C3.26646 3.32214 3.62779 2.43894 4.35045 1.71681C5.07259 0.994672 5.95579 0.633606 7.00005 0.633606C8.04432 0.633606 8.92752 0.994672 9.64966 1.71681C10.3723 2.43894 10.7337 3.32214 10.7337 4.36641V15.3664C11.667 15.9221 12.3835 16.6888 12.8833 17.6664C13.3835 18.6445 13.6337 19.6779 13.6337 20.7664C13.6337 22.5888 12.9891 24.1445 11.7001 25.4336C10.411 26.7221 8.84432 27.3664 7.00005 27.3664ZM5.53365 12.7664H8.46646V10.7336H7.00005V9.40001H8.46646V7.00001H7.00005V5.70001H8.46646V4.36641C8.46646 3.94454 8.32752 3.58907 8.04966 3.30001C7.77232 3.01094 7.42245 2.86641 7.00005 2.86641C6.57765 2.86641 6.22779 3.01094 5.95045 3.30001C5.67259 3.58907 5.53365 3.94454 5.53365 4.36641V12.7664Z" fill="#01893D"/>
</svg>
