<svg width="20" height="20" viewBox="0 0 20 20" fill="none" xmlns="http://www.w3.org/2000/svg">
<path d="M11.3997 19.3497C11.1997 19.5497 10.9789 19.6955 10.7373 19.7871C10.4957 19.8791 10.2499 19.9251 9.99991 19.9251C9.74991 19.9251 9.50411 19.8791 9.26251 19.7871C9.02091 19.6955 8.80011 19.5497 8.60011 19.3497L0.650107 11.3997C0.466507 11.1997 0.324707 10.9789 0.224707 10.7373C0.124707 10.4957 0.074707 10.2499 0.074707 9.99991C0.074707 9.74991 0.120707 9.50411 0.212707 9.26251C0.304307 9.02091 0.450107 8.80011 0.650107 8.60011L8.60011 0.650107C8.80011 0.466507 9.02091 0.324707 9.26251 0.224707C9.50411 0.124707 9.74991 0.074707 9.99991 0.074707C10.2499 0.074707 10.4957 0.120707 10.7373 0.212707C10.9789 0.304307 11.1997 0.450107 11.3997 0.650107L19.3497 8.60011C19.5497 8.80011 19.6955 9.02091 19.7871 9.26251C19.8791 9.50411 19.9251 9.74991 19.9251 9.99991C19.9251 10.2499 19.8751 10.4957 19.7751 10.7373C19.6751 10.9789 19.5333 11.1997 19.3497 11.3997L11.3997 19.3497ZM10.2249 18.1497L18.1497 10.2249C18.2165 10.1581 18.2499 10.0831 18.2499 9.99991C18.2499 9.91671 18.2165 9.84171 18.1497 9.77491L10.2249 1.85011C10.1581 1.78331 10.0831 1.74991 9.99991 1.74991C9.91671 1.74991 9.84171 1.78331 9.77491 1.85011L1.85011 9.77491C1.78331 9.84171 1.74991 9.91671 1.74991 9.99991C1.74991 10.0831 1.78331 10.1581 1.85011 10.2249L9.77491 18.1497C9.84171 18.2165 9.91671 18.2499 9.99991 18.2499C10.0831 18.2499 10.1581 18.2165 10.2249 18.1497ZM9.99991 11.4999C10.2331 11.4999 10.4331 11.4165 10.5999 11.2497C10.7667 11.0833 10.8501 10.8833 10.8501 10.6497V6.29971C10.8501 6.06651 10.7667 5.86651 10.5999 5.69971C10.4331 5.53331 10.2331 5.45011 9.99991 5.45011C9.76671 5.45011 9.57091 5.53331 9.41251 5.69971C9.25411 5.86651 9.17491 6.06651 9.17491 6.29971V10.6497C9.17491 10.8833 9.25411 11.0833 9.41251 11.2497C9.57091 11.4165 9.76671 11.4999 9.99991 11.4999ZM9.99991 14.4249C10.2499 14.4249 10.4623 14.3375 10.6371 14.1627C10.8123 13.9875 10.8999 13.7749 10.8999 13.5249C10.8999 13.2749 10.8123 13.0623 10.6371 12.8871C10.4623 12.7123 10.2499 12.6249 9.99991 12.6249C9.74991 12.6249 9.53751 12.7123 9.36271 12.8871C9.18751 13.0623 9.09991 13.2749 9.09991 13.5249C9.09991 13.7749 9.18751 13.9875 9.36271 14.1627C9.53751 14.3375 9.74991 14.4249 9.99991 14.4249Z" fill="#01893D"/>
</svg>
