<svg width="16" height="20" viewBox="0 0 16 20" fill="none" xmlns="http://www.w3.org/2000/svg">
<path d="M7.9749 19.4248C5.7585 19.4248 3.8793 18.6666 2.3373 17.1502C0.795702 15.6334 0.0249023 13.7916 0.0249023 11.6248C0.0249023 10.5584 0.233302 9.5668 0.650102 8.65C1.0669 7.7332 1.6253 6.9082 2.3253 6.175L8.0001 0.575195L13.6749 6.175C14.3749 6.9082 14.9333 7.7374 15.3501 8.6626C15.7669 9.5874 15.9753 10.5748 15.9753 11.6248C15.9753 13.7748 15.1961 15.6124 13.6377 17.1376C12.0793 18.6624 10.1917 19.4248 7.9749 19.4248ZM8.0001 17.7502C9.7169 17.7502 11.1919 17.1584 12.4251 15.9748C13.6583 14.7916 14.2749 13.3416 14.2749 11.6248C14.2749 10.7916 14.1167 10.0166 13.8003 9.2998C13.4835 8.5834 13.0335 7.9334 12.4503 7.3498L8.0001 2.95L3.5499 7.3498C2.9667 7.9334 2.5167 8.5834 2.1999 9.2998C1.8835 10.0166 1.7253 10.7916 1.7253 11.6248C1.7253 13.3416 2.3419 14.7916 3.5751 15.9748C4.8083 17.1584 6.2833 17.7502 8.0001 17.7502Z" fill="#01893D"/>
</svg>
