<svg width="64" height="64" viewBox="0 0 64 64" fill="none" xmlns="http://www.w3.org/2000/svg">
<mask id="mask0_5358_14344" style="mask-type:alpha" maskUnits="userSpaceOnUse" x="0" y="0" width="64" height="64">
<rect width="64" height="64" fill="#D9D9D9"/>
</mask>
<g mask="url(#mask0_5358_14344)">
<path d="M16.0001 51.067C15.3334 51.067 14.767 50.8222 14.3009 50.3326C13.8337 49.8441 13.6001 49.2665 13.6001 48.5998C13.6001 47.8884 13.8337 47.3107 14.3009 46.867C14.767 46.4222 15.3558 46.1998 16.0673 46.1998C16.734 46.1998 17.3004 46.4222 17.7665 46.867C18.2337 47.3107 18.4673 47.8884 18.4673 48.5998C18.4673 49.2665 18.2337 49.8441 17.7665 50.3326C17.3004 50.8222 16.7116 51.067 16.0001 51.067ZM48.0001 51.067C47.3334 51.067 46.767 50.8222 46.3009 50.3326C45.8337 49.8441 45.6001 49.2665 45.6001 48.5998C45.6001 47.8884 45.8337 47.3107 46.3009 46.867C46.767 46.4222 47.3558 46.1998 48.0673 46.1998C48.734 46.1998 49.3004 46.4222 49.7665 46.867C50.2337 47.3107 50.4673 47.8884 50.4673 48.5998C50.4673 49.2665 50.2337 49.8441 49.7665 50.3326C49.3004 50.8222 48.7116 51.067 48.0001 51.067ZM24.0001 61.7326C23.3334 61.7326 22.767 61.4883 22.3009 60.9998C21.8337 60.5113 21.6001 59.9337 21.6001 59.267C21.6001 58.5555 21.8337 57.9774 22.3009 57.5326C22.767 57.0889 23.3558 56.867 24.0673 56.867C24.734 56.867 25.3004 57.0889 25.7665 57.5326C26.2337 57.9774 26.4673 58.5555 26.4673 59.267C26.4673 59.9337 26.2337 60.5113 25.7665 60.9998C25.3004 61.4883 24.7116 61.7326 24.0001 61.7326ZM32.0001 51.067C31.3334 51.067 30.767 50.8222 30.3009 50.3326C29.8337 49.8441 29.6001 49.2665 29.6001 48.5998C29.6001 47.8884 29.8337 47.3107 30.3009 46.867C30.767 46.4222 31.3558 46.1998 32.0673 46.1998C32.734 46.1998 33.3004 46.4222 33.7665 46.867C34.2337 47.3107 34.4673 47.8884 34.4673 48.5998C34.4673 49.2665 34.2337 49.8441 33.7665 50.3326C33.3004 50.8222 32.7116 51.067 32.0001 51.067ZM40.0001 61.7326C39.3334 61.7326 38.767 61.4883 38.3009 60.9998C37.8337 60.5113 37.6001 59.9337 37.6001 59.267C37.6001 58.5555 37.8337 57.9774 38.3009 57.5326C38.767 57.0889 39.3558 56.867 40.0673 56.867C40.734 56.867 41.3004 57.0889 41.7665 57.5326C42.2337 57.9774 42.4673 58.5555 42.4673 59.267C42.4673 59.9337 42.2337 60.5113 41.7665 60.9998C41.3004 61.4883 40.7116 61.7326 40.0001 61.7326ZM19.6673 41.467C15.7558 41.467 12.4113 40.0777 9.63369 37.299C6.85609 34.5214 5.46729 31.1774 5.46729 27.267C5.46729 23.667 6.68915 20.5113 9.13289 17.7998C11.5777 15.0884 14.6444 13.5107 18.3329 13.067C19.7558 10.5337 21.6449 8.54488 24.0001 7.10062C26.3553 5.65528 29.022 4.93262 32.0001 4.93262C35.9553 4.93262 39.3441 6.22168 42.1665 8.79982C44.9889 11.378 46.7558 14.5556 47.4673 18.3326C50.8892 18.6441 53.6001 19.8996 55.6001 22.099C57.6001 24.2996 58.6001 26.8889 58.6001 29.867C58.6001 33.1108 57.4668 35.8548 55.2001 38.099C52.9334 40.3444 50.2001 41.467 47.0001 41.467H19.6673ZM19.6673 36.9326H47.0001C48.9553 36.9326 50.622 36.2441 52.0001 34.867C53.3782 33.4889 54.0673 31.8441 54.0673 29.9326C54.0673 27.9774 53.3782 26.2996 52.0001 24.899C50.622 23.4996 48.9553 22.7998 47.0001 22.7998H43.1329V20.5326C43.1329 17.5108 42.0332 14.9108 39.8337 12.7326C37.6332 10.5556 35.022 9.46702 32.0001 9.46702C29.7782 9.46702 27.7558 10.0782 25.9329 11.3006C24.111 12.522 22.7334 14.1326 21.8001 16.1326L21.2673 17.467H19.5329C16.911 17.5556 14.6556 18.5444 12.7665 20.4334C10.8774 22.3225 9.93289 24.6003 9.93289 27.267C9.93289 29.9337 10.8886 32.211 12.8001 34.099C14.7116 35.9881 17.0006 36.9326 19.6673 36.9326Z" fill="#01893D"/>
</g>
</svg>
