<svg width="64" height="64" viewBox="0 0 64 64" fill="none" xmlns="http://www.w3.org/2000/svg">
<mask id="mask0_5358_14352" style="mask-type:alpha" maskUnits="userSpaceOnUse" x="0" y="0" width="64" height="64">
<rect width="64" height="64" fill="#D9D9D9"/>
</mask>
<g mask="url(#mask0_5358_14352)">
<path d="M8.0007 48.2661C6.93404 48.2661 6.15644 47.7882 5.6679 46.8325C5.1783 45.8767 5.26684 44.9546 5.9335 44.0661L16.4007 30.1317C16.934 29.465 17.6338 29.1317 18.4999 29.1317C19.3671 29.1317 20.0674 29.465 20.6007 30.1317L30.8679 43.7317H52.2679L37.4679 24.0661L29.6679 34.3317L26.8679 30.5317L35.3335 19.2661C35.8668 18.5994 36.5671 18.2549 37.4343 18.2325C38.3004 18.2101 39.0002 18.5546 39.5335 19.2661L58.1335 44.0661C58.845 44.9546 58.9452 45.8767 58.4343 46.8325C57.9234 47.7882 57.1346 48.2661 56.0679 48.2661H8.0007ZM11.8679 43.7317H25.2679L18.5335 34.8661L11.8679 43.7317Z" fill="#01893D"/>
</g>
</svg>
