<svg width="64" height="64" viewBox="0 0 64 64" fill="none" xmlns="http://www.w3.org/2000/svg">
<mask id="mask0_5358_14369" style="mask-type:alpha" maskUnits="userSpaceOnUse" x="0" y="0" width="64" height="64">
<rect width="64" height="64" fill="#D9D9D9"/>
</mask>
<g mask="url(#mask0_5358_14369)">
<path d="M13.0674 56.2C11.6007 56.2 10.3447 55.6779 9.29941 54.6336C8.25514 53.5893 7.73301 52.3339 7.73301 50.8672V29.5328C6.35594 28.4661 5.46741 27.1552 5.06741 25.6C4.66741 24.0448 4.75594 22.4448 5.33301 20.8L8.26741 11.8C8.62261 10.6 9.22261 9.64425 10.0674 8.93279C10.9111 8.22239 11.9554 7.86719 13.2002 7.86719H50.6002C51.845 7.86719 52.9229 8.21172 53.8338 8.90079C54.7447 9.58879 55.3778 10.5328 55.733 11.7328L58.6674 20.8C59.2007 22.4448 59.2781 24.1003 58.8994 25.7664C58.5218 27.4336 57.6221 28.7115 56.2002 29.6V50.8672C56.2002 52.3339 55.6781 53.5893 54.6338 54.6336C53.5895 55.6779 52.3341 56.2 50.8674 56.2H13.0674ZM38.0674 27.1328C39.3111 27.1328 40.333 26.7664 41.133 26.0336C41.933 25.2997 42.2663 24.3776 42.133 23.2672L40.4674 12.4H34.2674V23C34.2674 24.1115 34.6338 25.0784 35.3666 25.9008C36.1005 26.7221 37.0007 27.1328 38.0674 27.1328ZM25.6002 27.1328C26.7554 27.1328 27.7442 26.7328 28.5666 25.9328C29.389 25.1328 29.8002 24.1552 29.8002 23V12.4H23.533L21.8002 23.2672C21.6221 24.4224 21.9111 25.3557 22.6674 26.0672C23.4226 26.7776 24.4002 27.1328 25.6002 27.1328ZM13.4002 27.1328C14.3783 27.1328 15.2226 26.7776 15.933 26.0672C16.6445 25.3557 17.1111 24.4891 17.333 23.4672L18.933 12.4H13.6002C13.3335 12.4 13.1111 12.4555 12.933 12.5664C12.7559 12.6773 12.6226 12.8661 12.533 13.1328L9.80021 21.8672C9.31168 23.2443 9.44501 24.4661 10.2002 25.5328C10.9554 26.5995 12.0221 27.1328 13.4002 27.1328ZM50.533 27.1328C51.9111 27.1328 52.9666 26.6219 53.6994 25.6C54.4333 24.5781 54.6002 23.3339 54.2002 21.8672L51.533 13.0672C51.4893 12.8443 51.3783 12.6773 51.2002 12.5664C51.0221 12.4555 50.7778 12.4 50.4674 12.4H45.0674L46.6674 23.4672C46.8445 24.4891 47.2775 25.3557 47.9666 26.0672C48.6557 26.7776 49.5111 27.1328 50.533 27.1328ZM13.0674 51.7328H50.8674C51.0893 51.7328 51.2893 51.6555 51.4674 51.5008C51.6445 51.3451 51.733 51.1339 51.733 50.8672V31.5328C51.6893 31.5328 51.5229 31.544 51.2338 31.5664C50.9447 31.5888 50.6669 31.6 50.4002 31.6C49.245 31.6 48.1895 31.3664 47.2338 30.8992C46.2781 30.4331 45.3335 29.7333 44.4002 28.8C43.645 29.6885 42.7447 30.3776 41.6994 30.8672C40.6551 31.3557 39.4887 31.6 38.2002 31.6C36.9117 31.6 35.7671 31.3888 34.7666 30.9664C33.7671 30.544 32.845 29.8885 32.0002 29C31.245 29.8448 30.3447 30.4891 29.2994 30.9328C28.2551 31.3776 27.133 31.6 25.933 31.6C24.5997 31.6 23.3997 31.3664 22.333 30.8992C21.2663 30.4331 20.333 29.7333 19.533 28.8C18.4663 29.8219 17.4551 30.544 16.4994 30.9664C15.5447 31.3888 14.5559 31.6 13.533 31.6C13.2226 31.6 12.9559 31.5888 12.733 31.5664C12.5111 31.544 12.3335 31.5328 12.2002 31.5328V50.8672C12.2002 51.1339 12.2893 51.3451 12.4674 51.5008C12.6445 51.6555 12.8445 51.7328 13.0674 51.7328Z" fill="#01893D"/>
</g>
</svg>
