<svg width="97" height="96" viewBox="0 0 97 96" fill="none" xmlns="http://www.w3.org/2000/svg">
<mask id="mask0_4755_8533" style="mask-type:alpha" maskUnits="userSpaceOnUse" x="0" y="0" width="97" height="96">
<rect x="0.333313" width="96" height="96" fill="#D9D9D9"/>
</mask>
<g mask="url(#mask0_4755_8533)">
<path d="M74.7333 87.4992C74.2005 87.4992 73.7005 87.3992 73.2333 87.1992C72.7661 86.9992 72.3325 86.6992 71.9325 86.2992L51.2325 65.5008C50.7669 65.1008 50.4501 64.6672 50.2821 64.2C50.1157 63.7328 50.0325 63.2328 50.0325 62.7C50.0325 62.1672 50.1157 61.6672 50.2821 61.2C50.4501 60.7328 50.7669 60.2992 51.2325 59.8992L60.1341 51C60.4669 50.6 60.8669 50.3 61.3341 50.1C61.7997 49.9 62.3325 49.8 62.9325 49.8C63.4669 49.8 63.9509 49.9 64.3845 50.1C64.8165 50.3 65.2661 50.6 65.7333 51L86.5341 71.8008C86.8669 72.1336 87.1501 72.5504 87.3837 73.0512C87.6173 73.5504 87.7341 74.0664 87.7341 74.5992C87.7341 75.1992 87.6341 75.716 87.4341 76.1496C87.2341 76.5832 86.9341 77 86.5341 77.4L77.6325 86.4C77.2325 86.7328 76.7997 86.9992 76.3341 87.1992C75.8669 87.3992 75.3333 87.4992 74.7333 87.4992ZM74.8341 79.6992L79.8333 74.5992L62.8341 57.6L57.8325 62.5992L74.8341 79.6992ZM21.7341 87.4992C21.1997 87.4992 20.6997 87.3992 20.2341 87.1992C19.7669 86.9992 19.3333 86.6992 18.9333 86.2992L10.1325 77.4C9.73253 77.0672 9.43253 76.6672 9.23253 76.2C9.03253 75.7328 8.93253 75.1992 8.93253 74.5992C8.93253 74.0664 9.03253 73.5664 9.23253 73.0992C9.43253 72.6336 9.73253 72.2008 10.1325 71.8008L30.0333 51.7992H39.8325L43.5333 48.1008L27.2325 31.6992H21.5325L8.03253 18.3L18.4341 7.79998L31.9341 21.3V27L48.2325 43.3992L60.2325 31.3992L53.2341 24.4008L57.4341 20.2008H49.0341L46.4325 17.5992L59.7333 4.30078L62.2341 6.89998V15.3L66.4341 11.2008L83.4333 28.0008C84.4333 29.0664 85.2333 30.2664 85.8333 31.6008C86.4333 32.9336 86.7333 34.3664 86.7333 35.8992C86.7333 37.2336 86.4501 38.5672 85.8837 39.9C85.3173 41.2328 84.6005 42.4664 83.7333 43.6008L75.3333 35.2008L69.7341 40.9008L65.0325 36.1008L44.5341 56.5992V66.4008L24.6333 86.2992C24.2333 86.6992 23.7997 86.9992 23.3325 87.1992C22.8669 87.3992 22.3341 87.4992 21.7341 87.4992ZM21.7341 79.6008L39.2325 62.2008V57.1992H34.1325L16.7325 74.5992L21.7341 79.6008ZM21.7341 79.6008L16.7325 74.5992L19.3341 77.1L21.7341 79.6008Z" fill="#154293"/>
</g>
</svg>
