<svg width="97" height="96" viewBox="0 0 97 96" fill="none" xmlns="http://www.w3.org/2000/svg">
<mask id="mask0_4756_8590" style="mask-type:alpha" maskUnits="userSpaceOnUse" x="0" y="0" width="97" height="96">
<rect x="0.666748" width="96" height="96" fill="#D9D9D9"/>
</mask>
<g mask="url(#mask0_4756_8590)">
<path d="M27.566 77.2008L16.2668 74.8008C15.2668 74.6008 14.4668 74.084 13.8668 73.2504C13.2668 72.4168 13.0332 71.4664 13.166 70.3992L14.2676 59.2008L6.86595 50.5992C6.20035 49.8664 5.86755 49 5.86755 48C5.86755 47 6.20035 46.1336 6.86595 45.4008L14.2676 36.9L13.166 25.5C13.0332 24.5 13.2668 23.5832 13.8668 22.7496C14.4668 21.916 15.2668 21.4328 16.2668 21.3L27.566 18.9L33.3668 8.99999C33.8996 8.13279 34.6332 7.51599 35.5676 7.14959C36.5004 6.78319 37.4004 6.79999 38.2676 7.19999L48.6668 11.8992L59.066 7.19999C59.9332 6.79999 60.85 6.78319 61.8164 7.14959C62.7828 7.51599 63.5332 8.09919 64.0676 8.89919L69.866 18.9L81.1676 21.3C82.1004 21.4328 82.8668 21.916 83.4668 22.7496C84.0668 23.5832 84.3004 24.5 84.1676 25.5L83.066 36.9L90.4676 45.4008C91.1332 46.1336 91.466 47 91.466 48C91.466 49 91.1332 49.8664 90.4676 50.5992L83.066 59.2008L84.1676 70.3992C84.3004 71.4664 84.0668 72.4168 83.4668 73.2504C82.8668 74.084 82.1004 74.6008 81.1676 74.8008L69.866 77.2008L64.0676 87.1008C63.5332 87.9008 62.7828 88.484 61.8164 88.8504C60.85 89.2168 59.9332 89.2 59.066 88.8L48.6668 84.1008L38.2676 88.8C37.4004 89.2 36.5004 89.2168 35.5676 88.8504C34.6332 88.484 33.8996 87.8672 33.3668 87L27.566 77.2008ZM41.666 58.9008C42.4004 59.7008 43.3172 60.1008 44.4164 60.1008C45.5172 60.1008 46.4676 59.7008 47.2676 58.9008L64.8668 41.4C65.534 40.7328 65.834 39.9496 65.7668 39.0504C65.6996 38.1496 65.366 37.3664 64.766 36.7008C64.0332 36.0336 63.2004 35.7 62.2676 35.7C61.3332 35.7 60.5332 36.0336 59.8676 36.7008L44.4668 52.0992L37.6676 45.1008C37.0004 44.3664 36.2004 44.016 35.2676 44.0496C34.3332 44.0832 33.5332 44.4664 32.8676 45.1992C32.0676 45.9336 31.6676 46.7504 31.6676 47.6496C31.6676 48.5504 32.0676 49.3672 32.8676 50.1L41.666 58.9008ZM38.066 81.3L48.6668 76.8L59.5676 81.3L65.7668 71.4L77.2676 68.5008L76.166 56.8992L83.8676 48L76.166 39L77.2676 27.1992L65.7668 24.6L59.2676 14.7L48.6668 19.2L37.766 14.7L31.5668 24.6L20.066 27.1992L21.1676 39L13.466 48L21.1676 56.8992L20.066 68.8008L31.5668 71.4L38.066 81.3Z" fill="#154293"/>
</g>
</svg>
