<svg width="96" height="96" viewBox="0 0 96 96" fill="none" xmlns="http://www.w3.org/2000/svg">
<mask id="mask0_4756_8572" style="mask-type:alpha" maskUnits="userSpaceOnUse" x="0" y="0" width="96" height="96">
<rect width="96" height="96" fill="#D9D9D9"/>
</mask>
<g mask="url(#mask0_4756_8572)">
<path d="M48 56.4C50.3328 56.4 52.3496 55.5664 54.0504 53.8992C55.7496 52.2336 56.5992 50.2008 56.5992 47.8008C56.5992 45.4664 55.7496 43.4664 54.0504 41.8008C52.3496 40.1336 50.3328 39.3 48 39.3C45.6672 39.3 43.6504 40.1504 41.9496 41.8512C40.2504 43.5504 39.4008 45.5664 39.4008 47.8992C39.4008 50.2336 40.2504 52.2336 41.9496 53.8992C43.6504 55.5664 45.6672 56.4 48 56.4ZM48 81.1992C51 80.2664 54.0832 78.6336 57.2496 76.3008C60.416 73.9664 62.8664 71.5328 64.6008 69L56.2008 60.7992C55.0008 61.5336 53.7008 62.1168 52.3008 62.5488C50.9008 62.9824 49.4672 63.1992 48 63.1992C43.7328 63.1992 40.116 61.716 37.1496 58.7496C34.1832 55.7832 32.7 52.1664 32.7 47.8992C32.7 43.6336 34.1832 40.0008 37.1496 37.0008C40.116 34.0008 43.7328 32.5008 48 32.5008C52.2 32.5008 55.8 34.0008 58.8 37.0008C61.8 40.0008 63.3 43.6336 63.3 47.8992C63.3 49.2992 63.0832 50.6992 62.6496 52.0992C62.216 53.4992 61.6328 54.7992 60.9 55.9992L68.4 63.1992C69.8672 60.3336 71.0336 57.284 71.8992 54.0504C72.7664 50.8168 73.2 47.5 73.2 44.1V25.3008C73.2 25.0336 73.1336 24.8 73.0008 24.6C72.8664 24.4 72.6664 24.2336 72.4008 24.1008L48.4008 15.3C48.2664 15.2328 48.1328 15.1992 48 15.1992C47.8672 15.1992 47.7336 15.2328 47.5992 15.3L23.5992 24.1008C23.3336 24.2336 23.1336 24.4 22.9992 24.6C22.8664 24.8 22.8 25.0336 22.8 25.3008V44.1C22.8 52.5 25.1504 60.1664 29.8512 67.0992C34.5504 74.0336 40.6 78.7336 48 81.1992ZM48 88.0008C47.7328 88.0008 47.4664 87.9672 47.2008 87.9C46.9336 87.8328 46.7664 87.7664 46.6992 87.7008C37.6992 85.1008 30.3328 79.6672 24.6 71.4C18.8672 63.1328 16.0008 54.0328 16.0008 44.1V25.5C16.0008 23.7672 16.484 22.2176 17.4504 20.8512C18.4168 19.4832 19.6664 18.4992 21.1992 17.8992L45.1992 8.89922C46.1336 8.56642 47.0672 8.40002 48 8.40002C48.9328 8.40002 49.8664 8.56642 50.8008 8.89922L74.8008 17.8992C76.3336 18.4992 77.5832 19.4832 78.5496 20.8512C79.516 22.2176 79.9992 23.7672 79.9992 25.5V44.1C79.9992 54.0328 77.1328 63.1328 71.4 71.4C65.6672 79.6672 58.3336 85.1008 49.3992 87.7008C49.2664 87.7664 49.0664 87.8328 48.7992 87.9C48.5336 87.9672 48.2672 88.0008 48 88.0008Z" fill="#154293"/>
</g>
</svg>
