<svg width="24" height="24" viewBox="0 0 24 24" fill="#FFF" xmlns="http://www.w3.org/2000/svg">
    <mask id="mask0_3041_12247" style="mask-type:alpha" maskUnits="userSpaceOnUse" x="0" y="0" width="24" height="24">
        <rect width="24" height="24" fill="#D9D9D9"/>
    </mask>
    <g mask="url(#mask0_3041_12247)">
        <path  d="M19.2252 20.3748L13.3998 14.55C12.8834 14.9668 12.2752 15.2918 11.5752 15.525C10.8752 15.7582 10.1668 15.8748 9.45 15.8748C7.63319 15.8748 6.0956 15.2498 4.8372 13.9998C3.5792 12.7498 2.9502 11.2166 2.9502 9.4002C2.9502 7.6002 3.5752 6.0752 4.8252 4.8252C6.0752 3.5752 7.6084 2.9502 9.4248 2.9502C11.2248 2.9502 12.754 3.5752 14.0124 4.8252C15.2708 6.0752 15.9 7.6002 15.9 9.4002C15.9 10.1334 15.7876 10.8376 15.5628 11.5128C15.3376 12.1876 15.0084 12.7916 14.5752 13.3248L20.475 19.2C20.6418 19.3668 20.7252 19.5626 20.7252 19.7874C20.7252 20.0126 20.6252 20.2168 20.4252 20.4C20.2584 20.5668 20.0584 20.6502 19.8252 20.6502C19.5916 20.6502 19.3916 20.5584 19.2252 20.3748ZM9.4248 14.175C10.7748 14.175 11.9082 13.7166 12.825 12.7998C13.7418 11.8834 14.2002 10.7502 14.2002 9.4002C14.2002 8.0666 13.7418 6.9374 12.825 6.0126C11.9082 5.0874 10.7748 4.6248 9.4248 4.6248C8.0748 4.6248 6.9416 5.0874 6.0252 6.0126C5.1084 6.9374 4.65 8.0666 4.65 9.4002C4.65 10.7502 5.1084 11.8834 6.0252 12.7998C6.9416 13.7166 8.0748 14.175 9.4248 14.175Z" fill="#1C1B1F"/>
    </g>
</svg>

