<svg width="96" height="96" viewBox="0 0 96 96" fill="none" xmlns="http://www.w3.org/2000/svg">
<mask id="mask0_4885_9158" style="mask-type:alpha" maskUnits="userSpaceOnUse" x="0" y="0" width="96" height="96">
<rect width="96" height="96" fill="#D9D9D9"/>
</mask>
<g mask="url(#mask0_4885_9158)">
<path d="M43.841 52.1283L36.7692 45.036C36.0819 44.3369 35.278 43.9873 34.3576 43.9873C33.4372 43.9873 32.6257 44.3392 31.9229 45.043C31.2203 45.7297 30.8737 46.5431 30.8832 47.4832C30.8928 48.4233 31.2343 49.2212 31.9078 49.8769L40.959 58.8358C41.686 59.6153 42.6062 60.005 43.7196 60.005C44.833 60.005 45.788 59.6153 46.5846 58.8358L64.1461 41.2743C64.8008 40.6262 65.1281 39.8459 65.1281 38.9332C65.1281 38.0205 64.8078 37.2145 64.1671 36.5154C63.4821 35.8607 62.6853 35.5355 61.7769 35.5398C60.8685 35.5441 60.0941 35.8693 59.4539 36.5154L43.841 52.1283ZM48 87.7896C47.6222 87.7896 47.2786 87.7729 46.9692 87.7396C46.6598 87.7063 46.3775 87.6462 46.1221 87.5593C37.3126 84.788 30.0899 79.3259 24.454 71.173C18.8182 63.02 16.0002 53.9828 16.0002 44.0615V25.4411C16.0002 23.7516 16.4847 22.2179 17.4537 20.8401C18.4227 19.4623 19.6818 18.4558 21.2309 17.8207L45.2411 8.84889C46.1317 8.52409 47.0513 8.36169 48 8.36169C48.9488 8.36169 49.8906 8.52409 50.8256 8.84889L74.8358 17.8207C76.3414 18.4354 77.5784 19.4348 78.547 20.8189C79.5156 22.203 79.9998 23.7437 79.9998 25.4411V44.0615C79.9998 53.9828 77.1819 63.02 71.546 71.173C65.9102 79.3259 58.7 84.787 49.9154 87.5562C49.8504 87.5511 49.212 87.6289 48 87.7896ZM48 81.1487C55.33 78.706 61.3693 74.0397 66.1179 67.15C70.8667 60.2603 73.241 52.5625 73.241 44.0568V25.166C73.241 24.9609 73.1898 24.7814 73.0872 24.6275C72.9846 24.4736 72.8436 24.3711 72.6641 24.3198L48.577 15.2872C48.3719 15.2103 48.1796 15.1718 48 15.1718C47.8205 15.1718 47.6282 15.2103 47.423 15.2872L23.3359 24.3198C23.1565 24.3711 23.0154 24.4736 22.9128 24.6275C22.8103 24.7814 22.759 24.9609 22.759 25.166V44.0568C22.759 52.5625 25.1334 60.2603 29.8821 67.15C34.6308 74.0397 40.6701 78.706 48 81.1487Z" fill="#154293"/>
</g>
</svg>
