<svg width="24" height="24" viewBox="0 0 24 24" fill="none" xmlns="http://www.w3.org/2000/svg">
<mask id="mask0_5358_14405" style="mask-type:alpha" maskUnits="userSpaceOnUse" x="0" y="0" width="24" height="24">
<rect width="24" height="24" fill="#D9D9D9"/>
</mask>
<g mask="url(#mask0_5358_14405)">
<path d="M3.9749 19.9996C3.4249 19.9996 2.9541 19.8038 2.5625 19.4122C2.1709 19.0206 1.9751 18.5498 1.9751 17.9998V5.9998C1.9751 5.4498 2.1709 4.979 2.5625 4.5874C2.9541 4.1958 3.4249 4 3.9749 4H20.0249C20.5749 4 21.0457 4.1958 21.4373 4.5874C21.8289 4.979 22.0247 5.4498 22.0247 5.9998V17.9998C22.0247 18.5498 21.8289 19.0206 21.4373 19.4122C21.0457 19.8038 20.5749 19.9996 20.0249 19.9996H3.9749ZM20.3501 7.3L12.5249 12.325C12.4417 12.375 12.3543 12.4124 12.2627 12.4372C12.1707 12.4624 12.0831 12.475 11.9999 12.475C11.9167 12.475 11.8291 12.4624 11.7371 12.4372C11.6455 12.4124 11.5581 12.375 11.4749 12.325L3.6497 7.3V17.9998C3.6497 18.083 3.6789 18.1538 3.7373 18.2122C3.7957 18.2706 3.8749 18.2998 3.9749 18.2998H20.0249C20.1249 18.2998 20.2041 18.2706 20.2625 18.2122C20.3209 18.1538 20.3501 18.083 20.3501 17.9998V7.3ZM11.9999 10.975L20.2751 5.6998H3.7499L11.9999 10.975ZM3.6497 7.3V7.45V6.2746V6.325V5.6998V6.2998V6.2626V7.45V7.3V18.2998V17.9998V7.3Z" fill="white"/>
</g>
</svg>
