<svg width="64" height="64" viewBox="0 0 64 64" fill="none" xmlns="http://www.w3.org/2000/svg">
<mask id="mask0_5358_14336" style="mask-type:alpha" maskUnits="userSpaceOnUse" x="0" y="0" width="64" height="64">
<rect width="64" height="64" fill="#D9D9D9"/>
</mask>
<g mask="url(#mask0_5358_14336)">
<path d="M23.2681 54.0674H40.8009C40.979 54.0674 41.1347 54.012 41.2681 53.901C41.4014 53.789 41.5123 53.6445 41.6009 53.4674L44.5337 41.6674H19.4681L22.4681 53.4674C22.5118 53.6445 22.6115 53.789 22.7673 53.901C22.923 54.012 23.0899 54.0674 23.2681 54.0674ZM23.2681 58.6002C22.0233 58.6002 20.923 58.2445 19.9673 57.533C19.0115 56.8226 18.3785 55.8674 18.0681 54.6674L14.8009 41.6674H49.2681L45.9337 54.6674C45.6233 55.8226 44.979 56.7672 44.0009 57.501C43.0227 58.2338 41.9561 58.6002 40.8009 58.6002H23.2681ZM14.6009 37.133H49.4681C49.7347 37.133 49.9347 37.0552 50.0681 36.8994C50.2014 36.7448 50.2681 36.556 50.2681 36.333V32.2002H13.8009V36.333C13.8009 36.556 13.8787 36.7448 14.0345 36.8994C14.1902 37.0552 14.379 37.133 14.6009 37.133ZM18.2681 6.46744C21.8681 7.17784 25.0014 9.01091 27.6681 11.9666C30.3347 14.9224 31.779 18.2445 32.0009 21.933C32.2675 18.2445 33.723 14.9336 36.3673 12.0002C39.0115 9.06691 42.1337 7.22264 45.7337 6.46744C46.3118 6.37784 46.7678 6.51117 47.1017 6.86744C47.4345 7.22264 47.5566 7.66691 47.4681 8.20024C46.8451 11.4888 45.2782 14.4109 42.7673 16.9666C40.2563 19.5224 37.4233 21.0893 34.2681 21.6674V27.733H52.1337C52.8451 27.733 53.4675 27.9885 54.0009 28.4994C54.5342 29.0114 54.8009 29.645 54.8009 30.4002V36.333C54.8009 37.7997 54.2899 39.0552 53.2681 40.0994C52.2451 41.1448 51.1118 41.6674 49.8681 41.6674H14.2681C12.9785 41.6674 11.8227 41.1448 10.8009 40.0994C9.779 39.0552 9.26807 37.7997 9.26807 36.333V30.4002C9.26807 29.645 9.53473 29.0114 10.0681 28.4994C10.6014 27.9885 11.2233 27.733 11.9337 27.733H29.8009V21.6674C26.6009 21.0893 23.7566 19.5224 21.2681 16.9666C18.7785 14.4109 17.2003 11.4888 16.5337 8.20024C16.4451 7.66691 16.5673 7.22264 16.9001 6.86744C17.2339 6.51117 17.6899 6.37784 18.2681 6.46744Z" fill="#01893D"/>
</g>
</svg>
