<svg width="64" height="64" viewBox="0 0 64 64" fill="none" xmlns="http://www.w3.org/2000/svg">
<mask id="mask0_5358_14361" style="mask-type:alpha" maskUnits="userSpaceOnUse" x="0" y="0" width="64" height="64">
<rect width="64" height="64" fill="#D9D9D9"/>
</mask>
<g mask="url(#mask0_5358_14361)">
<path d="M20.8665 23.5326C21.5769 23.5326 22.1988 23.2553 22.7321 22.7006C23.2655 22.1449 23.5321 21.5337 23.5321 20.867C23.5321 20.1556 23.2655 19.5332 22.7321 18.9998C22.1988 18.4665 21.5769 18.1998 20.8665 18.1998C20.1551 18.1998 19.5327 18.4665 18.9993 18.9998C18.466 19.5332 18.1993 20.1332 18.1993 20.7998C18.1993 21.5113 18.466 22.1449 18.9993 22.7006C19.5327 23.2553 20.1551 23.5326 20.8665 23.5326ZM20.8665 34.667C21.5769 34.667 22.1988 34.4004 22.7321 33.867C23.2655 33.3337 23.5321 32.7113 23.5321 31.9998C23.5321 31.2884 23.2655 30.666 22.7321 30.1326C22.1988 29.5993 21.5769 29.3326 20.8665 29.3326C20.1551 29.3326 19.5327 29.5993 18.9993 30.1326C18.466 30.666 18.1993 31.2884 18.1993 31.9998C18.1993 32.7113 18.466 33.3337 18.9993 33.867C19.5327 34.4004 20.1551 34.667 20.8665 34.667ZM20.8665 45.7998C21.5769 45.7998 22.1988 45.5331 22.7321 44.9998C23.2655 44.4665 23.5321 43.8441 23.5321 43.1326C23.5321 42.4222 23.2655 41.8004 22.7321 41.267C22.1988 40.7337 21.5769 40.467 20.8665 40.467C20.1551 40.467 19.5327 40.7337 18.9993 41.267C18.466 41.8004 18.1993 42.4222 18.1993 43.1326C18.1993 43.8441 18.466 44.4665 18.9993 44.9998C19.5327 45.5331 20.1551 45.7998 20.8665 45.7998ZM13.2665 56.067C11.7999 56.067 10.5444 55.5443 9.50013 54.499C8.4548 53.4548 7.93213 52.1993 7.93213 50.7326V13.267C7.93213 11.8003 8.4548 10.5449 9.50013 9.50062C10.5444 8.45528 11.7999 7.93262 13.2665 7.93262H42.7993L56.0665 21.1998V50.7326C56.0665 52.1993 55.5439 53.4548 54.4985 54.499C53.4543 55.5443 52.1988 56.067 50.7321 56.067H13.2665ZM13.2665 51.5998H50.7321C50.9988 51.5998 51.21 51.5219 51.3657 51.3662C51.5215 51.2105 51.5993 50.9993 51.5993 50.7326V23.5998H43.0665C42.3103 23.5998 41.6767 23.3443 41.1657 22.8334C40.6548 22.3225 40.3993 21.6889 40.3993 20.9326V12.3998H13.2665C12.9999 12.3998 12.7887 12.4777 12.6329 12.6334C12.4772 12.7892 12.3993 13.0003 12.3993 13.267V50.7326C12.3993 50.9993 12.4772 51.2105 12.6329 51.3662C12.7887 51.5219 12.9999 51.5998 13.2665 51.5998Z" fill="#01893D"/>
</g>
</svg>
