<svg width="64" height="64" viewBox="0 0 64 64" fill="none" xmlns="http://www.w3.org/2000/svg">
<mask id="mask0_5358_14377" style="mask-type:alpha" maskUnits="userSpaceOnUse" x="0" y="0" width="64" height="64">
<rect width="64" height="64" fill="#01893D"/>
</mask>
<g mask="url(#mask0_5358_14377)">
<path d="M19.1327 27.5322C19.489 27.9322 19.9002 28.121 20.3663 28.0986C20.8335 28.0773 21.2447 27.8885 21.5999 27.5322L23.3327 25.8666L24.9999 27.5322C25.3114 27.8437 25.7338 28.0106 26.2671 28.033C26.8004 28.0554 27.2447 27.8666 27.5999 27.4666C27.9114 27.1103 28.0778 26.6991 28.0991 26.233C28.1215 25.7658 27.9551 25.3322 27.5999 24.9322L25.1999 22.5322C24.9332 22.2655 24.6335 22.0655 24.3007 21.9322C23.9668 21.7989 23.6442 21.7322 23.3327 21.7322C23.0223 21.7322 22.7002 21.7989 22.3663 21.9322C22.0335 22.0655 21.7556 22.2655 21.5327 22.5322L19.0671 24.9322C18.7108 25.2885 18.5327 25.7109 18.5327 26.1994C18.5327 26.6879 18.7327 27.1322 19.1327 27.5322ZM36.5327 27.4666C36.8442 27.8218 37.2442 28.0106 37.7327 28.033C38.2223 28.0554 38.6447 27.8885 38.9999 27.5322L40.6671 25.8666L42.4671 27.5322C42.7775 27.8885 43.1882 28.0666 43.6991 28.0666C44.2111 28.0666 44.6447 27.8666 44.9999 27.4666C45.3114 27.1103 45.4671 26.6991 45.4671 26.233C45.4671 25.7658 45.3114 25.3322 44.9999 24.9322L42.5999 22.5322C42.2884 22.2655 41.9775 22.0655 41.6671 21.9322C41.3556 21.7989 41.0223 21.7322 40.6671 21.7322C40.3556 21.7322 40.033 21.7989 39.6991 21.9322C39.3663 22.0655 39.089 22.2655 38.8671 22.5322L36.4671 24.9322C36.1556 25.2885 35.9999 25.7109 35.9999 26.1994C35.9999 26.6879 36.1775 27.1103 36.5327 27.4666ZM31.9999 58.7322C28.3114 58.7322 24.8447 58.0325 21.5999 56.633C18.3551 55.2325 15.522 53.321 13.1007 50.8986C10.6783 48.4773 8.76682 45.6442 7.36629 42.3994C5.96682 39.1546 5.26709 35.6879 5.26709 31.9994C5.26709 28.3109 5.96682 24.833 7.36629 21.5658C8.76682 18.2997 10.6783 15.4554 13.1007 13.033C15.522 10.6106 18.3551 8.71034 21.5999 7.3322C24.8447 5.95514 28.3114 5.2666 31.9999 5.2666C35.6884 5.2666 39.1663 5.95514 42.4335 7.3322C45.6996 8.71034 48.5439 10.6106 50.9663 13.033C53.3887 15.4554 55.289 18.2997 56.6671 21.5658C58.0442 24.833 58.7327 28.3109 58.7327 31.9994C58.7327 35.7327 58.0442 39.2106 56.6671 42.433C55.289 45.6554 53.3887 48.4666 50.9663 50.8666C48.5439 53.2666 45.6996 55.1775 42.4335 56.5994C39.1663 58.0213 35.6884 58.7322 31.9999 58.7322ZM31.9999 54.2666C38.178 54.2666 43.4335 52.0997 47.7663 47.7658C52.1002 43.433 54.2671 38.1775 54.2671 31.9994C54.2671 25.8213 52.1002 20.5658 47.7663 16.233C43.4335 11.8991 38.178 9.7322 31.9999 9.7322C25.8218 9.7322 20.5663 11.8991 16.2335 16.233C11.8996 20.5658 9.73269 25.8213 9.73269 31.9994C9.73269 38.1775 11.8996 43.433 16.2335 47.7658C20.5663 52.0997 25.8218 54.2666 31.9999 54.2666ZM31.9999 46.7322C34.3999 46.7322 36.6554 46.1989 38.7663 45.1322C40.8772 44.0655 42.6218 42.5546 43.9999 40.5994C44.5332 39.8442 44.5999 39.1663 44.1999 38.5658C43.7999 37.9663 43.1332 37.6666 42.1999 37.6666H21.7999C20.8666 37.6666 20.1999 37.9663 19.7999 38.5658C19.3999 39.1663 19.4666 39.8442 19.9999 40.5994C21.4218 42.5546 23.1775 44.0655 25.2671 45.1322C27.3556 46.1989 29.5999 46.7322 31.9999 46.7322Z" fill="#01893D"/>
</g>
</svg>
