<svg width="24" height="25" viewBox="0 0 24 25" fill="none" xmlns="http://www.w3.org/2000/svg">
<g clip-path="url(#clip0_5604_19027)">
<path d="M12 24.0078C18.6274 24.0078 24 18.6352 24 12.0078C24 5.3804 18.6274 0.0078125 12 0.0078125C5.37258 0.0078125 0 5.3804 0 12.0078C0 18.6352 5.37258 24.0078 12 24.0078Z" fill="#3C5A9A"/>
<path d="M15.9024 3.69141H13.2441C11.6665 3.69141 9.91189 4.35489 9.91189 6.64157C9.91959 7.43834 9.91189 8.20141 9.91189 9.06019H8.08691V11.9643H9.96837V20.3246H13.4256V11.9091H15.7075L15.914 9.05204H13.3661C13.3661 9.05204 13.3718 7.7811 13.3661 7.41202C13.3661 6.50837 14.3063 6.56012 14.3629 6.56012C14.8103 6.56012 15.6803 6.56142 15.9037 6.56012V3.69141H15.9024Z" fill="white"/>
</g>
<defs>
<clipPath id="clip0_5604_19027">
<rect width="24" height="24" fill="white" transform="translate(0 0.0078125)"/>
</clipPath>
</defs>
</svg>
