<svg width="24" height="24" viewBox="0 0 24 24" fill="none" xmlns="http://www.w3.org/2000/svg">
<mask id="mask0_5368_15508" style="mask-type:alpha" maskUnits="userSpaceOnUse" x="0" y="0" width="24" height="24">
<rect width="24" height="24" fill="#D9D9D9"/>
</mask>
<g mask="url(#mask0_5368_15508)">
<path d="M12.0004 22.0252C10.6172 22.0252 9.31299 21.7628 8.08779 21.238C6.86299 20.7128 5.79639 20.0002 4.88799 19.1002C3.97959 18.2002 3.26699 17.1378 2.75019 15.913C2.23379 14.6878 1.97559 13.3752 1.97559 11.9752C1.97559 10.592 2.23379 9.28799 2.75019 8.06319C3.26699 6.83799 3.97959 5.77539 4.88799 4.87539C5.79639 3.97539 6.86299 3.26699 8.08779 2.75019C9.31299 2.23379 10.6172 1.97559 12.0004 1.97559C13.3836 1.97559 14.6878 2.23379 15.913 2.75019C17.1378 3.26699 18.2044 3.97539 19.1128 4.87539C20.0212 5.77539 20.7338 6.83799 21.2506 8.06319C21.767 9.28799 22.0252 10.592 22.0252 11.9752C22.0252 13.3752 21.767 14.6878 21.2506 15.913C20.7338 17.1378 20.0212 18.2002 19.1128 19.1002C18.2044 20.0002 17.1378 20.7128 15.913 21.238C14.6878 21.7628 13.3836 22.0252 12.0004 22.0252ZM12.0004 20.3506C12.5672 19.6838 13.0338 18.9754 13.4002 18.2254C13.767 17.4754 14.0754 16.6254 14.3254 15.6754H9.67539C9.92539 16.6254 10.238 17.4838 10.6132 18.2506C10.988 19.017 11.4504 19.717 12.0004 20.3506ZM10.1254 20.0752C9.70859 19.5252 9.33359 18.8712 9.00039 18.1132C8.66719 17.3548 8.40059 16.5422 8.20059 15.6754H4.50039C5.06719 16.8422 5.82139 17.788 6.76299 18.5128C7.70459 19.238 8.82539 19.7588 10.1254 20.0752ZM13.8754 20.0752C15.0754 19.8088 16.1754 19.288 17.1754 18.5128C18.1754 17.738 18.9588 16.7922 19.5256 15.6754H15.8254C15.5922 16.5422 15.3088 17.3548 14.9752 18.1132C14.642 18.8712 14.2754 19.5252 13.8754 20.0752ZM3.97539 14.2504H7.95039C7.88359 13.8504 7.84199 13.4628 7.82559 13.0876C7.80879 12.7128 7.80039 12.342 7.80039 11.9752C7.80039 11.592 7.80879 11.217 7.82559 10.8502C7.84199 10.4838 7.88359 10.1172 7.95039 9.75039H3.97539C3.85859 10.0836 3.77519 10.4336 3.72519 10.8004C3.67519 11.1672 3.65019 11.5588 3.65019 11.9752C3.65019 12.392 3.67519 12.788 3.72519 13.1632C3.77519 13.538 3.85859 13.9004 3.97539 14.2504ZM9.40059 14.2504H14.6254C14.6922 13.8172 14.738 13.4214 14.7628 13.063C14.788 12.7046 14.8006 12.342 14.8006 11.9752C14.8006 11.6088 14.788 11.2548 14.7628 10.9132C14.738 10.5712 14.6922 10.1836 14.6254 9.75039H9.40059C9.31699 10.1836 9.26279 10.5712 9.23799 10.9132C9.21279 11.2548 9.20019 11.6088 9.20019 11.9752C9.20019 12.342 9.21279 12.7046 9.23799 13.063C9.26279 13.4214 9.31699 13.8172 9.40059 14.2504ZM16.0756 14.2504H20.0506C20.1506 13.9004 20.2256 13.538 20.2756 13.1632C20.3256 12.788 20.3506 12.392 20.3506 11.9752C20.3506 11.5588 20.3256 11.1672 20.2756 10.8004C20.2256 10.4336 20.1506 10.0836 20.0506 9.75039H16.0756C16.1256 10.2172 16.163 10.6256 16.1878 10.9756C16.213 11.3256 16.2256 11.6588 16.2256 11.9752C16.2256 12.342 16.213 12.7046 16.1878 13.063C16.163 13.4214 16.1256 13.8172 16.0756 14.2504ZM15.8002 8.32539H19.5256C18.9588 7.15859 18.188 6.19199 17.2132 5.42559C16.238 4.65879 15.1254 4.15039 13.8754 3.90039C14.2922 4.48359 14.663 5.14619 14.9878 5.88819C15.313 6.62979 15.5838 7.44219 15.8002 8.32539ZM9.67539 8.32539H14.3506C14.117 7.45859 13.8044 6.62519 13.4128 5.82519C13.0212 5.02519 12.5504 4.27519 12.0004 3.57519C11.4836 4.19199 11.042 4.87119 10.6756 5.61279C10.3088 6.35439 9.97539 7.25859 9.67539 8.32539ZM4.50039 8.32539H8.22519C8.42519 7.45859 8.68359 6.65859 9.00039 5.92539C9.31719 5.19219 9.69219 4.51719 10.1254 3.90039C8.85859 4.16719 7.74199 4.67559 6.77559 5.42559C5.80879 6.17559 5.05039 7.14219 4.50039 8.32539Z" fill="white"/>
</g>
</svg>
