<svg width="24" height="24" viewBox="0 0 24 24" fill="none" xmlns="http://www.w3.org/2000/svg">
<g clip-path="url(#clip0_5368_15545)">
<path d="M24 10.3081C24 4.93809 18.6169 0.569336 12 0.569336C5.38312 0.569336 0 4.93846 0 10.3081C0 15.122 4.269 19.1536 10.0357 19.9156C10.4265 20 10.9583 20.1736 11.0933 20.5073C11.214 20.8111 11.172 21.2858 11.1319 21.5926L10.9605 22.6201C10.908 22.9238 10.7194 23.8066 12 23.267C13.2806 22.7273 18.9105 19.1975 21.4286 16.2995H21.4282C23.1675 14.393 24 12.4572 24 10.3081Z" fill="white"/>
<path d="M9.56183 7.71341H8.71995C8.59095 7.71341 8.48633 7.81841 8.48633 7.94704V13.1757C8.48633 13.2063 8.49238 13.2366 8.50413 13.2649C8.51589 13.2932 8.53311 13.3189 8.55482 13.3405C8.57653 13.3621 8.6023 13.3792 8.63063 13.3908C8.65897 13.4024 8.68933 13.4083 8.71995 13.4082H9.56183C9.59246 13.4083 9.62281 13.4024 9.65115 13.3908C9.67949 13.3792 9.70525 13.3621 9.72696 13.3405C9.74867 13.3189 9.76589 13.2932 9.77765 13.2649C9.7894 13.2366 9.79545 13.2063 9.79545 13.1757V7.95041C9.79545 7.82179 9.69045 7.71679 9.56183 7.71679M15.3556 7.71304H14.5141C14.3847 7.71304 14.2801 7.81804 14.2801 7.94666V11.0532L11.8801 7.81691C11.8748 7.80866 11.8688 7.80079 11.8621 7.79329L11.8606 7.79179C11.8562 7.78673 11.8514 7.78196 11.8463 7.77754L11.8298 7.76254C11.8276 7.76104 11.8261 7.75954 11.8238 7.75804L11.8118 7.74979L11.8043 7.74529L11.792 7.73779C11.7897 7.73704 11.7867 7.73554 11.7845 7.73404C11.78 7.73179 11.7758 7.72954 11.771 7.72804C11.7661 7.72654 11.7657 7.72579 11.7635 7.72579C11.759 7.72354 11.7541 7.72279 11.7496 7.72129L11.7413 7.71904C11.7368 7.71829 11.7327 7.71679 11.7282 7.71604L11.7185 7.71454C11.7155 7.71379 11.7102 7.71304 11.7061 7.71304L11.6941 7.71229C11.6911 7.71229 11.6888 7.71191 11.6858 7.71191H10.8443C10.7153 7.71191 10.6107 7.81691 10.6107 7.94554V13.1742C10.6107 13.2048 10.6168 13.2351 10.6285 13.2634C10.6403 13.2917 10.6575 13.3174 10.6792 13.339C10.7009 13.3606 10.7267 13.3777 10.755 13.3893C10.7833 13.4009 10.8137 13.4068 10.8443 13.4067H11.6858C11.8148 13.4067 11.9198 13.3024 11.9198 13.1742V10.0692L14.3187 13.3092C14.3349 13.3318 14.355 13.3513 14.378 13.3669C14.3847 13.3722 14.39 13.3752 14.3948 13.3782C14.3971 13.3797 14.3993 13.3812 14.4016 13.3819C14.4038 13.3827 14.4091 13.3857 14.4128 13.3872C14.4166 13.3887 14.4203 13.3902 14.4241 13.3924L14.4466 13.4007C14.4671 13.4063 14.4883 13.4091 14.5096 13.4089H15.3511C15.3817 13.4091 15.4121 13.4032 15.4404 13.3915C15.4687 13.3799 15.4945 13.3628 15.5162 13.3412C15.5379 13.3196 15.5551 13.2939 15.5669 13.2656C15.5787 13.2374 15.5847 13.207 15.5847 13.1764V7.95041C15.5847 7.82179 15.4797 7.71679 15.3511 7.71679" fill="#01893D"/>
<path d="M7.53277 12.0994H5.24527V7.95042C5.24527 7.82142 5.14027 7.7168 5.01165 7.7168H4.17015C4.04115 7.7168 3.93652 7.8218 3.93652 7.95042V13.1787C3.93649 13.239 3.95989 13.2969 4.00177 13.3403C4.00627 13.3448 4.00702 13.3463 4.00777 13.347C4.05015 13.3872 4.10677 13.4123 4.16902 13.4123H7.53202C7.66102 13.4123 7.76565 13.3073 7.76565 13.1787V12.3368C7.76565 12.2078 7.6614 12.1032 7.53202 12.1032M20.0038 9.02292C20.1328 9.02292 20.2374 8.91792 20.2374 8.7893V7.95042C20.2374 7.82142 20.1332 7.7168 20.0038 7.7168H16.6408C16.5778 7.7168 16.5208 7.74192 16.4788 7.7828C16.4743 7.78655 16.4728 7.78805 16.472 7.78955C16.4319 7.82705 16.4072 7.8878 16.4072 7.9508V13.1794C16.4071 13.2397 16.4305 13.2977 16.4724 13.341L16.4784 13.347C16.5218 13.3889 16.5797 13.4123 16.64 13.4123H20.003C20.132 13.4123 20.2367 13.3073 20.2367 13.1787V12.3364C20.2367 12.2074 20.1324 12.1028 20.003 12.1028H17.7163V11.2189H20.003C20.0337 11.2191 20.0642 11.2131 20.0926 11.2014C20.121 11.1898 20.1468 11.1726 20.1686 11.1508C20.1903 11.1291 20.2075 11.1033 20.2192 11.0749C20.2309 11.0465 20.2368 11.016 20.2367 10.9853V10.1404C20.2367 10.0114 20.1324 9.90642 20.003 9.90642H17.7163V9.02292H20.003H20.0038Z" fill="#01893D"/>
</g>
<defs>
<clipPath id="clip0_5368_15545">
<rect width="24" height="24" fill="white"/>
</clipPath>
</defs>
</svg>
