<svg width="120" height="94" viewBox="0 0 120 94" fill="none" xmlns="http://www.w3.org/2000/svg">
<path d="M35.7403 85.6068L75.3888 33.1662C81.9894 24.4344 80.2628 12.0065 71.531 5.40595C62.7991 -1.19464 50.3713 0.531945 43.7707 9.26379L4.12666 61.7043C-2.47394 70.4362 -0.747352 82.864 7.9845 89.4646C16.7118 96.0607 29.1397 94.3341 35.7403 85.6068Z" fill="#B1B1B1"/>
<path d="M84.3191 85.6062L44.0231 32.3068C37.4225 23.575 39.1491 11.1472 47.881 4.54658C56.6128 -2.05402 69.0407 -0.32743 75.6413 8.40442L115.937 61.7038C122.538 70.4356 120.811 82.8634 112.079 89.464C103.348 96.0646 90.9197 94.338 84.3191 85.6062Z" fill="white"/>
</svg>
