<svg width="72" height="65" viewBox="0 0 72 65" fill="none" xmlns="http://www.w3.org/2000/svg">
<path d="M23.8537 42.5369L43.6787 16.3156C46.9791 11.9495 46.1158 5.7354 41.7497 2.43498C37.3836 -0.865435 31.1695 -0.00211003 27.8691 4.36398L8.04631 30.5852C4.74589 34.9513 5.60922 41.1654 9.9753 44.4659C14.3391 47.764 20.5533 46.9007 23.8537 42.5369Z" fill="#01893D"/>
<path d="M48.1443 42.5366L27.9955 15.8859C24.6951 11.5199 25.5584 5.30572 29.9245 2.0053C34.2906 -1.29512 40.5048 -0.431798 43.8052 3.93429L63.9539 30.5849C67.2543 34.951 66.391 41.1652 62.0249 44.4656C57.6588 47.766 51.4447 46.9027 48.1443 42.5366Z" fill="#154293"/>
<path d="M12.2327 62.9477L6.83239 55.0518C6.13768 54.0356 6.39848 52.6485 7.41468 51.9515C8.43089 51.2568 9.81805 51.5176 10.515 52.5338L15.9153 60.4296C16.61 61.4459 16.3492 62.833 15.333 63.53C14.3145 64.2247 12.9274 63.9639 12.2327 62.9477Z" fill="#363636"/>
<path d="M5.05182 62.9379L10.4521 55.0421C11.1468 54.0259 10.886 52.6387 9.8698 51.9418C8.8536 51.2471 7.46643 51.5079 6.76948 52.5241L1.37145 60.4199C0.676742 61.4361 0.937538 62.8233 1.95374 63.5202C2.96995 64.2149 4.35711 63.9564 5.05182 62.9379Z" fill="#363636"/>
<path d="M30.7598 57.9844C30.798 56.3095 31.0768 55.0055 31.8614 53.8499C32.8259 52.429 34.1906 51.6488 35.8723 51.3948C37.0279 51.2194 38.1655 51.2914 39.2671 51.6871C41.3085 52.4245 42.5158 53.9061 42.9857 55.9992C43.3005 57.4111 43.233 58.8095 42.7339 60.1787C42.1066 61.8918 40.9308 63.0542 39.2019 63.623C37.5225 64.1738 35.8408 64.1378 34.2063 63.4296C32.4819 62.681 31.459 61.3343 31.0138 59.5379C30.8632 58.9332 30.8115 58.3081 30.7598 57.9844ZM39.4807 57.7686C39.4222 57.229 39.3998 56.7883 39.3233 56.3567C39.1165 55.1696 38.2217 54.1961 36.7558 54.295C35.7464 54.3625 35.0337 54.9088 34.7504 55.8778C34.4491 56.9142 34.4199 57.9619 34.6222 59.0163C34.8561 60.2349 35.5665 60.8914 36.7356 60.997C37.9721 61.1072 38.9636 60.4395 39.2469 59.2591C39.3728 58.7398 39.4155 58.2025 39.4807 57.7686Z" fill="#363636"/>
<path d="M45.8628 59.755C45.8628 58.6893 45.8538 57.6214 45.865 56.5557C45.8763 55.5418 46.0741 54.5683 46.6452 53.7095C47.3669 52.6213 48.3808 51.9334 49.6331 51.5736C50.9775 51.1869 52.322 51.1937 53.6394 51.6321C55.5887 52.2818 56.8207 53.5926 57.1332 55.6699C57.1917 56.0521 57.2142 56.4411 57.2164 56.8278C57.2231 58.9007 57.2209 60.9735 57.2209 63.0464C57.2209 63.568 57.095 63.6939 56.5734 63.6917C55.7753 63.6872 54.9772 63.6849 54.1813 63.6849C53.6237 63.6849 53.4753 63.5388 53.4753 62.9857C53.4753 61.0252 53.4776 59.0625 53.4731 57.1021C53.4731 56.6097 53.4439 56.1173 53.2415 55.6564C52.6075 54.2153 50.8291 54.2446 50.1277 55.1596C49.786 55.607 49.6623 56.1421 49.6218 56.6861C49.5859 57.1763 49.6016 57.6686 49.6016 58.161C49.6016 59.7483 49.6039 61.3378 49.6039 62.925C49.6039 63.5748 49.4847 63.6917 48.8327 63.6917C48.0346 63.6894 47.2365 63.6894 46.4383 63.6827C45.9864 63.6804 45.8673 63.5613 45.865 63.1094C45.8583 61.992 45.8605 60.8746 45.8628 59.755Z" fill="#363636"/>
<path d="M68.7746 54.892C68.298 54.892 67.8191 54.9032 67.3447 54.883C67.2098 54.8762 67.0569 54.8043 66.9535 54.7144C66.1756 54.0332 65.2898 53.9949 64.3545 54.2602C64.0982 54.3322 63.8981 54.5008 63.8757 54.7908C63.8532 55.0741 64.0128 55.2697 64.2354 55.4181C64.7367 55.7531 65.3123 55.8745 65.8856 56.0071C66.7624 56.2094 67.6505 56.3781 68.5025 56.6524C69.0084 56.8165 69.503 57.0998 69.9212 57.4302C70.8632 58.1767 71.1442 59.2019 70.9689 60.3709C70.7193 62.0369 69.6896 63.0126 68.1653 63.5612C67.4571 63.8153 66.7242 63.9614 65.98 63.9816C64.6625 64.0176 63.3676 63.8962 62.1513 63.2982C60.8922 62.6799 60.1885 61.6772 59.948 60.317C59.8311 59.656 59.9188 59.5436 60.5842 59.5436C61.3217 59.5436 62.0613 59.5458 62.7988 59.5436C63.0213 59.5436 63.2057 59.6065 63.2686 59.8381C63.4777 60.598 63.9926 60.978 64.7547 61.0881C65.3662 61.1758 65.9688 61.1871 66.5713 61.0274C66.9445 60.9285 67.1941 60.7284 67.2368 60.317C67.2795 59.9168 67.0704 59.6403 66.7534 59.4829C66.4049 59.3098 66.025 59.1861 65.6473 59.0895C64.4759 58.7882 63.2596 58.6443 62.1535 58.107C61.2879 57.6843 60.5707 57.111 60.2627 56.16C59.9098 55.0763 60.1436 53.6172 61.1935 52.6865C61.9377 52.0277 62.81 51.659 63.7677 51.4747C65.2224 51.1914 66.6612 51.2094 68.0461 51.8029C68.9949 52.2098 69.7885 52.8079 70.2742 53.7454C70.3753 53.9432 70.454 54.1546 70.5192 54.3659C70.6159 54.6784 70.4877 54.8717 70.164 54.883C69.7031 54.8987 69.24 54.8875 68.7768 54.8875C68.7746 54.8875 68.7746 54.8897 68.7746 54.892Z" fill="#363636"/>
<path d="M27.4548 63.6486C27.0749 63.6486 26.6927 63.6351 26.315 63.6531C25.926 63.6711 25.6473 63.5182 25.4269 63.2034C24.8311 62.3468 24.2264 61.497 23.6261 60.6427C23.4822 60.4381 23.4755 60.4336 23.3271 60.6449C22.7178 61.5015 22.1085 62.3581 21.5037 63.2169C21.2947 63.5137 21.0429 63.6666 20.6607 63.6553C19.8715 63.6328 19.0801 63.6463 18.2888 63.6486C18.0235 63.6486 17.7604 63.6171 17.6345 63.3586C17.5086 63.0978 17.5378 62.8167 17.7042 62.5694C17.9156 62.2547 18.1381 61.9444 18.3562 61.6342C19.3072 60.2807 20.2582 58.9273 21.216 57.5761C21.3059 57.4479 21.3216 57.367 21.2227 57.2276C20.184 55.7617 19.1543 54.2914 18.1269 52.8188C18.0482 52.7041 17.9718 52.576 17.9425 52.4411C17.8436 51.978 18.0437 51.6857 18.5181 51.6587C19.1274 51.625 19.7389 51.6407 20.3504 51.6385C20.6112 51.6385 20.872 51.6497 21.1328 51.6475C21.4273 51.6475 21.6431 51.7846 21.8073 52.0184C22.2457 52.6389 22.6818 53.2617 23.1247 53.88C23.2304 54.0284 23.3608 54.161 23.48 54.3004C23.5879 54.1655 23.7025 54.0373 23.8015 53.898C24.2264 53.3044 24.6558 52.7131 25.0672 52.1106C25.2785 51.8026 25.5483 51.6362 25.9238 51.6385C26.7444 51.6452 27.565 51.6295 28.3834 51.6542C28.9702 51.6722 29.2175 52.2095 28.8915 52.7064C28.6981 52.9987 28.4958 53.2842 28.2934 53.5697C27.4211 54.8062 26.5511 56.0428 25.6742 57.2748C25.5978 57.3827 25.6338 57.4367 25.6945 57.5244C26.8523 59.1701 28.0079 60.818 29.159 62.4683C29.2512 62.5987 29.3344 62.7538 29.3636 62.9067C29.4468 63.3451 29.195 63.6351 28.7498 63.6396C28.3204 63.6508 27.8888 63.6486 27.4548 63.6486Z" fill="#363636"/>
</svg>
