<svg width="22" height="28" viewBox="0 0 22 28" fill="none" xmlns="http://www.w3.org/2000/svg">
<path d="M1.4002 23.1998C1.08927 23.1998 0.822601 23.0886 0.600201 22.8662C0.377801 22.6443 0.266602 22.3777 0.266602 22.0662C0.266602 21.7553 0.377801 21.4886 0.600201 21.2662C0.822601 21.0443 1.08927 20.9334 1.4002 20.9334H3.0338V11.3998C3.0338 9.5998 3.58927 7.96087 4.7002 6.483C5.81113 5.00514 7.2778 4.04407 9.1002 3.5998V2.6662C9.1002 2.13287 9.2834 1.6886 9.6498 1.3334C10.0167 0.977671 10.4669 0.799805 11.0002 0.799805C11.5335 0.799805 11.9837 0.977671 12.3506 1.3334C12.717 1.6886 12.9002 2.13287 12.9002 2.6662V3.5998C14.7226 4.04407 16.1949 5.00514 17.317 6.483C18.4391 7.96087 19.0002 9.5998 19.0002 11.3998V20.9334H20.6338C20.9223 20.9334 21.1778 21.0443 21.4002 21.2662C21.6226 21.4886 21.7338 21.7553 21.7338 22.0662C21.7338 22.3777 21.6226 22.6443 21.4002 22.8662C21.1778 23.0886 20.9223 23.1998 20.6338 23.1998H1.4002ZM11.0002 27.6662C10.2893 27.6662 9.66713 27.4051 9.1338 26.883C8.60047 26.3609 8.3338 25.7219 8.3338 24.9662H13.6666C13.6666 25.7219 13.4111 26.3609 12.9002 26.883C12.3893 27.4051 11.7559 27.6662 11.0002 27.6662ZM5.2666 20.9334H16.7666V11.3998C16.7666 9.7998 16.2111 8.44434 15.1002 7.3334C13.9893 6.22194 12.6338 5.6662 11.0338 5.6662C9.4338 5.6662 8.07247 6.22194 6.9498 7.3334C5.82767 8.44434 5.2666 9.7998 5.2666 11.3998V20.9334Z" fill="#01893D"/>
</svg>
