<svg width="40" height="40" viewBox="0 0 40 40" fill="none" xmlns="http://www.w3.org/2000/svg">
<mask id="mask0_5669_664" style="mask-type:alpha" maskUnits="userSpaceOnUse" x="0" y="0" width="40" height="40">
<rect width="40" height="40" fill="#D9D9D9"/>
</mask>
<g mask="url(#mask0_5669_664)">
<path d="M6.4002 25.1998C6.08927 25.1998 5.8226 25.0886 5.6002 24.8662C5.3778 24.6443 5.2666 24.3777 5.2666 24.0662C5.2666 23.7553 5.3778 23.4886 5.6002 23.2662C5.8226 23.0443 6.08927 22.9334 6.4002 22.9334H8.0338V13.3998C8.0338 11.5998 8.58927 9.96087 9.7002 8.48301C10.8111 7.00514 12.2778 6.04407 14.1002 5.5998V4.6662C14.1002 4.13287 14.2834 3.6886 14.6498 3.3334C15.0167 2.97767 15.4669 2.7998 16.0002 2.7998C16.5335 2.7998 16.9837 2.97767 17.3506 3.3334C17.717 3.6886 17.9002 4.13287 17.9002 4.6662V5.5998C19.7226 6.04407 21.1949 7.00514 22.317 8.48301C23.4391 9.96087 24.0002 11.5998 24.0002 13.3998V22.9334H25.6338C25.9223 22.9334 26.1778 23.0443 26.4002 23.2662C26.6226 23.4886 26.7338 23.7553 26.7338 24.0662C26.7338 24.3777 26.6226 24.6443 26.4002 24.8662C26.1778 25.0886 25.9223 25.1998 25.6338 25.1998H6.4002ZM16.0002 29.6662C15.2893 29.6662 14.6671 29.4051 14.1338 28.883C13.6005 28.3609 13.3338 27.7219 13.3338 26.9662H18.6666C18.6666 27.7219 18.4111 28.3609 17.9002 28.883C17.3893 29.4051 16.7559 29.6662 16.0002 29.6662ZM10.2666 22.9334H21.7666V13.3998C21.7666 11.7998 21.2111 10.4443 20.1002 9.3334C18.9893 8.22194 17.6338 7.6662 16.0338 7.6662C14.4338 7.6662 13.0725 8.22194 11.9498 9.3334C10.8277 10.4443 10.2666 11.7998 10.2666 13.3998V22.9334Z" fill="#01893D"/>
</g>
</svg>
