<svg width="128" height="128" viewBox="0 0 128 128" fill="none" xmlns="http://www.w3.org/2000/svg">
<mask id="mask0_5358_14384" style="mask-type:alpha" maskUnits="userSpaceOnUse" x="0" y="0" width="128" height="128">
<rect width="128" height="128" fill="#D9D9D9"/>
</mask>
<g mask="url(#mask0_5358_14384)">
<path d="M101.715 75.0447C100.493 75.0447 99.4466 74.6051 98.5767 73.7259C97.7068 72.8467 97.2719 71.7695 97.2719 70.4943V58.2172H84.9059C83.6886 58.2172 82.6406 57.7705 81.7622 56.877C80.8838 55.9835 80.4446 54.9168 80.4446 53.6771C80.4446 52.4374 80.8838 51.3822 81.7622 50.5115C82.6406 49.6408 83.6886 49.2055 84.9059 49.2055H97.2719V36.8396C97.2719 35.6222 97.7127 34.5743 98.5943 33.6959C99.4759 32.8174 100.528 32.3782 101.75 32.3782C102.972 32.3782 104.033 32.8174 104.933 33.6959C105.833 34.5743 106.284 35.6222 106.284 36.8396V49.2055H118.561C119.803 49.2055 120.872 49.6468 121.768 50.5295C122.663 51.4122 123.111 52.4734 123.111 53.7131C123.111 54.9528 122.663 56.0135 121.768 56.895C120.872 57.7765 119.803 58.2172 118.561 58.2172H106.284V70.4943C106.284 71.7695 105.834 72.8467 104.935 73.7259C104.036 74.6051 102.963 75.0447 101.715 75.0447ZM47.6106 62.2378C41.848 62.2378 37.0843 60.3474 33.3194 56.5666C29.5545 52.7857 27.672 48.0129 27.672 42.2483C27.672 36.4836 29.5596 31.7165 33.3347 27.9471C37.1098 24.1777 41.87 22.293 47.6154 22.293C53.3606 22.293 58.1305 24.1777 61.9251 27.9471C65.7196 31.7165 67.6168 36.4836 67.6168 42.2483C67.6168 48.0129 65.7231 52.7857 61.9356 56.5666C58.1482 60.3474 53.3731 62.2378 47.6106 62.2378ZM10.2155 109.352C8.69896 109.352 7.44692 108.858 6.45936 107.871C5.47181 106.883 4.97803 105.64 4.97803 104.141V95.9404C4.97803 92.8469 5.74932 90.0681 7.29189 87.6039C8.83447 85.1397 10.98 83.2488 13.7286 81.9312C19.7534 79.1024 25.5009 77.0412 30.9712 75.7476C36.4415 74.454 41.9749 73.8072 47.5712 73.8072C53.1676 73.8072 58.6934 74.4482 64.1486 75.7303C69.6039 77.0123 75.3799 79.0859 81.4767 81.9508C84.1963 83.2984 86.3486 85.192 87.9335 87.6316C89.5184 90.0713 90.3108 92.8409 90.3108 95.9404V104.196C90.3108 105.649 89.8089 106.872 88.8051 107.864C87.8012 108.856 86.5573 109.352 85.0734 109.352H10.2155ZM13.9898 100.34H81.2991V95.9404C81.2991 94.6549 80.9795 93.4942 80.3402 92.4583C79.7008 91.4224 78.768 90.6252 77.5418 90.0668C72.1834 87.5027 67.1078 85.6537 62.3151 84.5198C57.5225 83.3859 52.6175 82.819 47.6 82.819C42.5826 82.819 37.6775 83.3951 32.8848 84.5472C28.0921 85.6993 22.9983 87.5392 17.6035 90.0668C16.3909 90.6252 15.4854 91.4224 14.8872 92.4583C14.2889 93.4942 13.9898 94.6549 13.9898 95.9404V100.34ZM47.6444 53.226C50.7532 53.226 53.3572 52.1765 55.4564 50.0774C57.5555 47.9782 58.6051 45.3742 58.6051 42.2654C58.6051 39.1566 57.5555 36.5526 55.4564 34.4534C53.3572 32.3543 50.7384 31.3047 47.6 31.3047C44.4615 31.3047 41.8575 32.3543 39.788 34.4534C37.7185 36.5526 36.6838 39.1566 36.6838 42.2654C36.6838 45.3742 37.7211 47.9782 39.7958 50.0774C41.8705 52.1765 44.4867 53.226 47.6444 53.226Z" fill="#01893D"/>
</g>
</svg>
