<svg width="128" height="128" viewBox="0 0 128 128" fill="none" xmlns="http://www.w3.org/2000/svg">
<mask id="mask0_5608_14242" style="mask-type:alpha" maskUnits="userSpaceOnUse" x="0" y="0" width="128" height="128">
<rect width="128" height="128" fill="#D9D9D9"/>
</mask>
<g mask="url(#mask0_5608_14242)">
<path d="M101.715 75.0447C100.492 75.0447 99.4461 74.6051 98.5762 73.7259C97.7063 72.8467 97.2714 71.7695 97.2714 70.4943V58.2172H84.9054C83.6881 58.2172 82.6402 57.7705 81.7617 56.877C80.8833 55.9835 80.4441 54.9168 80.4441 53.6771C80.4441 52.4374 80.8833 51.3822 81.7617 50.5115C82.6402 49.6408 83.6881 49.2055 84.9054 49.2055H97.2714V36.8396C97.2714 35.6222 97.7122 34.5743 98.5938 33.6959C99.4754 32.8174 100.527 32.3782 101.749 32.3782C102.971 32.3782 104.032 32.8174 104.933 33.6959C105.833 34.5743 106.283 35.6222 106.283 36.8396V49.2055H118.56C119.803 49.2055 120.872 49.6468 121.767 50.5295C122.663 51.4122 123.11 52.4734 123.11 53.7131C123.11 54.9528 122.663 56.0135 121.767 56.895C120.872 57.7765 119.803 58.2172 118.56 58.2172H106.283V70.4943C106.283 71.7695 105.834 72.8467 104.935 73.7259C104.036 74.6051 102.963 75.0447 101.715 75.0447ZM47.6101 62.2378C41.8475 62.2378 37.0838 60.3474 33.3189 56.5666C29.554 52.7857 27.6715 48.0129 27.6715 42.2483C27.6715 36.4836 29.5591 31.7165 33.3342 27.9471C37.1093 24.1777 41.8695 22.293 47.6149 22.293C53.3601 22.293 58.13 24.1777 61.9246 27.9471C65.7191 31.7165 67.6163 36.4836 67.6163 42.2483C67.6163 48.0129 65.7226 52.7857 61.9351 56.5666C58.1477 60.3474 53.3727 62.2378 47.6101 62.2378ZM10.215 109.352C8.69847 109.352 7.44643 108.858 6.45887 107.871C5.47132 106.883 4.97754 105.64 4.97754 104.141V95.9404C4.97754 92.8469 5.74883 90.0681 7.29141 87.6039C8.83398 85.1397 10.9795 83.2488 13.7281 81.9312C19.7529 79.1024 25.5004 77.0412 30.9707 75.7476C36.4411 74.454 41.9744 73.8072 47.5707 73.8072C53.1671 73.8072 58.6929 74.4482 64.1481 75.7303C69.6034 77.0123 75.3794 79.0859 81.4762 81.9508C84.1959 83.2984 86.3481 85.192 87.933 87.6316C89.5179 90.0713 90.3103 92.8409 90.3103 95.9404V104.196C90.3103 105.649 89.8084 106.872 88.8046 107.864C87.8007 108.856 86.5568 109.352 85.0729 109.352H10.215ZM13.9893 100.34H81.2986V95.9404C81.2986 94.6549 80.979 93.4942 80.3397 92.4583C79.7003 91.4224 78.7675 90.6252 77.5413 90.0668C72.1829 87.5027 67.1073 85.6537 62.3146 84.5198C57.522 83.3859 52.617 82.819 47.5995 82.819C42.5821 82.819 37.6771 83.3951 32.8843 84.5472C28.0916 85.6993 22.9979 87.5392 17.603 90.0668C16.3904 90.6252 15.485 91.4224 14.8867 92.4583C14.2884 93.4942 13.9893 94.6549 13.9893 95.9404V100.34ZM47.6439 53.226C50.7527 53.226 53.3567 52.1765 55.4559 50.0774C57.5551 47.9782 58.6046 45.3742 58.6046 42.2654C58.6046 39.1566 57.5551 36.5526 55.4559 34.4534C53.3567 32.3543 50.7379 31.3047 47.5995 31.3047C44.4611 31.3047 41.8571 32.3543 39.7875 34.4534C37.718 36.5526 36.6833 39.1566 36.6833 42.2654C36.6833 45.3742 37.7206 47.9782 39.7953 50.0774C41.87 52.1765 44.4863 53.226 47.6439 53.226Z" fill="white"/>
</g>
</svg>
