<svg width="24" height="24" viewBox="0 0 24 24" fill="none" xmlns="http://www.w3.org/2000/svg">
<mask id="mask0_5368_15514" style="mask-type:alpha" maskUnits="userSpaceOnUse" x="0" y="0" width="24" height="24">
<rect width="24" height="24" fill="#D9D9D9"/>
</mask>
<g mask="url(#mask0_5368_15514)">
<path d="M20.5496 21.8246C18.0164 21.7746 15.6498 21.2662 13.4498 20.2994C11.2498 19.333 9.32061 18.0206 7.66221 16.3622C6.00381 14.7038 4.68721 12.7662 3.71241 10.5494C2.73721 8.33301 2.21621 5.96641 2.14941 3.44961C2.14941 3.08281 2.27441 2.77441 2.52441 2.52441C2.77441 2.27441 3.07441 2.14941 3.42441 2.14941H6.67461C7.02461 2.14941 7.32461 2.27441 7.57461 2.52441C7.82461 2.77441 7.94961 3.08281 7.94961 3.44961C7.96641 4.09961 8.02061 4.70381 8.11221 5.26221C8.20381 5.82061 8.33301 6.35801 8.49981 6.87441C8.56621 7.12441 8.57041 7.37441 8.51241 7.62441C8.45401 7.87441 8.34141 8.08281 8.17461 8.24961L5.64981 10.7744C6.48301 12.4744 7.51621 13.9494 8.74941 15.1994C9.98301 16.4494 11.4498 17.4994 13.1498 18.3494L15.6998 15.7748C15.883 15.608 16.0996 15.4954 16.3496 15.437C16.5996 15.3786 16.8496 15.3828 17.0996 15.4496C17.6496 15.6328 18.2162 15.7662 18.7994 15.8498C19.383 15.933 19.9664 15.983 20.5496 15.9998C20.9164 16.0162 21.2248 16.1494 21.4748 16.3994C21.7248 16.6494 21.8498 16.9662 21.8498 17.3498V20.5748C21.8498 20.9412 21.7288 21.2452 21.4868 21.4868C21.2452 21.7288 20.9328 21.8414 20.5496 21.8246ZM14.8748 19.0496C15.6912 19.3828 16.5244 19.637 17.3744 19.8122C18.2244 19.987 19.1078 20.0994 20.0246 20.1494C20.0578 20.1494 20.087 20.137 20.1122 20.1122C20.137 20.087 20.1578 20.0494 20.1746 19.9994V17.8244C20.1746 17.7912 20.158 17.762 20.1248 17.7368C20.0912 17.712 20.0578 17.6996 20.0246 17.6996C19.4246 17.6664 18.8662 17.5998 18.3494 17.4998C17.833 17.3998 17.3498 17.283 16.8998 17.1494C16.8498 17.1494 16.808 17.1536 16.7744 17.162C16.7412 17.1704 16.708 17.1912 16.6748 17.2244L14.8748 19.0496ZM20.1746 11.9996C20.1746 9.73281 19.3788 7.80361 17.7872 6.21201C16.1956 4.62041 14.2664 3.82461 11.9996 3.82461V2.14941C13.3496 2.14941 14.6246 2.40781 15.8246 2.92461C17.0246 3.44141 18.0704 4.14561 18.962 5.03721C19.8536 5.92881 20.5578 6.97461 21.0746 8.17461C21.5914 9.37461 21.8498 10.6496 21.8498 11.9996H20.1746ZM16.1744 11.9996C16.1744 10.8496 15.7662 9.86621 14.9498 9.04941C14.133 8.23301 13.1496 7.82481 11.9996 7.82481V6.14961C13.6164 6.14961 14.9956 6.72041 16.1372 7.86201C17.2788 9.00361 17.8496 10.3828 17.8496 11.9996H16.1744ZM4.97481 9.09981L6.74961 7.29981C6.78281 7.26621 6.80361 7.22861 6.81201 7.18701C6.82041 7.14541 6.82461 7.10801 6.82461 7.07481C6.69141 6.59121 6.57881 6.09121 6.48681 5.57481C6.39521 5.05801 6.32441 4.52461 6.27441 3.97461C6.27441 3.94141 6.26201 3.91221 6.23721 3.88701C6.21201 3.86221 6.18281 3.84141 6.14961 3.82461H3.97461C3.94141 3.82461 3.91221 3.84121 3.88701 3.87441C3.86221 3.90801 3.84981 3.94141 3.84981 3.97461C3.91621 4.82461 4.03701 5.67881 4.21221 6.53721C4.38701 7.39561 4.64121 8.24981 4.97481 9.09981Z" fill="white"/>
</g>
</svg>
