<svg width="24" height="24" viewBox="0 0 24 24" fill="none" xmlns="http://www.w3.org/2000/svg">
<mask id="mask0_5368_15520" style="mask-type:alpha" maskUnits="userSpaceOnUse" x="0" y="0" width="24" height="24">
<rect width="24" height="24" fill="#D9D9D9"/>
</mask>
<g mask="url(#mask0_5368_15520)">
<path d="M7.0004 23.0744C6.4504 23.0744 5.9794 22.8744 5.5874 22.4744C5.1958 22.0744 5 21.6078 5 21.0746V2.9246C5 2.3914 5.1958 1.9248 5.5874 1.5248C5.9794 1.1248 6.4504 0.924805 7.0004 0.924805H17C17.55 0.924805 18.021 1.1248 18.413 1.5248C18.8046 1.9248 19.0004 2.3914 19.0004 2.9246V21.0746C19.0004 21.6078 18.8046 22.0744 18.413 22.4744C18.021 22.8744 17.55 23.0744 17 23.0744H7.0004ZM6.7004 18.6494V21.0746C6.7004 21.1414 6.7294 21.208 6.7874 21.2744C6.8458 21.3412 6.9168 21.3746 7.0004 21.3746H17C17.0836 21.3746 17.1546 21.3412 17.213 21.2744C17.271 21.208 17.3 21.1414 17.3 21.0746V18.6494H6.7004ZM12.0002 20.8748C12.2334 20.8748 12.4376 20.7872 12.6128 20.612C12.7876 20.4372 12.875 20.233 12.875 19.9994C12.875 19.7662 12.7876 19.5662 12.6128 19.3994C12.4376 19.233 12.2334 19.1498 12.0002 19.1498C11.767 19.1498 11.5628 19.2372 11.3876 19.412C11.2128 19.5872 11.1254 19.7914 11.1254 20.0246C11.1254 20.2578 11.2128 20.4578 11.3876 20.6246C11.5628 20.7914 11.767 20.8748 12.0002 20.8748ZM6.7004 16.9496H17.3V5.27481H6.7004V16.9496ZM6.7004 3.5744H17.3V2.9246C17.3 2.8578 17.271 2.7912 17.213 2.7248C17.1546 2.658 17.0836 2.6246 17 2.6246H7.0004C6.9168 2.6246 6.8458 2.658 6.7874 2.7248C6.7294 2.7912 6.7004 2.8578 6.7004 2.9246V3.5744ZM6.7004 18.6494V21.3746V21.0746V18.6494Z" fill="white"/>
</g>
</svg>
