<svg width="141" height="26" viewBox="0 0 141 26" fill="none" xmlns="http://www.w3.org/2000/svg">
<path d="M22.5001 23.4267L11.6999 7.63566C10.3105 5.60333 10.8321 2.82911 12.8644 1.43525C14.8968 0.0458904 17.671 0.567462 19.0649 2.5998L29.865 18.3909C31.2544 20.4232 30.7328 23.1974 28.7005 24.5913C26.6636 25.9807 23.8894 25.4591 22.5001 23.4267Z" fill="white"/>
<path d="M8.1385 23.4072L18.9387 7.61615C20.328 5.58381 19.8064 2.80958 17.7741 1.41572C15.7418 0.0263592 12.9675 0.54793 11.5737 2.58027L0.778025 18.3713C-0.611337 20.4037 -0.0897638 23.1779 1.94257 24.5718C3.97491 25.9611 6.74914 25.444 8.1385 23.4072Z" fill="white"/>
<path d="M59.5527 13.5005C59.6292 10.1508 60.1867 7.5429 61.7559 5.2318C63.6849 2.39012 66.4141 0.829895 69.7774 0.321811C72.0885 -0.028902 74.3636 0.114975 76.5668 0.906327C80.6495 2.38112 83.064 5.3442 84.0037 9.53027C84.6332 12.354 84.4983 15.1507 83.5001 17.8889C82.2457 21.3151 79.8941 23.6397 76.4364 24.7773C73.0777 25.8789 69.7144 25.8069 66.4456 24.3906C62.9969 22.8933 60.9511 20.2 60.0608 16.6075C59.7596 15.398 59.6561 14.148 59.5527 13.5005ZM76.994 13.0689C76.8771 11.9898 76.8321 11.1085 76.6792 10.2452C76.2655 7.87113 74.476 5.92422 71.5444 6.12206C69.5256 6.25695 68.1002 7.34956 67.5337 9.28747C66.9312 11.3603 66.8727 13.4556 67.2774 15.5643C67.745 18.0013 69.1659 19.3143 71.5039 19.5256C73.9769 19.7459 75.9598 18.4105 76.5263 16.0499C76.7781 15.0113 76.8636 13.9367 76.994 13.0689Z" fill="white"/>
<path d="M89.7578 17.0416C89.7578 14.9103 89.7398 12.7746 89.7623 10.6433C89.7848 8.61549 90.1804 6.66858 91.3225 4.95098C92.7658 2.77477 94.7937 1.39889 97.2981 0.679482C99.9869 -0.0938845 102.676 -0.0803912 105.311 0.796391C109.209 2.09583 111.673 4.71718 112.298 8.87177C112.415 9.63615 112.46 10.414 112.464 11.1874C112.478 15.333 112.473 19.4786 112.473 23.6242C112.473 24.6673 112.221 24.9191 111.178 24.9146C109.582 24.9057 107.986 24.9012 106.394 24.9012C105.279 24.9012 104.982 24.6089 104.982 23.5028C104.982 19.582 104.987 15.6567 104.978 11.7359C104.978 10.7512 104.919 9.76654 104.515 8.8448C103.247 5.96266 99.6902 6.02111 98.2873 7.85111C97.6039 8.74588 97.3566 9.81601 97.2756 10.9041C97.2037 11.8843 97.2352 12.869 97.2352 13.8537C97.2352 17.0281 97.2397 20.207 97.2397 23.3814C97.2397 24.6808 97.0013 24.9146 95.6974 24.9146C94.1012 24.9101 92.505 24.9101 90.9088 24.8967C90.0051 24.8922 89.7668 24.6538 89.7623 23.7501C89.7488 21.5154 89.7533 19.2808 89.7578 17.0416Z" fill="white"/>
<path d="M135.58 7.31592C134.627 7.31592 133.669 7.3384 132.72 7.29793C132.45 7.28445 132.145 7.14056 131.938 6.96071C130.382 5.59833 128.61 5.52189 126.74 6.05246C126.227 6.19634 125.827 6.53356 125.782 7.11358C125.737 7.68012 126.057 8.0713 126.502 8.36806C127.504 9.03801 128.655 9.28081 129.802 9.54609C131.556 9.95076 133.332 10.288 135.036 10.8365C136.047 11.1648 137.037 11.7313 137.873 12.3923C139.757 13.885 140.319 15.9354 139.968 18.2734C139.469 21.6052 137.41 23.5566 134.361 24.6537C132.945 25.1618 131.479 25.4541 129.991 25.4945C127.356 25.5665 124.766 25.3237 122.334 24.1277C119.816 22.8912 118.408 20.8858 117.927 18.1655C117.693 16.8436 117.869 16.6188 119.2 16.6188C120.674 16.6188 122.154 16.6233 123.629 16.6188C124.074 16.6188 124.442 16.7447 124.568 17.2078C124.986 18.7276 126.016 19.4875 127.54 19.7078C128.763 19.8831 129.968 19.9056 131.173 19.5864C131.92 19.3885 132.419 18.9884 132.504 18.1655C132.59 17.3652 132.172 16.8122 131.538 16.4974C130.841 16.1512 130.081 15.9039 129.325 15.7106C126.983 15.108 124.55 14.8203 122.338 13.7457C120.607 12.9003 119.173 11.7538 118.557 9.85185C117.851 7.68463 118.318 4.76651 120.418 2.90504C121.906 1.58762 123.651 0.850214 125.566 0.481515C128.476 -0.0850205 131.353 -0.0490402 134.123 1.13799C136.02 1.95182 137.608 3.14783 138.579 5.0228C138.781 5.41847 138.939 5.84113 139.069 6.26379C139.262 6.88877 139.006 7.27545 138.358 7.29793C137.437 7.32941 136.51 7.30694 135.584 7.30694C135.58 7.30694 135.58 7.31143 135.58 7.31592Z" fill="white"/>
<path d="M52.9431 24.8285C52.1833 24.8285 51.4189 24.8015 50.6635 24.8375C49.8856 24.8735 49.3281 24.5677 48.8875 23.9382C47.6959 22.2251 46.4864 20.5255 45.2859 18.8169C44.9981 18.4078 44.9847 18.3988 44.6879 18.8214C43.4694 20.5345 42.2509 22.2476 41.0414 23.9652C40.6232 24.5587 40.1196 24.8645 39.3553 24.842C37.7771 24.797 36.1944 24.824 34.6116 24.8285C34.0811 24.8285 33.555 24.7655 33.3032 24.2485C33.0514 23.7269 33.1099 23.1649 33.4426 22.6703C33.8653 22.0408 34.3104 21.4203 34.7465 20.7998C36.6485 18.093 38.5504 15.3862 40.4659 12.6839C40.6457 12.4277 40.6772 12.2658 40.4793 11.987C38.402 9.05542 36.3427 6.11482 34.2879 3.16973C34.1305 2.94042 33.9777 2.68413 33.9192 2.41435C33.7214 1.48811 34.1215 0.903585 35.0703 0.84963C36.2888 0.782185 37.5118 0.813661 38.7348 0.809164C39.2563 0.809164 39.7779 0.83165 40.2995 0.827154C40.8885 0.827154 41.3202 1.10143 41.6484 1.56904C42.5252 2.81003 43.3975 4.05551 44.2832 5.29199C44.4946 5.58875 44.7553 5.85403 44.9936 6.1328C45.2095 5.86302 45.4388 5.60674 45.6366 5.32797C46.4864 4.14094 47.3452 2.95841 48.168 1.75339C48.5907 1.1374 49.1303 0.804668 49.8811 0.809164C51.5223 0.822653 53.1635 0.791182 54.8001 0.840642C55.9737 0.876613 56.4682 1.95123 55.8163 2.94492C55.4296 3.52944 55.0249 4.10047 54.6203 4.6715C52.8757 7.14447 51.1356 9.61745 49.3821 12.0814C49.2292 12.2973 49.3011 12.4052 49.4225 12.5805C51.7381 15.8718 54.0492 19.1676 56.3513 22.4679C56.5357 22.7287 56.7021 23.039 56.7605 23.3447C56.9269 24.2215 56.4233 24.8015 55.533 24.8105C54.6742 24.833 53.8109 24.8285 52.9431 24.8285Z" fill="white"/>
</svg>
