<svg width="141" height="26" viewBox="0 0 141 26" fill="none" xmlns="http://www.w3.org/2000/svg">
<path d="M22.5001 23.8906L11.6999 8.09953C10.3105 6.0672 10.8321 3.29298 12.8644 1.89912C14.8968 0.509758 17.671 1.03133 19.0649 3.06366L29.865 18.8547C31.2544 20.8871 30.7328 23.6613 28.7005 25.0552C26.6636 26.4445 23.8894 25.9229 22.5001 23.8906Z" fill="#363636"/>
<path d="M8.1385 23.8711L18.9387 8.08001C20.328 6.04768 19.8064 3.27345 17.7741 1.87959C15.7418 0.490226 12.9675 1.0118 11.5737 3.04413L0.778025 18.8352C-0.611337 20.8675 -0.0897638 23.6418 1.94257 25.0356C3.97491 26.425 6.74914 25.9079 8.1385 23.8711Z" fill="#363636"/>
<path d="M59.5527 13.9644C59.6292 10.6146 60.1867 8.00677 61.7559 5.69566C63.6849 2.85399 66.4141 1.29376 69.7774 0.785678C72.0885 0.434965 74.3636 0.578842 76.5668 1.37019C80.6495 2.84499 83.064 5.80807 84.0037 9.99414C84.6332 12.8178 84.4983 15.6145 83.5001 18.3528C82.2457 21.779 79.8941 24.1036 76.4364 25.2412C73.0777 26.3428 69.7144 26.2708 66.4456 24.8545C62.9969 23.3572 60.9511 20.6639 60.0608 17.0713C59.7596 15.8618 59.6561 14.6119 59.5527 13.9644ZM76.994 13.5327C76.8771 12.4536 76.8321 11.5723 76.6792 10.7091C76.2655 8.335 74.476 6.38809 71.5444 6.58593C69.5256 6.72081 68.1002 7.81342 67.5337 9.75134C66.9312 11.8241 66.8727 13.9194 67.2774 16.0282C67.745 18.4652 69.1659 19.7781 71.5039 19.9894C73.9769 20.2098 75.9598 18.8744 76.5263 16.5138C76.7781 15.4752 76.8636 14.4005 76.994 13.5327Z" fill="#363636"/>
<path d="M89.7578 17.5055C89.7578 15.3742 89.7398 13.2384 89.7623 11.1072C89.7848 9.07935 90.1804 7.13244 91.3225 5.41485C92.7658 3.23863 94.7937 1.86276 97.2981 1.14335C99.9869 0.369983 102.676 0.383476 105.311 1.26026C109.209 2.55969 111.673 5.18104 112.298 9.33564C112.415 10.1 112.46 10.8779 112.464 11.6513C112.478 15.7969 112.473 19.9425 112.473 24.0881C112.473 25.1312 112.221 25.383 111.178 25.3785C109.582 25.3695 107.986 25.365 106.394 25.365C105.279 25.365 104.982 25.0728 104.982 23.9667C104.982 20.0459 104.987 16.1206 104.978 12.1998C104.978 11.2151 104.919 10.2304 104.515 9.30866C103.247 6.42652 99.6902 6.48498 98.2873 8.31498C97.6039 9.20975 97.3566 10.2799 97.2756 11.368C97.2037 12.3482 97.2352 13.3329 97.2352 14.3176C97.2352 17.492 97.2397 20.6709 97.2397 23.8453C97.2397 25.1447 97.0013 25.3785 95.6974 25.3785C94.1012 25.374 92.505 25.374 90.9088 25.3605C90.0051 25.356 89.7668 25.1177 89.7623 24.214C89.7488 21.9793 89.7533 19.7446 89.7578 17.5055Z" fill="#363636"/>
<path d="M135.58 7.77979C134.627 7.77979 133.669 7.80227 132.72 7.7618C132.45 7.74831 132.145 7.60443 131.938 7.42458C130.382 6.06219 128.61 5.98576 126.74 6.51633C126.227 6.66021 125.827 6.99743 125.782 7.57745C125.737 8.14399 126.057 8.53517 126.502 8.83193C127.504 9.50188 128.655 9.74468 129.802 10.01C131.556 10.4146 133.332 10.7519 135.036 11.3004C136.047 11.6286 137.037 12.1952 137.873 12.8561C139.757 14.3489 140.319 16.3992 139.968 18.7373C139.469 22.0691 137.41 24.0205 134.361 25.1176C132.945 25.6257 131.479 25.9179 129.991 25.9584C127.356 26.0303 124.766 25.7875 122.334 24.5915C119.816 23.355 118.408 21.3497 117.927 18.6294C117.693 17.3075 117.869 17.0827 119.2 17.0827C120.674 17.0827 122.154 17.0872 123.629 17.0827C124.074 17.0827 124.442 17.2086 124.568 17.6717C124.986 19.1914 126.016 19.9513 127.54 20.1716C128.763 20.347 129.968 20.3695 131.173 20.0502C131.92 19.8524 132.419 19.4522 132.504 18.6294C132.59 17.8291 132.172 17.276 131.538 16.9613C130.841 16.6151 130.081 16.3678 129.325 16.1744C126.983 15.5719 124.55 15.2841 122.338 14.2095C120.607 13.3642 119.173 12.2177 118.557 10.3157C117.851 8.1485 118.318 5.23038 120.418 3.3689C121.906 2.05148 123.651 1.31408 125.566 0.945383C128.476 0.378847 131.353 0.414827 134.123 1.60185C136.02 2.41569 137.608 3.6117 138.579 5.48667C138.781 5.88234 138.939 6.305 139.069 6.72765C139.262 7.35264 139.006 7.73932 138.358 7.7618C137.437 7.79328 136.51 7.7708 135.584 7.7708C135.58 7.7708 135.58 7.77529 135.58 7.77979Z" fill="#363636"/>
<path d="M52.9431 25.2924C52.1833 25.2924 51.4189 25.2654 50.6635 25.3014C49.8856 25.3373 49.3281 25.0316 48.8875 24.4021C47.6959 22.689 46.4864 20.9894 45.2859 19.2808C44.9981 18.8716 44.9847 18.8626 44.6879 19.2853C43.4694 20.9984 42.2509 22.7115 41.0414 24.4291C40.6232 25.0226 40.1196 25.3283 39.3553 25.3059C37.7771 25.2609 36.1944 25.2879 34.6116 25.2924C34.0811 25.2924 33.555 25.2294 33.3032 24.7123C33.0514 24.1908 33.1099 23.6287 33.4426 23.1341C33.8653 22.5046 34.3104 21.8841 34.7465 21.2637C36.6485 18.5569 38.5504 15.8501 40.4659 13.1478C40.6457 12.8915 40.6772 12.7297 40.4793 12.4509C38.402 9.51929 36.3427 6.57869 34.2879 3.6336C34.1305 3.40429 33.9777 3.148 33.9192 2.87822C33.7214 1.95198 34.1215 1.36745 35.0703 1.3135C36.2888 1.24605 37.5118 1.27753 38.7348 1.27303C39.2563 1.27303 39.7779 1.29552 40.2995 1.29102C40.8885 1.29102 41.3202 1.56529 41.6484 2.03291C42.5252 3.27389 43.3975 4.51937 44.2832 5.75586C44.4946 6.05262 44.7553 6.3179 44.9936 6.59667C45.2095 6.32689 45.4388 6.07061 45.6366 5.79184C46.4864 4.60481 47.3452 3.42227 48.168 2.21726C48.5907 1.60127 49.1303 1.26854 49.8811 1.27303C51.5223 1.28652 53.1635 1.25505 54.8001 1.30451C55.9737 1.34048 56.4682 2.4151 55.8163 3.40878C55.4296 3.9933 55.0249 4.56433 54.6203 5.13537C52.8757 7.60834 51.1356 10.0813 49.3821 12.5453C49.2292 12.7611 49.3011 12.869 49.4225 13.0444C51.7381 16.3357 54.0492 19.6315 56.3513 22.9318C56.5357 23.1926 56.7021 23.5028 56.7605 23.8086C56.9269 24.6854 56.4233 25.2654 55.533 25.2744C54.6742 25.2969 53.8109 25.2924 52.9431 25.2924Z" fill="#363636"/>
</svg>
