<svg width="320" height="32" viewBox="0 0 320 32" fill="none" xmlns="http://www.w3.org/2000/svg">
<path fill-rule="evenodd" clip-rule="evenodd" d="M141.272 1.02008C140.912 1.30369 140.503 1.94799 140.364 2.45199C140.056 3.5688 139.866 3.00158 145.498 17.8144C148.928 26.8368 149.904 29.1523 150.63 30.0016C152.902 32.6549 156.759 32.6556 159.029 30.0034C159.745 29.1676 160.622 27.1176 163.381 19.8311C165.282 14.8123 166.92 10.6188 167.022 10.5125C167.124 10.406 168.786 14.4833 170.716 19.5732C172.952 25.4696 174.499 29.1883 174.981 29.8225C176.161 31.3763 177.647 32.0471 179.671 31.9393C181.599 31.8368 182.962 31.0703 183.986 29.5132C184.321 29.0049 185.649 25.8122 186.939 22.4181C188.229 19.0241 189.443 15.9306 189.638 15.5435C190.267 14.2934 191.337 13.8564 193.771 13.8554L195.938 13.8544L196.091 16.8139C196.355 21.9257 197.539 24.951 200.414 27.8609C203.414 30.8973 205.986 31.8405 211.251 31.835C214.914 31.8312 216.511 31.4844 219.056 30.1409C225.855 26.5522 228.336 16.0316 224.317 7.83582C222.655 4.4486 219.462 1.91777 215.659 0.974497C213.577 0.458152 208.106 0.531947 206.213 1.10194C202.406 2.24873 199.387 4.8428 197.775 8.35167L196.894 10.2712L192.486 10.3687C187.674 10.475 186.945 10.6611 185.996 12.0245C185.729 12.4076 184.573 15.2145 183.426 18.2622C180.54 25.9348 180.43 26.1781 179.757 26.3469C179.442 26.4262 178.975 26.3786 178.719 26.2414C178.404 26.0716 176.765 22.0655 173.599 13.7234C168.831 1.16138 168.516 0.504998 167.252 0.504998C166.545 0.504998 165.372 1.17323 165.167 1.69209C165.07 1.93968 163.009 7.356 160.588 13.7284C158.167 20.1009 156.02 25.5699 155.818 25.8814C155.6 26.2149 155.194 26.4481 154.831 26.4481C154.468 26.4481 154.06 26.2144 153.842 25.8814C153.638 25.5699 151.472 20.0442 149.027 13.6025C145.47 4.22897 144.435 1.75203 143.846 1.19765C142.971 0.373519 142.165 0.31785 141.272 1.02008ZM231.779 0.817828C230.243 1.6004 229.894 4.18439 231.154 5.44477L231.756 6.04625L240.394 6.04776C245.456 6.04851 249.413 6.15482 249.952 6.30443C251.138 6.63414 252.572 8.22019 252.95 9.62112C253.566 11.9044 252.647 14.5297 250.848 15.6263C250.086 16.0908 249.528 16.1197 241.224 16.124C231.535 16.1291 231.459 16.1401 230.709 17.636C230.329 18.3924 230.268 19.2825 230.268 24.0553C230.268 28.8269 230.329 29.719 230.709 30.4779C231.528 32.1179 233.337 32.3183 234.406 30.8879C234.874 30.2618 234.935 29.7716 235.007 26.0527L235.087 21.9144H240.096H245.105L248.801 26.7184C250.949 29.5114 252.754 31.6201 253.11 31.7559C254.185 32.1647 257.5 32.0363 258.477 31.5481C259.662 30.9562 260.158 29.5258 259.683 28.0697C259.267 26.797 258.143 26.1973 256.173 26.1968L254.75 26.1963L252.976 23.8762L251.203 21.5565L252.508 20.8424C255.862 19.0083 257.722 15.5727 257.722 11.2097C257.722 6.67418 255.521 2.8298 251.984 1.18808C250.839 0.65662 250.456 0.633705 241.602 0.566706C234.539 0.513057 232.262 0.571242 231.779 0.817828ZM265.306 0.856615C264.025 1.56665 264.037 1.41678 264.027 16.1968C264.018 31.6516 263.972 31.2305 265.72 31.7423C266.355 31.9282 269.942 31.9932 276.696 31.941L286.729 31.8635L287.464 31.0408C288.499 29.8822 288.499 28.3035 287.464 27.1448L286.729 26.3222L277.648 26.2474L268.567 26.1726L268.496 14.0735L268.426 1.9747L267.604 1.23972C266.701 0.433211 266.215 0.35236 265.306 0.856615ZM293.74 0.827144C293.394 1.00018 292.912 1.53692 292.67 2.01977C292.278 2.80033 292.229 3.78366 292.229 10.8785C292.229 15.921 292.328 19.1201 292.497 19.5682C293.399 21.9479 295.896 22.0524 296.773 19.747C296.906 19.3972 297.014 16.1621 297.014 12.558V6.00494L302.744 6.09309C308.219 6.17747 308.531 6.20871 309.734 6.79734C312.197 8.00181 314.274 10.8379 314.928 13.8891C315.921 18.5189 313.59 23.8092 309.775 25.5857C308.502 26.1789 308.332 26.1915 301.548 26.1943C295.461 26.1968 294.515 26.2504 293.74 26.6376C292.14 27.4368 291.869 30.1215 293.261 31.3826C293.748 31.8242 294.307 31.8695 300.107 31.939C303.713 31.9821 307.186 31.8997 308.204 31.7468C313.453 30.958 317.69 26.6637 319.231 20.5706C319.994 17.5529 319.801 13.272 318.768 10.317C317.002 5.26493 313.101 1.58555 308.629 0.756627C306.588 0.378059 294.524 0.435226 293.74 0.827144ZM215.566 6.68526C218.148 7.53609 220.446 9.97223 221.26 12.7209C221.424 13.2751 221.554 14.9186 221.548 16.3731C221.539 18.4969 221.426 19.3032 220.972 20.4666C220.144 22.5924 218.78 24.1735 216.893 25.1966C215.295 26.0628 215.25 26.0711 211.629 26.1542C208.396 26.2285 207.813 26.1769 206.551 25.7038C202.681 24.2533 200.762 21.0769 200.761 16.1213C200.76 13.4421 201.161 11.9046 202.347 10.0327C203.543 8.14463 205.727 6.74495 208.157 6.30997C210.024 5.97573 214.029 6.17848 215.566 6.68526Z" fill="#4E3F84"/>
<path fill-rule="evenodd" clip-rule="evenodd" d="M7.08752 0.255928C4.54433 0.686383 2.24421 2.4747 1.01027 4.98111L0.181099 6.66539L0.0906752 12.4409L0 18.2164L0.692153 17.6721C1.39363 17.1202 4.24511 16.1215 5.11911 16.1215C5.5672 16.1215 5.59642 15.881 5.59642 12.2094C5.59642 7.76786 5.82537 6.86387 7.15552 6.05309C7.95976 5.56269 8.39878 5.54456 19.5367 5.5438C29.857 5.54279 31.1595 5.49821 31.794 5.12342C33.0407 4.38694 33.4644 2.46739 32.64 1.29038C31.7615 0.035788 31.3776 -0.000739907 19.3946 0.0312483C13.2602 0.0473683 7.72199 0.148629 7.08752 0.255928ZM43.6094 0.272547C42.9752 0.370778 42.0118 0.680839 41.4685 0.961176C40.4358 1.49465 38.7389 3.15375 37.9921 4.36023C37.7518 4.74862 36.1957 8.65899 34.5344 13.0499C32.8732 17.4406 31.0063 22.3492 30.3857 23.9574C29.7654 25.5659 29.1493 27.2597 29.0168 27.7217C28.7045 28.8105 29.1054 30.3326 29.8397 30.8469C30.6766 31.4333 31.9869 31.3401 32.601 30.651C32.8866 30.3301 33.8883 28.035 34.827 25.5505L36.5335 21.0331L41.9871 20.9651C48.1308 20.8885 48.4512 20.8042 48.9532 19.1292C49.1791 18.3751 49.1711 17.9895 48.9162 17.3744C48.3139 15.9203 47.7623 15.7571 42.981 15.6178L38.6555 15.4919L40.1698 11.5142C41.8231 7.17116 42.4327 6.27449 44.0636 5.78585C44.9862 5.50929 45.2176 5.53498 46.2312 6.02563C46.8553 6.32788 47.5581 6.86816 47.7928 7.22633C48.0276 7.58449 50.132 12.9346 52.4694 19.1151C55.3007 26.6013 56.8981 30.4996 57.255 30.7933C58.0729 31.4665 59.4028 31.3625 60.1395 30.5676C61.321 29.2926 61.1465 28.6052 56.6137 16.7034C54.3353 10.7201 52.2304 5.35338 51.9364 4.77734C50.2748 1.52009 46.9979 -0.252613 43.6094 0.272547ZM66.3663 0.169023C65.3984 0.372538 64.7871 1.42891 64.7871 2.89759C64.7871 3.98494 64.903 4.33051 65.451 4.87885L66.1152 5.54279H74.88C80.4605 5.54279 83.9027 5.64002 84.354 5.81079C87.3828 6.95506 88.449 11.5331 86.2857 14.1043C85.1117 15.4997 85.2346 15.4828 75.2807 15.6178L66.0021 15.7437L65.3946 16.4505L64.7871 17.1573V23.5773V29.9976L65.4054 30.6157C66.1664 31.3769 67.5003 31.4391 68.3484 30.7532C68.9234 30.2883 68.9471 30.1248 69.069 25.7787L69.1949 21.285L74.1387 21.2167L79.0825 21.1487L79.8059 21.9965C80.2039 22.4628 81.9244 24.6657 83.6294 26.892C85.3346 29.1181 86.9022 31.0059 87.1133 31.0867C87.3244 31.1678 88.6833 31.2341 90.1333 31.2341C92.6604 31.2341 92.7949 31.2066 93.387 30.5676C94.2902 29.5928 94.2716 27.5398 93.3513 26.6192C92.7901 26.058 92.4448 25.9555 90.9073 25.8923L89.1172 25.8187L87.2775 23.4448L85.4378 21.0709L86.7617 20.3473C90.1013 18.5217 91.9896 15.0395 91.9896 10.7062C91.9896 6.2425 89.9726 2.6636 86.4902 0.948585L84.8233 0.127469L75.8756 0.08919C70.9545 0.0680325 66.6751 0.104039 66.3663 0.169023ZM99.5736 0.353149C98.2925 1.06318 98.3049 0.913317 98.2953 15.6934C98.2857 30.6573 98.2971 30.7855 99.6459 31.1242C100.82 31.4187 101.649 31.1409 102.245 30.2523C102.819 29.3974 102.82 29.384 102.828 19.4216L102.835 9.44685L103.619 10.3284C104.05 10.8133 104.755 11.6067 105.186 12.0915C105.617 12.5764 106.646 13.7665 107.473 14.7362C108.301 15.706 109.434 17.0114 109.992 17.6371C110.55 18.263 111.63 19.509 112.392 20.4065C114.757 23.1927 115.037 23.4259 116.011 23.4259C117.091 23.4259 117.176 23.3476 121.219 18.6421C122.944 16.6344 124.471 14.867 124.613 14.7146C124.755 14.5619 125.831 13.3288 127.006 11.9739L129.141 9.51058L129.267 19.7226L129.393 29.9346L130.004 30.5845C131.009 31.6542 132.786 31.4595 133.432 30.2084C133.98 29.149 133.983 2.34296 133.435 1.28383C132.959 0.363729 131.728 -0.167735 130.923 0.199247C130.599 0.346594 127.356 3.90459 123.717 8.10561C120.077 12.3066 116.854 16.0037 116.555 16.3213L116.011 16.8988L109.73 9.64735C100.735 -0.738977 101.04 -0.459653 99.5736 0.353149ZM13.2786 15.3775C7.32176 16.6001 2.05178 17.8063 1.56742 18.0575C0.205279 18.7642 0.00730449 19.711 0.101254 25.0631C0.18941 30.0709 0.287139 30.4243 1.77748 31.1316C2.92906 31.6781 4.13655 31.4189 4.95162 30.4505C5.57022 29.7153 5.59642 29.553 5.59642 26.4439C5.59642 24.6619 5.69112 23.1451 5.80698 23.0736C6.00143 22.9534 16.6326 20.4483 23.1017 18.998C26.4791 18.2411 26.9841 17.997 27.4431 16.8993C28.2118 15.0604 26.9411 13.0698 25.0344 13.1267C24.5256 13.1419 19.2355 14.1547 13.2786 15.3775Z" fill="#01893D"/>
</svg>
