<svg width="24" height="25" viewBox="0 0 24 25" fill="none" xmlns="http://www.w3.org/2000/svg">
<path d="M23.4761 6.23143C23.3381 5.7224 23.0692 5.25837 22.6963 4.88542C22.3233 4.51248 21.8593 4.24362 21.3503 4.10555C19.4865 3.59668 11.985 3.59668 11.985 3.59668C11.985 3.59668 4.48313 3.61168 2.619 4.12055C2.10997 4.25862 1.64594 4.52748 1.27299 4.90042C0.900053 5.27337 0.631192 5.7374 0.493125 6.24643C0 8.11055 0 12.0079 0 12.0079C0 12.0079 0 15.9053 0.5085 17.7844C0.646567 18.2935 0.915428 18.7575 1.28837 19.1304C1.66131 19.5034 2.12535 19.7722 2.63438 19.9103C4.49813 20.4192 12 20.4192 12 20.4192C12 20.4192 19.5019 20.4192 21.366 19.9107C21.875 19.7726 22.3391 19.5038 22.712 19.1308C23.0849 18.7579 23.3538 18.2938 23.4919 17.7848C24 15.9207 24 12.0079 24 12.0079C24 12.0079 23.985 8.11056 23.4761 6.23143Z" fill="#FF0000"/>
<path d="M9.59705 15.6123L15.8202 12.0078L9.59668 8.40332L9.59705 15.6123Z" fill="white"/>
</svg>
