<svg width="24" height="24" viewBox="0 0 24 24" fill="none" xmlns="http://www.w3.org/2000/svg">
<path d="M23.4761 6.22362C23.3381 5.71459 23.0692 5.25055 22.6963 4.87761C22.3233 4.50467 21.8593 4.23581 21.3503 4.09774C19.4865 3.58887 11.985 3.58887 11.985 3.58887C11.985 3.58887 4.48313 3.60387 2.619 4.11274C2.10997 4.25081 1.64594 4.51967 1.27299 4.89261C0.900053 5.26555 0.631192 5.72959 0.493125 6.23862C0 8.10274 0 12.0001 0 12.0001C0 12.0001 0 15.8975 0.5085 17.7766C0.646567 18.2856 0.915428 18.7497 1.28837 19.1226C1.66131 19.4956 2.12535 19.7644 2.63438 19.9025C4.49813 20.4114 12 20.4114 12 20.4114C12 20.4114 19.5019 20.4114 21.366 19.9029C21.875 19.7648 22.3391 19.4959 22.712 19.123C23.0849 18.7501 23.3538 18.286 23.4919 17.777C24 15.9129 24 12.0001 24 12.0001C24 12.0001 23.985 8.10274 23.4761 6.22362Z" fill="white"/>
<path d="M9.59705 15.6045L15.8202 12L9.59668 8.39551L9.59705 15.6045Z" fill="#01893D"/>
</svg>
