<svg width="30" height="31" viewBox="0 0 30 31" fill="none" xmlns="http://www.w3.org/2000/svg">
<path d="M21.292 22.083C21.014 21.8057 20.875 21.4653 20.875 21.062C20.875 20.6593 21.0277 20.3053 21.333 20L24.542 16.792H11.667C11.2777 16.792 10.9443 16.653 10.667 16.375C10.389 16.097 10.25 15.7637 10.25 15.375C10.25 14.9863 10.389 14.66 10.667 14.396C10.9443 14.132 11.2777 14 11.667 14H24.5L21.208 10.667C20.9307 10.389 20.7987 10.0627 20.812 9.68799C20.826 9.31266 20.972 8.98599 21.25 8.70799C21.5553 8.43066 21.9027 8.29199 22.292 8.29199C22.6807 8.29199 23.0277 8.44466 23.333 8.74999L28.875 14.25C29.0417 14.4447 29.1667 14.639 29.25 14.833C29.3333 15.0277 29.375 15.236 29.375 15.458C29.375 15.6527 29.3333 15.8473 29.25 16.042C29.1667 16.236 29.0417 16.4163 28.875 16.583L23.333 22.125C23.083 22.403 22.7637 22.542 22.375 22.542C21.9863 22.542 21.6253 22.389 21.292 22.083ZM3.292 30.542C2.37533 30.542 1.59733 30.2153 0.958 29.562C0.319333 28.9093 0 28.1247 0 27.208V3.62499C0 2.70833 0.319333 1.92366 0.958 1.27099C1.59733 0.618326 2.37533 0.291992 3.292 0.291992H13.458C13.8473 0.291992 14.1807 0.430659 14.458 0.707993C14.736 0.985993 14.875 1.30566 14.875 1.66699C14.875 2.05566 14.736 2.38899 14.458 2.66699C14.1807 2.94433 13.8473 3.08299 13.458 3.08299H3.292C3.18067 3.08299 3.06933 3.13866 2.958 3.24999C2.84733 3.36133 2.792 3.48633 2.792 3.62499V27.208C2.792 27.3473 2.84733 27.4723 2.958 27.583C3.06933 27.6943 3.18067 27.75 3.292 27.75H13.458C13.8473 27.75 14.1807 27.889 14.458 28.167C14.736 28.4443 14.875 28.7777 14.875 29.167C14.875 29.5277 14.736 29.847 14.458 30.125C14.1807 30.403 13.8473 30.542 13.458 30.542H3.292Z" fill="#1C1B1F"/>
</svg>
