<svg width="34" height="30" viewBox="0 0 34 30" fill="none" xmlns="http://www.w3.org/2000/svg">
<path d="M3.74999 29.917C2.80533 29.917 2.01366 29.5973 1.37499 28.958C0.736325 28.3193 0.416992 27.5277 0.416992 26.583V2.58301C0.416992 1.91634 0.583659 1.51367 0.916992 1.37501C1.25033 1.23634 1.65299 1.40301 2.12499 1.87501L3.12499 2.87501L4.70799 1.25001C4.87466 1.08334 5.06233 0.958341 5.27099 0.875008C5.47899 0.791674 5.68033 0.750008 5.87499 0.750008C6.09699 0.750008 6.30533 0.791674 6.49999 0.875008C6.69466 0.958341 6.88899 1.08334 7.08299 1.25001L8.66699 2.87501L10.292 1.25001C10.4587 1.08334 10.639 0.958341 10.833 0.875008C11.0277 0.791674 11.236 0.750008 11.458 0.750008C11.6807 0.750008 11.889 0.791674 12.083 0.875008C12.2777 0.958341 12.4583 1.08334 12.625 1.25001L14.208 2.87501L15.833 1.20801C15.9997 1.06934 16.1873 0.951341 16.396 0.854008C16.604 0.756674 16.8053 0.708008 17 0.708008C17.222 0.708008 17.4303 0.756674 17.625 0.854008C17.8197 0.951341 18.0003 1.06934 18.167 1.20801L19.792 2.87501L21.375 1.25001C21.5417 1.08334 21.7293 0.958341 21.938 0.875008C22.146 0.791674 22.3473 0.750008 22.542 0.750008C22.764 0.750008 22.9723 0.791674 23.167 0.875008C23.361 0.958341 23.5553 1.08334 23.75 1.25001L25.333 2.87501L26.958 1.25001C27.1247 1.08334 27.3053 0.958341 27.5 0.875008C27.6947 0.791674 27.903 0.750008 28.125 0.750008C28.347 0.750008 28.5553 0.791674 28.75 0.875008C28.9447 0.958341 29.1253 1.08334 29.292 1.25001L30.875 2.87501L31.875 1.87501C32.347 1.40301 32.7567 1.23634 33.104 1.37501C33.4513 1.51367 33.625 1.91634 33.625 2.58301V26.583C33.625 27.5277 33.2987 28.3193 32.646 28.958C31.9933 29.5973 31.2087 29.917 30.292 29.917H3.74999ZM3.74999 27.125H15.625V16.208H3.20799V26.583C3.20799 26.7497 3.25666 26.8817 3.35399 26.979C3.45133 27.0763 3.58333 27.125 3.74999 27.125ZM18.417 27.125H30.292C30.4307 27.125 30.5487 27.0763 30.646 26.979C30.7433 26.8817 30.792 26.7497 30.792 26.583V23.042H18.417V27.125ZM18.417 20.25H30.792V16.208H18.417V20.25ZM3.20799 13.375H30.792V8.08301H3.20799V13.375Z" fill="#1C1B1F"/>
</svg>
