<svg width="34" height="34" viewBox="0 0 34 34" fill="none" xmlns="http://www.w3.org/2000/svg">
<path d="M17.375 19.5L23.917 15.333C24.389 14.9997 24.625 14.5413 24.625 13.958C24.625 13.3747 24.389 12.9163 23.917 12.583L17.375 8.41701C16.8197 8.05567 16.264 8.02067 15.708 8.31201C15.1527 8.60401 14.875 9.08334 14.875 9.75001V18.167C14.875 18.8337 15.1527 19.3127 15.708 19.604C16.264 19.896 16.8197 19.8613 17.375 19.5ZM9.45799 27.792C8.54133 27.792 7.76366 27.4653 7.12499 26.812C6.48633 26.1593 6.16699 25.3887 6.16699 24.5V3.66701C6.16699 2.75034 6.48633 1.96567 7.12499 1.31301C7.76366 0.659675 8.54133 0.333008 9.45799 0.333008H30.292C31.2087 0.333008 31.9933 0.659675 32.646 1.31301C33.2987 1.96567 33.625 2.75034 33.625 3.66701V24.5C33.625 25.3887 33.2987 26.1593 32.646 26.812C31.9933 27.4653 31.2087 27.792 30.292 27.792H9.45799ZM9.45799 25H30.292C30.4307 25 30.5487 24.9513 30.646 24.854C30.7433 24.7567 30.792 24.6387 30.792 24.5V3.66701C30.792 3.52767 30.7433 3.40967 30.646 3.31301C30.5487 3.21567 30.4307 3.16701 30.292 3.16701H9.45799C9.31933 3.16701 9.20133 3.21567 9.10399 3.31301C9.00666 3.40967 8.95799 3.52767 8.95799 3.66701V24.5C8.95799 24.6387 9.00666 24.7567 9.10399 24.854C9.20133 24.9513 9.31933 25 9.45799 25ZM3.74999 33.542C2.83333 33.542 2.04866 33.2153 1.39599 32.562C0.743325 31.9093 0.416992 31.1247 0.416992 30.208V8.00001C0.416992 7.61134 0.548659 7.27801 0.811992 7.00001C1.07599 6.72201 1.40266 6.58301 1.79199 6.58301C2.18066 6.58301 2.51399 6.72201 2.79199 7.00001C3.06933 7.27801 3.20799 7.61134 3.20799 8.00001V30.208C3.20799 30.3747 3.25666 30.5067 3.35399 30.604C3.45133 30.7013 3.58333 30.75 3.74999 30.75H25.958C26.3473 30.75 26.6807 30.889 26.958 31.167C27.236 31.4443 27.375 31.7777 27.375 32.167C27.375 32.5277 27.236 32.847 26.958 33.125C26.6807 33.403 26.3473 33.542 25.958 33.542H3.74999Z" fill="#1C1B1F"/>
</svg>
