<svg width="49" height="48" viewBox="0 0 49 48" fill="none" xmlns="http://www.w3.org/2000/svg">
<rect x="0.356934" width="48" height="48" rx="24" fill="white"/>
<mask id="mask0_1690_8767" style="mask-type:alpha" maskUnits="userSpaceOnUse" x="12" y="12" width="25" height="24">
<rect x="12.3569" y="12" width="24" height="24" fill="#D9D9D9"/>
</mask>
<g mask="url(#mask0_1690_8767)">
<path d="M24.357 17.2996C24.1238 17.2996 23.928 17.2164 23.7696 17.05C23.6112 16.8832 23.532 16.6832 23.532 16.45V14.1496C23.532 13.9164 23.6112 13.7164 23.7696 13.5496C23.928 13.3832 24.1238 13.3 24.357 13.3C24.5902 13.3 24.7902 13.3832 24.957 13.5496C25.1238 13.7164 25.2072 13.9164 25.2072 14.1496V16.45C25.2072 16.6832 25.1238 16.8832 24.957 17.05C24.7902 17.2164 24.5902 17.2996 24.357 17.2996ZM29.1072 19.2496C28.9404 19.0996 28.857 18.9122 28.857 18.6874C28.857 18.4622 28.9404 18.258 29.1072 18.0748L30.7068 16.4248C30.8736 16.258 31.0736 16.1746 31.3068 16.1746C31.5404 16.1746 31.7488 16.258 31.932 16.4248C32.082 16.608 32.157 16.8122 32.157 17.0374C32.157 17.2622 32.082 17.458 31.932 17.6248L30.282 19.2496C30.1152 19.4332 29.9152 19.525 29.682 19.525C29.4488 19.525 29.2572 19.4332 29.1072 19.2496ZM31.9068 24.8248C31.6736 24.8248 31.4736 24.7456 31.3068 24.5872C31.1404 24.4288 31.0572 24.233 31.0572 23.9998C31.0572 23.7666 31.1404 23.5666 31.3068 23.3998C31.4736 23.233 31.6736 23.1496 31.9068 23.1496H34.2072C34.4404 23.1496 34.6404 23.233 34.8072 23.3998C34.9736 23.5666 35.0568 23.7666 35.0568 23.9998C35.0568 24.233 34.9736 24.4288 34.8072 24.5872C34.6404 24.7456 34.4404 24.8248 34.2072 24.8248H31.9068ZM24.357 34.6996C24.1238 34.6996 23.928 34.6164 23.7696 34.4501C23.6112 34.2832 23.532 34.0833 23.532 33.85V31.5497C23.532 31.3165 23.6112 31.1164 23.7696 30.9496C23.928 30.7832 24.1238 30.7001 24.357 30.7001C24.5902 30.7001 24.7902 30.7832 24.957 30.9496C25.1238 31.1164 25.2072 31.3165 25.2072 31.5497V33.85C25.2072 34.0833 25.1238 34.2832 24.957 34.4501C24.7902 34.6164 24.5902 34.6996 24.357 34.6996ZM18.4572 19.2496L16.8072 17.65C16.6236 17.4832 16.5318 17.2832 16.5318 17.05C16.5318 16.8164 16.6236 16.608 16.8072 16.4248C16.9904 16.2748 17.1946 16.1998 17.4198 16.1998C17.6446 16.1998 17.832 16.2748 17.982 16.4248L19.632 18.0748C19.7988 18.258 19.8822 18.4622 19.8822 18.6874C19.8822 18.9122 19.7988 19.0996 19.632 19.2496C19.4652 19.4332 19.2694 19.525 19.0446 19.525C18.8194 19.525 18.6236 19.4332 18.4572 19.2496ZM30.732 31.5497L29.1072 29.8997C28.9404 29.7332 28.857 29.5374 28.857 29.3123C28.857 29.0875 28.932 28.8916 29.082 28.7248C29.2488 28.558 29.4446 28.4746 29.6694 28.4746C29.8946 28.4746 30.0988 28.558 30.282 28.7248L31.932 30.3496C32.0988 30.5332 32.1822 30.7374 32.1822 30.9622C32.1822 31.1875 32.0988 31.3832 31.932 31.5497C31.7652 31.7332 31.5652 31.8251 31.332 31.8251C31.0988 31.8251 30.8988 31.7332 30.732 31.5497ZM14.5068 24.8248C14.2736 24.8248 14.0736 24.7456 13.9068 24.5872C13.7404 24.4288 13.6572 24.233 13.6572 23.9998C13.6572 23.7666 13.7404 23.5666 13.9068 23.3998C14.0736 23.233 14.2736 23.1496 14.5068 23.1496H16.8072C17.0404 23.1496 17.2446 23.233 17.4198 23.3998C17.5946 23.5666 17.682 23.7666 17.682 23.9998C17.682 24.233 17.5946 24.4288 17.4198 24.5872C17.2446 24.7456 17.0404 24.8248 16.8072 24.8248H14.5068ZM16.8072 31.5497C16.6404 31.3664 16.557 31.1665 16.557 30.9496C16.557 30.7332 16.6404 30.5416 16.8072 30.3748L18.432 28.7248C18.6152 28.558 18.8152 28.4746 19.032 28.4746C19.2488 28.4746 19.4488 28.558 19.632 28.7248C19.7988 28.908 19.8822 29.1164 19.8822 29.35C19.8822 29.5833 19.7988 29.7832 19.632 29.9501L18.0072 31.5497C17.8404 31.7332 17.6362 31.8251 17.3946 31.8251C17.153 31.8251 16.9572 31.7332 16.8072 31.5497ZM24.357 29.5C22.8238 29.5 21.5238 28.9667 20.457 27.8998C19.3902 26.833 18.8568 25.533 18.8568 23.9998C18.8568 22.4666 19.3902 21.1666 20.457 20.0998C21.5238 19.033 22.8238 18.4996 24.357 18.4996C25.8902 18.4996 27.1902 19.033 28.257 20.0998C29.3238 21.1666 29.8572 22.4666 29.8572 23.9998C29.8572 25.533 29.3238 26.833 28.257 27.8998C27.1902 28.9667 25.8902 29.5 24.357 29.5ZM24.357 27.7996C25.4238 27.7996 26.3238 27.433 27.057 26.6998C27.7902 25.9666 28.1568 25.0666 28.1568 23.9998C28.1568 22.9498 27.786 22.054 27.0444 21.3124C26.3028 20.5708 25.407 20.2 24.357 20.2C23.307 20.2 22.4112 20.5708 21.6696 21.3124C20.928 22.054 20.5572 22.9498 20.5572 23.9998C20.5572 25.0666 20.9238 25.9666 21.657 26.6998C22.3902 27.433 23.2902 27.7996 24.357 27.7996Z" fill="#01893D"/>
</g>
</svg>
