<svg width="49" height="48" viewBox="0 0 49 48" fill="none" xmlns="http://www.w3.org/2000/svg">
<rect x="0.356934" width="48" height="48" rx="24" fill="white"/>
<mask id="mask0_1690_8755" style="mask-type:alpha" maskUnits="userSpaceOnUse" x="12" y="12" width="25" height="24">
<rect x="12.3569" y="12" width="24" height="24" fill="#D9D9D9"/>
</mask>
<g mask="url(#mask0_1690_8755)">
<path d="M18.6822 31.9996C17.1822 31.9996 15.9072 31.483 14.8572 30.4498C13.8072 29.4166 13.2822 28.15 13.2822 26.65C13.2822 25.3664 13.6988 24.2164 14.532 23.2C15.3652 22.1832 16.4152 21.5748 17.682 21.3748C18.0488 19.808 18.8572 18.5206 20.1072 17.5126C21.3572 16.5042 22.7822 16 24.3822 16C26.1986 16 27.7568 16.6332 29.0568 17.8996C30.3568 19.1664 31.0736 20.7248 31.2072 22.5748V23.3746H31.5072C32.6236 23.4746 33.5568 23.9246 34.3068 24.7246C35.0568 25.5246 35.4318 26.508 35.4318 27.6748C35.4318 28.858 35.0068 29.8746 34.1568 30.7246C33.3068 31.5746 32.2818 31.9996 31.0818 31.9996H18.6822ZM18.6822 30.2998H31.0818C31.7986 30.2998 32.4194 30.0414 32.9442 29.5246C33.4694 29.0082 33.732 28.3916 33.732 27.6748C33.732 26.958 33.4736 26.3372 32.9568 25.8124C32.4404 25.2872 31.8154 25.0246 31.0818 25.0246H29.5068V22.975C29.5068 21.5082 29.0026 20.2622 27.9942 19.237C26.9862 18.2122 25.7654 17.6998 24.3318 17.6998C22.8818 17.6998 21.6526 18.2122 20.6442 19.237C19.6362 20.2622 19.1322 21.5082 19.1322 22.975H18.657C17.6402 22.975 16.7736 23.325 16.0572 24.025C15.3404 24.725 14.982 25.6 14.982 26.65C14.982 27.6664 15.3446 28.5288 16.0698 29.2372C16.7946 29.9456 17.6654 30.2998 18.6822 30.2998Z" fill="#01893D"/>
</g>
</svg>
