<svg width="49" height="48" viewBox="0 0 49 48" fill="none" xmlns="http://www.w3.org/2000/svg">
<rect x="0.356934" width="48" height="48" rx="24" fill="white"/>
<mask id="mask0_1690_8749" style="mask-type:alpha" maskUnits="userSpaceOnUse" x="12" y="12" width="25" height="24">
<rect x="12.3569" y="12" width="24" height="24" fill="#D9D9D9"/>
</mask>
<g mask="url(#mask0_1690_8749)">
<path d="M18.357 31.15C18.107 31.15 17.8946 31.0582 17.7198 30.8746C17.5446 30.6914 17.457 30.4748 17.457 30.2248C17.457 29.958 17.5446 29.7414 17.7198 29.575C17.8946 29.4082 18.1154 29.3248 18.3822 29.3248C18.6322 29.3248 18.8446 29.4082 19.0194 29.575C19.1946 29.7414 19.2822 29.958 19.2822 30.2248C19.2822 30.4748 19.1946 30.6914 19.0194 30.8746C18.8446 31.0582 18.6238 31.15 18.357 31.15ZM30.357 31.15C30.107 31.15 29.8946 31.0582 29.7198 30.8746C29.5446 30.6914 29.457 30.4748 29.457 30.2248C29.457 29.958 29.5446 29.7414 29.7198 29.575C29.8946 29.4082 30.1154 29.3248 30.3822 29.3248C30.6322 29.3248 30.8446 29.4082 31.0194 29.575C31.1946 29.7414 31.2822 29.958 31.2822 30.2248C31.2822 30.4748 31.1946 30.6914 31.0194 30.8746C30.8446 31.0582 30.6238 31.15 30.357 31.15ZM21.357 35.1496C21.107 35.1496 20.8946 35.058 20.7198 34.8748C20.5446 34.6916 20.457 34.475 20.457 34.225C20.457 33.9582 20.5446 33.7414 20.7198 33.5746C20.8946 33.4082 21.1154 33.325 21.3822 33.325C21.6322 33.325 21.8446 33.4082 22.0194 33.5746C22.1946 33.7414 22.2822 33.9582 22.2822 34.225C22.2822 34.475 22.1946 34.6916 22.0194 34.8748C21.8446 35.058 21.6238 35.1496 21.357 35.1496ZM24.357 31.15C24.107 31.15 23.8946 31.0582 23.7198 30.8746C23.5446 30.6914 23.457 30.4748 23.457 30.2248C23.457 29.958 23.5446 29.7414 23.7198 29.575C23.8946 29.4082 24.1154 29.3248 24.3822 29.3248C24.6322 29.3248 24.8446 29.4082 25.0194 29.575C25.1946 29.7414 25.2822 29.958 25.2822 30.2248C25.2822 30.4748 25.1946 30.6914 25.0194 30.8746C24.8446 31.0582 24.6238 31.15 24.357 31.15ZM27.357 35.1496C27.107 35.1496 26.8946 35.058 26.7198 34.8748C26.5446 34.6916 26.457 34.475 26.457 34.225C26.457 33.9582 26.5446 33.7414 26.7198 33.5746C26.8946 33.4082 27.1154 33.325 27.3822 33.325C27.6322 33.325 27.8446 33.4082 28.0194 33.5746C28.1946 33.7414 28.2822 33.9582 28.2822 34.225C28.2822 34.475 28.1946 34.6916 28.0194 34.8748C27.8446 35.058 27.6238 35.1496 27.357 35.1496ZM19.7322 27.55C18.2654 27.55 17.0112 27.029 15.9696 25.987C14.928 24.9454 14.4072 23.6914 14.4072 22.225C14.4072 20.875 14.8654 19.6916 15.7818 18.6748C16.6986 17.658 17.8486 17.0664 19.2318 16.9C19.7654 15.95 20.4738 15.2042 21.357 14.6626C22.2402 14.1206 23.2402 13.8496 24.357 13.8496C25.8402 13.8496 27.111 14.333 28.1694 15.2998C29.2278 16.2666 29.8904 17.4582 30.1572 18.8746C31.4404 18.9914 32.457 19.4622 33.207 20.287C33.957 21.1122 34.332 22.0832 34.332 23.2C34.332 24.4164 33.907 25.4454 33.057 26.287C32.207 27.129 31.182 27.55 29.982 27.55H19.7322ZM19.7322 25.8496H29.982C30.7152 25.8496 31.3402 25.5914 31.857 25.075C32.3738 24.5582 32.6322 23.9414 32.6322 23.2246C32.6322 22.4914 32.3738 21.8622 31.857 21.337C31.3402 20.8122 30.7152 20.5498 29.982 20.5498H28.5318V19.6996C28.5318 18.5664 28.1194 17.5914 27.2946 16.7746C26.4694 15.9582 25.4902 15.55 24.357 15.55C23.5238 15.55 22.7654 15.7792 22.0818 16.2376C21.3986 16.6956 20.882 17.2996 20.532 18.0496L20.3322 18.55H19.6818C18.6986 18.5832 17.8528 18.954 17.1444 19.6624C16.436 20.3708 16.0818 21.225 16.0818 22.225C16.0818 23.225 16.4402 24.079 17.157 24.787C17.8738 25.4954 18.7322 25.8496 19.7322 25.8496Z" fill="#01893D"/>
</g>
</svg>
