<svg width="49" height="48" viewBox="0 0 49 48" fill="none" xmlns="http://www.w3.org/2000/svg">
<rect x="0.356934" width="48" height="48" rx="24" fill="white"/>
<mask id="mask0_1690_8761" style="mask-type:alpha" maskUnits="userSpaceOnUse" x="12" y="12" width="25" height="24">
<rect x="12.3569" y="12" width="24" height="24" fill="#D9D9D9"/>
</mask>
<g mask="url(#mask0_1690_8761)">
<path d="M24.3569 17.2996C24.1237 17.2996 23.9279 17.2164 23.7695 17.05C23.6111 16.8832 23.5319 16.6832 23.5319 16.45V14.1496C23.5319 13.9164 23.6111 13.7164 23.7695 13.5496C23.9279 13.3832 24.1237 13.3 24.3569 13.3C24.5901 13.3 24.7901 13.3832 24.9569 13.5496C25.1237 13.7164 25.2071 13.9164 25.2071 14.1496V16.45C25.2071 16.6832 25.1237 16.8832 24.9569 17.05C24.7901 17.2164 24.5901 17.2996 24.3569 17.2996ZM29.1071 19.2496C28.9235 19.0996 28.8317 18.908 28.8317 18.6748C28.8317 18.4416 28.9235 18.2332 29.1071 18.0496L30.7067 16.4248C30.8903 16.258 31.0945 16.1746 31.3193 16.1746C31.5445 16.1746 31.7487 16.258 31.9319 16.4248C32.0987 16.608 32.1821 16.8122 32.1821 17.0374C32.1821 17.2622 32.0987 17.458 31.9319 17.6248L30.2819 19.2496C30.0987 19.4332 29.8945 19.525 29.6693 19.525C29.4445 19.525 29.2571 19.4332 29.1071 19.2496ZM31.9067 24.8248C31.6735 24.8248 31.4735 24.7456 31.3067 24.5872C31.1403 24.4288 31.0571 24.233 31.0571 23.9998C31.0571 23.7666 31.1403 23.5666 31.3067 23.3998C31.4735 23.233 31.6735 23.1496 31.9067 23.1496H34.2071C34.4403 23.1496 34.6403 23.233 34.8071 23.3998C34.9735 23.5666 35.0567 23.7666 35.0567 23.9998C35.0567 24.233 34.9735 24.4288 34.8071 24.5872C34.6403 24.7456 34.4403 24.8248 34.2071 24.8248H31.9067ZM30.7319 31.5497L29.1071 29.9249C28.9403 29.7748 28.8569 29.5833 28.8569 29.35C28.8569 29.1164 28.9403 28.908 29.1071 28.7248C29.2735 28.558 29.4735 28.4746 29.7071 28.4746C29.9403 28.4746 30.1403 28.558 30.3071 28.7248L31.9319 30.3496C32.0987 30.5332 32.1821 30.7374 32.1821 30.9622C32.1821 31.1875 32.0987 31.3832 31.9319 31.5497C31.7651 31.7332 31.5651 31.8251 31.3319 31.8251C31.0987 31.8251 30.8987 31.7332 30.7319 31.5497ZM18.4571 19.2748L16.8071 17.6248C16.6403 17.458 16.5569 17.258 16.5569 17.0248C16.5569 16.7916 16.6403 16.5916 16.8071 16.4248C16.9735 16.258 17.1651 16.1746 17.3819 16.1746C17.5987 16.1746 17.8071 16.258 18.0071 16.4248L19.6319 18.0748C19.7987 18.258 19.8821 18.4622 19.8821 18.6874C19.8821 18.9122 19.7987 19.108 19.6319 19.2748C19.4651 19.4416 19.2693 19.525 19.0445 19.525C18.8193 19.525 18.6235 19.4416 18.4571 19.2748ZM18.6569 32.5499C17.3237 32.5499 16.1987 32.0914 15.2819 31.1747C14.3651 30.2582 13.9067 29.1332 13.9067 27.7996C13.9067 26.4996 14.3525 25.3996 15.2441 24.4996C16.1361 23.5996 17.2403 23.1496 18.5567 23.1496C18.6067 23.1496 18.6651 23.1538 18.7319 23.1622C18.7987 23.1706 18.8571 23.1748 18.9071 23.1748C19.1071 21.8416 19.7153 20.7292 20.7317 19.8376C21.7485 18.9456 22.9569 18.4996 24.3569 18.4996C25.8901 18.4996 27.1901 19.033 28.2569 20.0998C29.3237 21.1666 29.8571 22.4666 29.8571 23.9998C29.8571 25.2166 29.5071 26.2916 28.8071 27.2248C28.1071 28.158 27.2237 28.8164 26.1569 29.2C26.1737 30.1164 25.8571 30.9039 25.2071 31.5623C24.5571 32.2206 23.8071 32.5499 22.9571 32.5499H18.6569ZM18.6569 30.8746H22.9571C23.4071 30.8746 23.7779 30.7288 24.0695 30.4373C24.3611 30.1456 24.5069 29.7664 24.5069 29.2996C24.5069 28.8496 24.3611 28.4746 24.0695 28.1746C23.7779 27.8747 23.4071 27.7246 22.9571 27.7246H21.6821L21.1571 26.5246C20.9071 25.9914 20.5571 25.579 20.1071 25.2874C19.6571 24.9958 19.1403 24.85 18.5567 24.85C17.7067 24.85 16.9985 25.1332 16.4321 25.6996C15.8653 26.2664 15.5819 26.9664 15.5819 27.7996C15.5819 28.6664 15.8777 29.3956 16.4693 29.9872C17.0609 30.5788 17.7901 30.8746 18.6569 30.8746ZM25.6571 27.625C26.3403 27.375 26.9277 26.9124 27.4193 26.2372C27.9109 25.5624 28.1567 24.8166 28.1567 23.9998C28.1567 22.9498 27.7859 22.054 27.0443 21.3124C26.3027 20.5708 25.4069 20.2 24.3569 20.2C23.3737 20.2 22.5071 20.5374 21.7571 21.2122C21.0071 21.8874 20.5987 22.7 20.5319 23.65C21.0819 23.9164 21.5361 24.2372 21.8945 24.6124C22.2529 24.9872 22.5487 25.458 22.7819 26.0248C23.4319 26.0248 24.0069 26.179 24.5069 26.4874C25.0069 26.7958 25.3903 27.175 25.6571 27.625Z" fill="#01893D"/>
</g>
</svg>
