<svg width="49" height="48" viewBox="0 0 49 48" fill="none" xmlns="http://www.w3.org/2000/svg">
<rect x="0.356934" width="48" height="48" rx="24" fill="white"/>
<mask id="mask0_1690_8743" style="mask-type:alpha" maskUnits="userSpaceOnUse" x="12" y="12" width="25" height="24">
<rect x="12.3569" y="12" width="24" height="24" fill="#D9D9D9"/>
</mask>
<g mask="url(#mask0_1690_8743)">
<path d="M26.8818 33.175L26.0322 32.725C25.7486 32.6082 25.5694 32.3914 25.4946 32.0746C25.4194 31.7582 25.4902 31.475 25.707 31.225L27.1818 29.5246C27.2318 29.4746 27.2902 29.433 27.357 29.3998C27.4238 29.3666 27.4904 29.35 27.5568 29.35C27.7736 29.35 27.9278 29.45 28.0194 29.65C28.111 29.85 28.0818 30.0332 27.9318 30.1996L26.532 31.825L27.3822 32.2498C27.6654 32.383 27.8446 32.608 27.9198 32.9248C27.9946 33.2416 27.9236 33.525 27.7068 33.775L26.232 35.4748C26.182 35.5248 26.1236 35.5622 26.0568 35.587C25.9904 35.6122 25.9238 35.6248 25.857 35.6248C25.6402 35.6248 25.486 35.529 25.3944 35.3374C25.3028 35.1458 25.332 34.9666 25.482 34.7998L26.8818 33.175ZM20.8818 33.175L20.007 32.725C19.7238 32.6082 19.5488 32.3914 19.482 32.0746C19.4152 31.7582 19.4902 31.475 19.707 31.225L21.1818 29.5246C21.2154 29.4582 21.2654 29.4124 21.3318 29.3872C21.3986 29.3624 21.4654 29.35 21.5322 29.35C21.7654 29.35 21.9278 29.45 22.0194 29.65C22.111 29.85 22.0818 30.0332 21.9318 30.1996L20.5068 31.825L21.3822 32.2498C21.6654 32.383 21.8404 32.608 21.9072 32.9248C21.9736 33.2416 21.8986 33.525 21.6822 33.775L20.232 35.4748C20.182 35.5416 20.1194 35.5832 20.0442 35.5996C19.9694 35.6164 19.8986 35.6248 19.8318 35.6248C19.6154 35.6248 19.4614 35.529 19.3698 35.3374C19.2778 35.1458 19.3068 34.9666 19.4568 34.7998L20.8818 33.175ZM19.7322 27.55C18.2654 27.55 17.0112 27.029 15.9696 25.987C14.928 24.9454 14.4072 23.6914 14.4072 22.225C14.4072 20.875 14.8654 19.6916 15.7818 18.6748C16.6986 17.658 17.8486 17.0664 19.2318 16.9C19.7654 15.95 20.4738 15.2042 21.357 14.6626C22.2402 14.1206 23.2402 13.8496 24.357 13.8496C25.8402 13.8496 27.111 14.333 28.1694 15.2998C29.2278 16.2666 29.8904 17.4582 30.1572 18.8746C31.4404 18.9914 32.457 19.4622 33.207 20.287C33.957 21.1122 34.332 22.0832 34.332 23.2C34.332 24.4164 33.9112 25.4454 33.0696 26.287C32.228 27.129 31.1988 27.55 29.982 27.55H19.7322ZM19.7322 25.8496H29.982C30.7152 25.8496 31.3402 25.5914 31.857 25.075C32.3738 24.5582 32.6322 23.9332 32.6322 23.2C32.6322 22.4832 32.3738 21.8622 31.857 21.337C31.3402 20.8122 30.7152 20.5498 29.982 20.5498H28.5318V19.6996C28.5318 18.5664 28.1194 17.5914 27.2946 16.7746C26.4694 15.9582 25.4902 15.55 24.357 15.55C23.5238 15.55 22.7654 15.7792 22.0818 16.2376C21.3986 16.6956 20.882 17.2996 20.532 18.0496L20.3322 18.55H19.6818C18.6986 18.5832 17.8528 18.954 17.1444 19.6624C16.436 20.3708 16.0818 21.225 16.0818 22.225C16.0818 23.225 16.4402 24.079 17.157 24.787C17.8738 25.4954 18.7322 25.8496 19.7322 25.8496Z" fill="#01893D"/>
</g>
</svg>
