<svg width="120" height="93" viewBox="0 0 120 93" fill="none" xmlns="http://www.w3.org/2000/svg">
<path d="M35.7403 85.0706L75.3888 32.6301C81.9894 23.8982 80.2628 11.4704 71.531 4.86982C62.7991 -1.73078 50.3713 -0.00418818 43.7707 8.72766L4.12666 61.1682C-2.47394 69.9001 -0.747352 82.3279 7.9845 88.9285C16.7118 95.5246 29.1397 93.798 35.7403 85.0706Z" fill="#01893D"/>
<path d="M84.3191 85.0701L44.0231 31.7707C37.4225 23.0389 39.1491 10.611 47.881 4.01044C56.6128 -2.59015 69.0407 -0.863563 75.6413 7.86829L115.937 61.1676C122.538 69.8995 120.811 82.3273 112.079 88.9279C103.348 95.5285 90.9197 93.8019 84.3191 85.0701Z" fill="#154293"/>
</svg>
