<svg width="32" height="32" viewBox="0 0 32 32" fill="none" xmlns="http://www.w3.org/2000/svg">
<rect width="32" height="32" rx="16" fill="white"/>
<path fill-rule="evenodd" clip-rule="evenodd" d="M14.3361 2.06827C11.82 2.37339 9.5637 3.28128 7.5086 4.81547C6.73038 5.39647 5.39836 6.7271 4.82224 7.4991C3.34151 9.48315 2.45917 11.5973 2.0963 14.0309C1.96846 14.888 1.96776 17.1421 2.09505 17.9599C2.50015 20.5625 3.47681 22.8109 5.06036 24.7865L5.4571 25.2815L5.48212 20.1067C5.50679 15.0021 5.50854 14.9294 5.60977 14.7566C5.79925 14.4331 5.9364 14.3922 8.71668 13.8285C10.1438 13.5392 11.5816 13.2449 11.9118 13.1745C12.2421 13.1042 12.595 13.047 12.6962 13.0475C12.9277 13.0487 13.1521 13.163 13.2746 13.3419C13.3266 13.418 13.9497 15.0119 14.6591 16.8838C16.0265 20.4918 16.0564 20.5561 16.3346 20.4879C16.4064 20.4703 16.4918 20.4293 16.5245 20.3967C16.5572 20.3641 17.1389 18.8734 17.8172 17.084C19.2666 13.2608 19.2145 13.3873 19.4028 13.2289C19.7314 12.9522 20.2257 13.1393 20.4148 13.6118C20.4599 13.7248 21.0487 15.273 21.7232 17.0522C23.0269 20.4918 23.0576 20.557 23.3397 20.4879C23.4115 20.4703 23.4968 20.4293 23.5293 20.3967C23.5618 20.3641 23.9081 19.4928 24.2988 18.4605C24.6895 17.4281 25.0561 16.5159 25.1135 16.4334C25.2409 16.25 25.3142 16.1878 25.5718 16.0443C25.7686 15.9347 25.8071 15.9326 27.886 15.9178L30 15.9028L29.9995 15.6926C29.9986 15.3073 29.8976 14.2883 29.8001 13.679C29.4276 11.3519 28.4194 9.10771 26.8665 7.14873C26.3791 6.5339 25.2622 5.44207 24.5953 4.92843C22.5136 3.32537 20.1779 2.36923 17.6093 2.06867C16.8284 1.97728 15.0881 1.97708 14.3361 2.06827ZM14.5723 9.41283C14.8193 9.54802 14.9561 9.77901 14.9784 10.0985C15 10.4075 14.8952 10.6208 14.6227 10.8229C14.4835 10.9261 14.4331 10.928 11.0914 10.9527L7.70129 10.9777L7.52371 11.0995C7.21013 11.3145 7.21073 11.3117 7.18336 12.6777L7.15834 13.9272L7.00823 13.9636C6.92567 13.9837 6.70446 14.0359 6.51667 14.0796C6.13039 14.1694 5.7965 14.314 5.64144 14.4585C5.58364 14.5124 5.52415 14.5564 5.50924 14.5564C5.4573 14.5564 5.48192 11.6229 5.53636 11.3248C5.70769 10.3863 6.59748 9.50938 7.53362 9.35632C7.68498 9.33154 9.2949 9.31458 11.1112 9.31863C14.1427 9.32539 14.4266 9.3331 14.5723 9.41283Z" fill="#2C8543"/>
<path fill-rule="evenodd" clip-rule="evenodd" d="M9.81028 15.3259C8.48931 15.6358 7.34658 15.9052 7.27093 15.9246L7.13333 15.9598V26.9027L7.59151 27.245C9.51456 28.6814 11.7301 29.5765 14.2385 29.9303C14.9699 30.0335 17.1641 30.0192 17.8912 29.9065C22.1575 29.2451 25.6668 26.9633 27.9011 23.3977C29.0236 21.6065 29.7648 19.3801 29.9661 17.1947L29.9881 16.9551L28.3214 16.9695C26.728 16.9833 26.6487 16.9885 26.5166 17.0871C26.4407 17.1439 26.3377 17.2452 26.2878 17.3124C26.238 17.3795 25.894 18.2298 25.5235 19.202C25.1531 20.1742 24.7998 21.0702 24.7384 21.1931C24.5879 21.4947 24.2493 21.8283 23.9347 21.9852C23.577 22.1635 23.0353 22.167 22.6626 21.9935C22.3456 21.8458 22.0393 21.5745 21.8771 21.2976C21.8096 21.1824 21.3125 19.9295 20.7723 18.5135C20.2322 17.0975 19.7852 15.9341 19.7789 15.9282C19.7726 15.9223 19.3285 17.0803 18.7918 18.5015C17.75 21.2606 17.6182 21.5369 17.2104 21.8175C16.868 22.0532 16.6759 22.1143 16.2791 22.1137C16.0005 22.1134 15.8542 22.0851 15.6575 21.9935C15.3571 21.8536 15.0371 21.5782 14.8807 21.3251C14.8199 21.2267 14.2259 19.7142 13.5608 17.9639C12.8073 15.9814 12.3251 14.778 12.2817 14.772C12.2434 14.7667 11.1312 15.016 9.81028 15.3259Z" fill="#4E3F84"/>
</svg>
