<svg width="34" height="32" viewBox="0 0 34 32" fill="none" xmlns="http://www.w3.org/2000/svg">
<path d="M13.625 12.375H25.708C26.0693 12.375 26.389 12.236 26.667 11.958C26.9443 11.6807 27.083 11.3473 27.083 10.958C27.083 10.5693 26.9443 10.243 26.667 9.97901C26.389 9.71501 26.0693 9.58301 25.708 9.58301H13.625C13.2363 9.58301 12.903 9.71501 12.625 9.97901C12.347 10.243 12.208 10.5693 12.208 10.958C12.208 11.3473 12.347 11.6807 12.625 11.958C12.903 12.236 13.2363 12.375 13.625 12.375ZM13.625 19.083H25.708C26.0693 19.083 26.389 18.9443 26.667 18.667C26.9443 18.389 27.083 18.0557 27.083 17.667C27.083 17.2777 26.9443 16.9513 26.667 16.688C26.389 16.424 26.0693 16.292 25.708 16.292H13.625C13.2363 16.292 12.903 16.4307 12.625 16.708C12.347 16.986 12.208 17.3193 12.208 17.708C12.208 18.0973 12.347 18.424 12.625 18.688C12.903 18.9513 13.2363 19.083 13.625 19.083ZM8.54199 12.458C8.95866 12.458 9.31266 12.3123 9.60399 12.021C9.89599 11.729 10.042 11.3747 10.042 10.958C10.042 10.5693 9.90299 10.2223 9.62499 9.91701C9.34699 9.61101 8.98599 9.45801 8.54199 9.45801C8.12533 9.45801 7.77799 9.60401 7.49999 9.89601C7.22199 10.1873 7.08299 10.5413 7.08299 10.958C7.08299 11.3747 7.22199 11.729 7.49999 12.021C7.77799 12.3123 8.12533 12.458 8.54199 12.458ZM8.54199 19.167C8.95866 19.167 9.31266 19.028 9.60399 18.75C9.89599 18.472 10.042 18.1247 10.042 17.708C10.042 17.2913 9.90299 16.9373 9.62499 16.646C9.34699 16.354 8.98599 16.208 8.54199 16.208C8.12533 16.208 7.77799 16.354 7.49999 16.646C7.22199 16.9373 7.08299 17.2777 7.08299 17.667C7.08299 18.0837 7.22199 18.4377 7.49999 18.729C7.77799 19.021 8.12533 19.167 8.54199 19.167ZM12.208 31.083C11.764 31.083 11.382 30.9233 11.062 30.604C10.7427 30.2847 10.583 29.889 10.583 29.417V27.667H3.62499C2.68033 27.667 1.88866 27.3473 1.24999 26.708C0.611325 26.0693 0.291992 25.2777 0.291992 24.333V4.29201C0.291992 3.37534 0.611325 2.59067 1.24999 1.93801C1.88866 1.28467 2.68033 0.958008 3.62499 0.958008H30.375C31.3197 0.958008 32.1113 1.28467 32.75 1.93801C33.3887 2.59067 33.708 3.37534 33.708 4.29201V24.333C33.708 25.2777 33.3887 26.0693 32.75 26.708C32.1113 27.3473 31.3197 27.667 30.375 27.667H23.417V29.417C23.417 29.889 23.2573 30.2847 22.938 30.604C22.618 30.9233 22.236 31.083 21.792 31.083H12.208ZM3.62499 24.875H30.375C30.5417 24.875 30.6737 24.8263 30.771 24.729C30.8683 24.6317 30.917 24.4997 30.917 24.333V4.29201C30.917 4.15267 30.8683 4.03467 30.771 3.93801C30.6737 3.84067 30.5417 3.79201 30.375 3.79201H3.62499C3.45833 3.79201 3.32633 3.84067 3.22899 3.93801C3.13166 4.03467 3.08299 4.15267 3.08299 4.29201V24.333C3.08299 24.4997 3.13166 24.6317 3.22899 24.729C3.32633 24.8263 3.45833 24.875 3.62499 24.875Z" fill="#1C1B1F"/>
</svg>
