<svg width="24" height="16" viewBox="0 0 24 16" fill="none" xmlns="http://www.w3.org/2000/svg">
<path d="M6.32517 15.9998C4.82517 15.9998 3.55017 15.4832 2.50017 14.45C1.45017 13.4168 0.925171 12.1502 0.925171 10.6502C0.925171 9.36658 1.34177 8.21658 2.17497 7.20018C3.00817 6.18338 4.05817 5.57498 5.32497 5.37498C5.69177 3.80818 6.50017 2.52078 7.75017 1.51278C9.00017 0.504383 10.4252 0.000183105 12.0252 0.000183105C13.8416 0.000183105 15.3998 0.633383 16.6998 1.89978C17.9998 3.16658 18.7166 4.72498 18.8502 6.57498V7.37478H19.1502C20.2666 7.47478 21.1998 7.92478 21.9498 8.72478C22.6998 9.52478 23.0748 10.5082 23.0748 11.675C23.0748 12.8582 22.6498 13.8748 21.7998 14.7248C20.9498 15.5748 19.9248 15.9998 18.7248 15.9998H6.32517ZM6.32517 14.3H18.7248C19.4416 14.3 20.0624 14.0416 20.5872 13.5248C21.1124 13.0084 21.375 12.3918 21.375 11.675C21.375 10.9582 21.1166 10.3374 20.5998 9.81258C20.0834 9.28738 19.4584 9.02478 18.7248 9.02478H17.1498V6.97518C17.1498 5.50838 16.6456 4.26238 15.6372 3.23718C14.6292 2.21238 13.4084 1.69998 11.9748 1.69998C10.5248 1.69998 9.29557 2.21238 8.28717 3.23718C7.27917 4.26238 6.77517 5.50838 6.77517 6.97518H6.29997C5.28317 6.97518 4.41657 7.32518 3.70017 8.02518C2.98337 8.72518 2.62497 9.60018 2.62497 10.6502C2.62497 11.6666 2.98757 12.529 3.71277 13.2374C4.43757 13.9458 5.30837 14.3 6.32517 14.3Z" fill="#01893D"/>
</svg>
