<svg width="21" height="13" viewBox="0 0 21 13" fill="none" xmlns="http://www.w3.org/2000/svg">
<path d="M1.00002 12.1002C0.600019 12.1002 0.308419 11.921 0.125219 11.5626C-0.0583809 11.2042 -0.025181 10.8584 0.224819 10.5252L4.15002 5.2998C4.35002 5.0498 4.61242 4.9248 4.93722 4.9248C5.26242 4.9248 5.52502 5.0498 5.72502 5.2998L9.57522 10.3998H17.6002L12.0502 3.0252L9.12522 6.8748L8.07522 5.4498L11.2498 1.2252C11.4498 0.975204 11.7124 0.846004 12.0376 0.837604C12.3624 0.829204 12.6248 0.958404 12.8248 1.2252L19.7998 10.5252C20.0666 10.8584 20.1042 11.2042 19.9126 11.5626C19.721 11.921 19.4252 12.1002 19.0252 12.1002H1.00002ZM2.45022 10.3998H7.47522L4.94982 7.0752L2.45022 10.3998Z" fill="#01893D"/>
</svg>
