<svg width="28" height="30" viewBox="0 0 28 30" fill="none" xmlns="http://www.w3.org/2000/svg">
<path d="M3.66701 29.875C2.86101 29.875 2.18734 29.604 1.64601 29.062C1.10401 28.5207 0.833008 27.861 0.833008 27.083V11.542C0.833008 11.0973 0.923341 10.6807 1.10401 10.292C1.28467 9.90266 1.56934 9.56933 1.95801 9.29199L12.292 1.45799C12.5693 1.29133 12.847 1.15966 13.125 1.06299C13.403 0.965659 13.6947 0.916992 14 0.916992C14.3053 0.916992 14.604 0.965659 14.896 1.06299C15.1873 1.15966 15.458 1.29133 15.708 1.45799L26.042 9.29199C26.4307 9.56933 26.7153 9.90266 26.896 10.292C27.0767 10.6807 27.167 11.0973 27.167 11.542V27.083C27.167 27.861 26.896 28.5207 26.354 29.062C25.8127 29.604 25.139 29.875 24.333 29.875H17.458V18H10.542V29.875H3.66701Z" fill="#1C1B1F"/>
</svg>
