<svg width="22" height="17" viewBox="0 0 22 17" fill="none" xmlns="http://www.w3.org/2000/svg">
<path d="M2.57478 6.07502C2.40838 6.07502 2.25438 6.00002 2.11278 5.85002C1.97078 5.70002 1.89978 5.53342 1.89978 5.35022C1.89978 5.16662 1.97078 5.00402 2.11278 4.86242C2.25438 4.72082 2.41678 4.65002 2.59998 4.65002H6.00018C6.43338 4.65002 6.79998 4.79162 7.09998 5.07482C7.39998 5.35842 7.59158 5.69182 7.67478 6.07502H2.57478ZM4.67478 15.4002C5.57478 15.4002 6.34158 15.0834 6.97518 14.4498C7.60838 13.8166 7.92498 13.05 7.92498 12.15C7.92498 11.25 7.60838 10.4876 6.97518 9.86282C6.34158 9.23762 5.57478 8.92502 4.67478 8.92502C3.77478 8.92502 3.01238 9.23762 2.38758 9.86282C1.76238 10.4876 1.44978 11.25 1.44978 12.15C1.44978 13.05 1.76238 13.8166 2.38758 14.4498C3.01238 15.0834 3.77478 15.4002 4.67478 15.4002ZM18.65 15.4248C19.1832 15.4248 19.6332 15.2416 20 14.8752C20.3668 14.5084 20.5502 14.0584 20.5502 13.5252C20.5502 12.9916 20.371 12.5416 20.0126 12.1752C19.6542 11.8084 19.2084 11.625 18.6752 11.625C18.1416 11.625 17.6874 11.8084 17.3126 12.1752C16.9374 12.5416 16.7498 12.9916 16.7498 13.5252C16.7498 14.0584 16.9332 14.5084 17.3 14.8752C17.6668 15.2416 18.1168 15.4248 18.65 15.4248ZM4.67478 13.65C4.25838 13.65 3.90438 13.5042 3.61278 13.2126C3.32078 12.921 3.17478 12.5668 3.17478 12.15C3.17478 11.7168 3.32078 11.3544 3.61278 11.0628C3.90438 10.7708 4.25838 10.6248 4.67478 10.6248C5.10838 10.6248 5.47098 10.7708 5.76258 11.0628C6.05418 11.3544 6.19998 11.7168 6.19998 12.15C6.19998 12.5668 6.05418 12.921 5.76258 13.2126C5.47098 13.5042 5.10838 13.65 4.67478 13.65ZM19.2002 10.2498C19.5002 10.3166 19.7502 10.3958 19.9502 10.4874C20.1502 10.579 20.3752 10.7248 20.6252 10.9248V4.95002C20.6252 4.45002 20.4584 4.03762 20.1248 3.71282C19.7916 3.38762 19.3834 3.22502 18.9002 3.22502H12.7502L11.6252 2.02502L12.8 0.850224C12.9 0.766624 12.9542 0.670825 12.9626 0.562825C12.971 0.454425 12.9334 0.358425 12.8498 0.274825C12.7666 0.191625 12.6584 0.150024 12.5252 0.150024C12.3916 0.150024 12.2916 0.183424 12.2252 0.250224L9.24978 3.25022C9.16658 3.33342 9.12498 3.43342 9.12498 3.55022C9.12498 3.66662 9.17498 3.76662 9.27498 3.85022C9.34178 3.93342 9.43338 3.97082 9.54978 3.96242C9.66658 3.95402 9.76658 3.90822 9.84978 3.82502L11.0252 2.65022L12.1748 3.79982V6.00002C12.1748 6.70002 11.929 7.30422 11.4374 7.81262C10.9458 8.32102 10.3416 8.57522 9.62478 8.57522H7.69998C7.96678 8.84162 8.17098 9.06662 8.31258 9.25023C8.45418 9.43342 8.61658 9.68342 8.79978 10.0002H9.62478C10.7248 10.0002 11.6624 9.60442 12.4376 8.81282C13.2124 8.02082 13.5998 7.08322 13.5998 6.00002V4.65002H18.9002C18.9834 4.65002 19.0542 4.67922 19.1126 4.73762C19.171 4.79602 19.2002 4.86682 19.2002 4.95002V10.2498ZM15.425 12.8748C15.4918 12.5416 15.5752 12.275 15.6752 12.075C15.7752 11.875 15.9334 11.6666 16.1498 11.4498H9.27498C9.32498 11.7334 9.34998 11.971 9.34998 12.1626C9.34998 12.3542 9.32498 12.5916 9.27498 12.8748H15.425ZM18.6752 16.8498C17.7416 16.8498 16.954 16.5332 16.3124 15.9C15.6708 15.2668 15.35 14.4918 15.35 13.575C15.35 12.6418 15.675 11.846 16.325 11.1876C16.975 10.5292 17.7666 10.2 18.6998 10.2C19.6334 10.2 20.4126 10.5208 21.0374 11.1624C21.6626 11.804 21.9752 12.5916 21.9752 13.5252C21.9752 14.4584 21.6544 15.2458 21.0128 15.8874C20.3708 16.529 19.5916 16.8498 18.6752 16.8498ZM4.65018 16.8252C3.35018 16.8252 2.25418 16.371 1.36218 15.4626C0.47058 14.5542 0.0247803 13.45 0.0247803 12.15C0.0247803 10.8668 0.47478 9.77102 1.37478 8.86263C2.27478 7.95422 3.37478 7.50002 4.67478 7.50002C5.97478 7.50002 7.07478 7.95422 7.97478 8.86263C8.87478 9.77102 9.32478 10.8668 9.32478 12.15C9.32478 13.45 8.87478 14.5542 7.97478 15.4626C7.07478 16.371 5.96658 16.8252 4.65018 16.8252Z" fill="#01893D"/>
</svg>
