<svg width="18" height="18" viewBox="0 0 18 18" fill="none" xmlns="http://www.w3.org/2000/svg">
<path d="M7.24981 11.7252C6.98341 11.7252 6.75421 11.6292 6.56221 11.4372C6.37061 11.2456 6.27481 11.0166 6.27481 10.7502V7.27501C6.27481 6.99181 6.37061 6.75441 6.56221 6.56281C6.75421 6.37081 6.98341 6.27481 7.24981 6.27481H10.725C11.0082 6.27481 11.2456 6.37081 11.4372 6.56281C11.6292 6.75441 11.7252 6.99181 11.7252 7.27501V10.7502C11.7252 11.0166 11.6292 11.2456 11.4372 11.4372C11.2456 11.6292 11.0082 11.7252 10.725 11.7252H7.24981ZM6.85021 17.9748C6.63341 17.9748 6.44161 17.8916 6.27481 17.7252C6.10841 17.5584 6.02521 17.3584 6.02521 17.1252V16.0002H4.00021C3.45021 16.0002 2.97921 15.8044 2.58721 15.4128C2.19561 15.0208 1.99981 14.5498 1.99981 13.9998V11.9748H0.874808C0.641608 11.9748 0.441608 11.8916 0.274808 11.7252C0.108408 11.5584 0.0252075 11.3584 0.0252075 11.1252C0.0252075 10.8916 0.108408 10.6956 0.274808 10.5372C0.441608 10.3792 0.641608 10.3002 0.874808 10.3002H1.99981V7.65001H0.874808C0.641608 7.65001 0.441608 7.56661 0.274808 7.39981C0.108408 7.23341 0.0252075 7.03341 0.0252075 6.79981C0.0252075 6.56661 0.108408 6.37081 0.274808 6.21241C0.441608 6.05401 0.641608 5.97481 0.874808 5.97481H1.99981V3.94981C1.99981 3.39981 2.19561 2.92901 2.58721 2.53741C2.97921 2.14581 3.45021 1.95001 4.00021 1.95001H6.02521V0.874808C6.02521 0.641608 6.10841 0.441608 6.27481 0.274808C6.44161 0.108408 6.64161 0.0252075 6.87481 0.0252075C7.10841 0.0252075 7.30441 0.108408 7.46281 0.274808C7.62081 0.441608 7.69981 0.641608 7.69981 0.874808V1.95001H10.35V0.874808C10.35 0.641608 10.4334 0.441608 10.6002 0.274808C10.7666 0.108408 10.9666 0.0252075 11.2002 0.0252075C11.4334 0.0252075 11.6292 0.108408 11.7876 0.274808C11.946 0.441608 12.0252 0.641608 12.0252 0.874808V1.95001H14.0502C14.6002 1.95001 15.071 2.14581 15.4626 2.53741C15.8542 2.92901 16.05 3.39981 16.05 3.94981V5.97481H17.1252C17.3584 5.97481 17.5584 6.05821 17.7252 6.22501C17.8916 6.39181 17.9748 6.59181 17.9748 6.82501C17.9748 7.05821 17.8916 7.25401 17.7252 7.41241C17.5584 7.57081 17.3584 7.65001 17.1252 7.65001H16.05V10.3002H17.1252C17.3584 10.3002 17.5584 10.3834 17.7252 10.5498C17.8916 10.7166 17.9748 10.9166 17.9748 11.1498C17.9748 11.3666 17.8916 11.5584 17.7252 11.7252C17.5584 11.8916 17.3584 11.9748 17.1252 11.9748H16.05V13.9998C16.05 14.5498 15.8542 15.0208 15.4626 15.4128C15.071 15.8044 14.6002 16.0002 14.0502 16.0002H12.0252V17.1252C12.0252 17.3584 11.9418 17.5584 11.775 17.7252C11.6082 17.8916 11.4082 17.9748 11.175 17.9748C10.9418 17.9748 10.746 17.8916 10.5876 17.7252C10.4292 17.5584 10.35 17.3584 10.35 17.1252V16.0002H7.69981V17.1252C7.69981 17.3584 7.61661 17.5584 7.45021 17.7252C7.28341 17.8916 7.08341 17.9748 6.85021 17.9748ZM4.00021 14.2998H14.0502C14.1334 14.2998 14.2042 14.2708 14.2626 14.2128C14.321 14.1544 14.3502 14.0834 14.3502 13.9998V3.94981C14.3502 3.86661 14.321 3.79581 14.2626 3.73741C14.2042 3.67901 14.1334 3.64981 14.0502 3.64981H4.00021C3.91661 3.64981 3.84561 3.67901 3.78721 3.73741C3.72921 3.79581 3.70021 3.86661 3.70021 3.94981V13.9998C3.70021 14.0834 3.72921 14.1544 3.78721 14.2128C3.84561 14.2708 3.91661 14.2998 4.00021 14.2998ZM7.97521 10.0248H10.0248V7.97521H7.97521V10.0248Z" fill="#01893D"/>
</svg>
