<svg width="22" height="4" viewBox="0 0 22 4" fill="none" xmlns="http://www.w3.org/2000/svg">
<path d="M1.96635 3.8002C1.47782 3.8002 1.06128 3.62233 0.716751 3.2666C0.372218 2.9114 0.199951 2.48926 0.199951 2.0002C0.199951 1.51113 0.377818 1.089 0.733551 0.733795C1.08875 0.378062 1.51088 0.200195 1.99995 0.200195C2.48902 0.200195 2.90555 0.378062 3.24955 0.733795C3.59408 1.089 3.76635 1.51113 3.76635 2.0002C3.76635 2.48926 3.59408 2.9114 3.24955 3.2666C2.90555 3.62233 2.47782 3.8002 1.96635 3.8002ZM11 3.8002C10.5109 3.8002 10.0888 3.62233 9.73355 3.2666C9.37782 2.9114 9.19995 2.48926 9.19995 2.0002C9.19995 1.51113 9.37782 1.089 9.73355 0.733795C10.0888 0.378062 10.5109 0.200195 11 0.200195C11.489 0.200195 11.9112 0.378062 12.2664 0.733795C12.6221 1.089 12.8 1.51113 12.8 2.0002C12.8 2.48926 12.6221 2.9114 12.2664 3.2666C11.9112 3.62233 11.489 3.8002 11 3.8002ZM20 3.8002C19.5109 3.8002 19.0944 3.62233 18.7504 3.2666C18.4058 2.9114 18.2336 2.48926 18.2336 2.0002C18.2336 1.51113 18.4058 1.089 18.7504 0.733795C19.0944 0.378062 19.5221 0.200195 20.0336 0.200195C20.5221 0.200195 20.9386 0.378062 21.2832 0.733795C21.6277 1.089 21.8 1.51113 21.8 2.0002C21.8 2.48926 21.6221 2.9114 21.2664 3.2666C20.9112 3.62233 20.489 3.8002 20 3.8002Z" fill="#302421"/>
</svg>
