<svg width="20" height="20" viewBox="0 0 20 20" fill="none" xmlns="http://www.w3.org/2000/svg">
<path d="M5.82519 6.82479C6.09159 6.82479 6.32479 6.72079 6.52479 6.51279C6.72479 6.30439 6.82479 6.07519 6.82479 5.82519C6.82479 5.55839 6.72479 5.32499 6.52479 5.12499C6.32479 4.92499 6.09159 4.82499 5.82519 4.82499C5.55839 4.82499 5.32499 4.92499 5.12499 5.12499C4.92499 5.32499 4.82499 5.54999 4.82499 5.79999C4.82499 6.06679 4.92499 6.30439 5.12499 6.51279C5.32499 6.72079 5.55839 6.82479 5.82519 6.82479ZM5.82519 11.0002C6.09159 11.0002 6.32479 10.9002 6.52479 10.7002C6.72479 10.5002 6.82479 10.2668 6.82479 9.99999C6.82479 9.73319 6.72479 9.49979 6.52479 9.29979C6.32479 9.09979 6.09159 8.99979 5.82519 8.99979C5.55839 8.99979 5.32499 9.09979 5.12499 9.29979C4.92499 9.49979 4.82499 9.73319 4.82499 9.99999C4.82499 10.2668 4.92499 10.5002 5.12499 10.7002C5.32499 10.9002 5.55839 11.0002 5.82519 11.0002ZM5.82519 15.175C6.09159 15.175 6.32479 15.075 6.52479 14.875C6.72479 14.675 6.82479 14.4416 6.82479 14.1748C6.82479 13.9084 6.72479 13.6752 6.52479 13.4752C6.32479 13.2752 6.09159 13.1752 5.82519 13.1752C5.55839 13.1752 5.32499 13.2752 5.12499 13.4752C4.92499 13.6752 4.82499 13.9084 4.82499 14.1748C4.82499 14.4416 4.92499 14.675 5.12499 14.875C5.32499 15.075 5.55839 15.175 5.82519 15.175ZM2.97519 19.0252C2.42519 19.0252 1.95439 18.8292 1.56279 18.4372C1.17079 18.0456 0.974792 17.5748 0.974792 17.0248V2.97519C0.974792 2.42519 1.17079 1.95439 1.56279 1.56279C1.95439 1.17079 2.42519 0.974792 2.97519 0.974792H14.05L19.0252 5.94999V17.0248C19.0252 17.5748 18.8292 18.0456 18.4372 18.4372C18.0456 18.8292 17.5748 19.0252 17.0248 19.0252H2.97519ZM2.97519 17.35H17.0248C17.1248 17.35 17.204 17.3208 17.2624 17.2624C17.3208 17.204 17.35 17.1248 17.35 17.0248V6.84999H14.1502C13.8666 6.84999 13.629 6.75419 13.4374 6.56259C13.2458 6.37099 13.15 6.13339 13.15 5.84979V2.64999H2.97519C2.87519 2.64999 2.79599 2.67919 2.73759 2.73759C2.67919 2.79599 2.64999 2.87519 2.64999 2.97519V17.0248C2.64999 17.1248 2.67919 17.204 2.73759 17.2624C2.79599 17.3208 2.87519 17.35 2.97519 17.35Z" fill="#01893D"/>
</svg>
