<svg width="30" height="33" viewBox="0 0 30 33" fill="none" xmlns="http://www.w3.org/2000/svg">
<path d="M9.54199 29.792H20.5C20.6113 29.792 20.7087 29.7573 20.792 29.688C20.8753 29.618 20.9447 29.5277 21 29.417L22.833 22.042H7.16699L9.04199 29.417C9.06933 29.5277 9.13166 29.618 9.22899 29.688C9.32633 29.7573 9.43066 29.792 9.54199 29.792ZM9.54199 32.625C8.76399 32.625 8.07633 32.4027 7.47899 31.958C6.88166 31.514 6.48599 30.917 6.29199 30.167L4.24999 22.042H25.792L23.708 30.167C23.514 30.889 23.1113 31.4793 22.5 31.938C21.8887 32.396 21.222 32.625 20.5 32.625H9.54199ZM4.12499 19.208H25.917C26.0837 19.208 26.2087 19.1593 26.292 19.062C26.3753 18.9653 26.417 18.8473 26.417 18.708V16.125H3.62499V18.708C3.62499 18.8473 3.67366 18.9653 3.77099 19.062C3.86833 19.1593 3.98633 19.208 4.12499 19.208ZM6.41699 0.0419963C8.66699 0.485996 10.6253 1.63166 12.292 3.479C13.9587 5.32633 14.8613 7.40266 15 9.708C15.1667 7.40266 16.0763 5.33333 17.729 3.5C19.3817 1.66666 21.333 0.513996 23.583 0.0419963C23.9443 -0.0140037 24.2293 0.0693297 24.438 0.291996C24.646 0.513996 24.7223 0.791663 24.667 1.125C24.2777 3.18033 23.2983 5.00666 21.729 6.604C20.1597 8.20133 18.389 9.18066 16.417 9.542V13.333H27.583C28.0277 13.333 28.4167 13.4927 28.75 13.812C29.0833 14.132 29.25 14.528 29.25 15V18.708C29.25 19.6247 28.9307 20.4093 28.292 21.062C27.6527 21.7153 26.9443 22.042 26.167 22.042H3.91699C3.11099 22.042 2.38866 21.7153 1.74999 21.062C1.11133 20.4093 0.791992 19.6247 0.791992 18.708V15C0.791992 14.528 0.958659 14.132 1.29199 13.812C1.62533 13.4927 2.01399 13.333 2.45799 13.333H13.625V9.542C11.625 9.18066 9.84733 8.20133 8.29199 6.604C6.73599 5.00666 5.74966 3.18033 5.33299 1.125C5.27766 0.791663 5.35399 0.513996 5.56199 0.291996C5.77066 0.0693297 6.05566 -0.0140037 6.41699 0.0419963Z" fill="#1C1B1F"/>
</svg>
