<svg width="34" height="32" viewBox="0 0 34 32" fill="none" xmlns="http://www.w3.org/2000/svg">
<path d="M5.16719 31.125C4.22253 31.125 3.43086 30.7987 2.79219 30.146C2.15286 29.4933 1.83319 28.7087 1.83319 27.792V14.458C0.972526 13.7913 0.417193 12.972 0.167193 12C-0.0828073 11.028 -0.0274741 10.028 0.333193 8.99999L2.12519 3.37499C2.37519 2.62499 2.76419 2.02766 3.29219 1.58299C3.81953 1.13899 4.47219 0.916992 5.25019 0.916992H28.6252C29.3752 0.916992 30.0419 1.13233 30.6252 1.56299C31.2085 1.99299 31.6112 2.58299 31.8332 3.33299L33.6672 8.99999C34.0005 10.028 34.0489 11.0627 33.8122 12.104C33.5762 13.146 33.0139 13.9447 32.1252 14.5V27.792C32.1252 28.7087 31.7989 29.4933 31.1462 30.146C30.4935 30.7987 29.7089 31.125 28.7922 31.125H5.16719ZM20.7502 12.958C21.5555 12.958 22.2152 12.729 22.7292 12.271C23.2432 11.8123 23.4445 11.236 23.3332 10.542L22.2922 3.74999H18.4172V10.375C18.4172 11.0697 18.6392 11.674 19.0832 12.188C19.5279 12.7013 20.0835 12.958 20.7502 12.958ZM13.0002 12.958C13.7222 12.958 14.3402 12.708 14.8542 12.208C15.3682 11.708 15.6252 11.097 15.6252 10.375V3.74999H11.7082L10.6252 10.542C10.5139 11.264 10.6945 11.8473 11.1672 12.292C11.6392 12.736 12.2502 12.958 13.0002 12.958ZM5.37519 12.958C5.98653 12.958 6.52119 12.736 6.97919 12.292C7.43786 11.8473 7.72253 11.3057 7.83319 10.667L8.83319 3.74999H5.50019C5.33353 3.74999 5.19453 3.78466 5.08319 3.85399C4.97253 3.92333 4.88919 4.04133 4.83319 4.20799L3.12519 9.66699C2.81986 10.5277 2.90319 11.2913 3.37519 11.958C3.84719 12.6247 4.51386 12.958 5.37519 12.958ZM28.5832 12.958C29.4445 12.958 30.1042 12.6387 30.5622 12C31.0209 11.3613 31.1252 10.5837 30.8752 9.66699L29.2082 4.16699C29.1809 4.02766 29.1115 3.92333 29.0002 3.85399C28.8889 3.78466 28.7362 3.74999 28.5422 3.74999H25.1672L26.1672 10.667C26.2505 11.3057 26.5142 11.8473 26.9582 12.292C27.4029 12.736 27.9445 12.958 28.5832 12.958Z" fill="#1C1B1F"/>
</svg>
