<svg width="34" height="32" viewBox="0 0 34 32" fill="none" xmlns="http://www.w3.org/2000/svg">
<path d="M5.16695 31.125C4.25028 31.125 3.46528 30.7987 2.81195 30.146C2.15928 29.4933 1.83295 28.7087 1.83295 27.792V14.458C0.972282 13.7913 0.416948 12.972 0.166949 12C-0.0830515 11.028 -0.0277182 10.028 0.332948 8.99999L2.16695 3.37499C2.38895 2.62499 2.76395 2.02766 3.29195 1.58299C3.81928 1.13899 4.47195 0.916992 5.24995 0.916992H28.6249C29.4029 0.916992 30.0766 1.13233 30.6459 1.56299C31.2153 1.99299 31.6109 2.58299 31.8329 3.33299L33.6669 8.99999C34.0003 10.028 34.0486 11.0627 33.8119 12.104C33.5759 13.146 33.0136 13.9447 32.1249 14.5V27.792C32.1249 28.7087 31.7986 29.4933 31.1459 30.146C30.4933 30.7987 29.7086 31.125 28.7919 31.125H5.16695ZM20.7919 12.958C21.5693 12.958 22.2079 12.729 22.7079 12.271C23.2079 11.8123 23.4163 11.236 23.3329 10.542L22.2919 3.74999H18.4169V10.375C18.4169 11.0697 18.6459 11.674 19.1039 12.188C19.5626 12.7013 20.1253 12.958 20.7919 12.958ZM12.9999 12.958C13.7219 12.958 14.3399 12.708 14.8539 12.208C15.3679 11.708 15.6249 11.097 15.6249 10.375V3.74999H11.7079L10.6249 10.542C10.5136 11.264 10.6943 11.8473 11.1669 12.292C11.6389 12.736 12.2499 12.958 12.9999 12.958ZM5.37495 12.958C5.98628 12.958 6.51395 12.736 6.95795 12.292C7.40262 11.8473 7.69428 11.3057 7.83295 10.667L8.83295 3.74999H5.49995C5.33328 3.74999 5.19428 3.78466 5.08295 3.85399C4.97228 3.92333 4.88895 4.04133 4.83295 4.20799L3.12495 9.66699C2.81962 10.5277 2.90295 11.2913 3.37495 11.958C3.84695 12.6247 4.51362 12.958 5.37495 12.958ZM28.5829 12.958C29.4443 12.958 30.1039 12.6387 30.5619 12C31.0206 11.3613 31.1249 10.5837 30.8749 9.66699L29.2079 4.16699C29.1806 4.02766 29.1113 3.92333 28.9999 3.85399C28.8886 3.78466 28.7359 3.74999 28.5419 3.74999H25.1669L26.1669 10.667C26.2776 11.3057 26.5483 11.8473 26.9789 12.292C27.4096 12.736 27.9443 12.958 28.5829 12.958ZM5.16695 28.333H28.7919C28.9306 28.333 29.0556 28.2847 29.1669 28.188C29.2776 28.0907 29.3329 27.9587 29.3329 27.792V15.708C29.3056 15.708 29.2016 15.715 29.0209 15.729C28.8403 15.743 28.6666 15.75 28.4999 15.75C27.7779 15.75 27.1183 15.604 26.5209 15.312C25.9236 15.0207 25.3333 14.5833 24.7499 14C24.2779 14.5553 23.7153 14.986 23.0619 15.292C22.4093 15.5973 21.6803 15.75 20.8749 15.75C20.0696 15.75 19.3543 15.618 18.7289 15.354C18.1043 15.09 17.5279 14.6803 16.9999 14.125C16.5279 14.653 15.9653 15.0557 15.3119 15.333C14.6593 15.611 13.9579 15.75 13.2079 15.75C12.3746 15.75 11.6246 15.604 10.9579 15.312C10.2913 15.0207 9.70795 14.5833 9.20795 14C8.54128 14.6387 7.90928 15.09 7.31195 15.354C6.71528 15.618 6.09728 15.75 5.45795 15.75C5.26395 15.75 5.09728 15.743 4.95795 15.729C4.81928 15.715 4.70828 15.708 4.62495 15.708V27.792C4.62495 27.9587 4.68061 28.0907 4.79195 28.188C4.90262 28.2847 5.02762 28.333 5.16695 28.333Z" fill="#1C1B1F"/>
</svg>
